<svg width="172" height="75" viewBox="0 0 172 75" fill="none" xmlns="http://www.w3.org/2000/svg">
<g opacity="0.5">
<path d="M28.8909 31.2465C28.8767 31.2822 28.7659 31.3501 28.5587 31.4501C28.3587 31.5572 28.1158 31.668 27.83 31.7823C27.5514 31.9037 27.2549 32.0073 26.9406 32.0931C26.6334 32.1859 26.3619 32.2324 26.1262 32.2324C25.969 32.2324 25.8404 32.2038 25.7404 32.1466C25.6475 32.0895 25.6011 31.9966 25.6011 31.868C25.6011 31.8251 25.6082 31.7823 25.6225 31.7394C25.6368 31.7037 25.6547 31.6465 25.6761 31.568C25.9476 30.5463 26.2262 29.5283 26.5119 28.5138C26.7977 27.4994 27.0763 26.5099 27.3478 25.5455C27.6193 24.5739 27.8765 23.638 28.1194 22.7378C28.3623 21.8305 28.573 20.9804 28.7516 20.1874C28.9302 19.3872 29.0731 18.6549 29.1803 17.9905C29.2874 17.319 29.341 16.7332 29.341 16.2331C29.341 14.6685 29.2089 13.254 28.9445 11.9895C28.6873 10.725 28.3194 9.60334 27.8408 8.62459C27.3692 7.6387 26.8013 6.79212 26.1369 6.08485C25.4796 5.37044 24.7509 4.78462 23.9508 4.3274C23.1506 3.87017 22.2933 3.5344 21.3789 3.32007C20.4716 3.09861 19.5321 2.98787 18.5605 2.98787C17.4103 2.98787 16.2387 3.13076 15.0456 3.41652C13.8526 3.70229 12.6773 4.11307 11.52 4.64888C10.3555 5.18469 9.2303 5.83838 8.14439 6.60995C7.05134 7.38151 6.03688 8.2531 5.101 9.2247C4.15797 10.1892 3.31496 11.2501 2.57197 12.4074C1.82899 13.5576 1.22173 14.7828 0.750222 16.0831C0.607339 16.4688 0.493033 16.7367 0.407304 16.8868C0.31443 17.0297 0.239417 17.1011 0.182263 17.1011C0.117966 17.1011 0.0715295 17.0261 0.042953 16.8761C0.0143765 16.7189 8.82149e-05 16.5617 8.82149e-05 16.4045C8.82149e-05 16.3331 0.00366028 16.2724 0.0108044 16.2224C0.0108044 16.1652 0.0143765 16.1188 0.0215206 16.0831C0.357295 14.6757 0.871672 13.3683 1.56465 12.1609C2.25763 10.9536 3.07921 9.85338 4.02938 8.86035C4.97955 7.86731 6.03688 6.98858 7.20137 6.22416C8.36586 5.4526 9.58751 4.80605 10.8663 4.28453C12.1451 3.76301 13.4596 3.36651 14.8099 3.09503C16.1601 2.82356 17.4961 2.68782 18.8177 2.68782C19.9894 2.68782 21.1288 2.79855 22.2362 3.02002C23.3507 3.24149 24.3973 3.57726 25.376 4.02734C26.3619 4.47742 27.2657 5.04895 28.0872 5.74193C28.9088 6.43491 29.6161 7.25649 30.209 8.20666C30.802 9.14968 31.2628 10.2249 31.5914 11.4322C31.9272 12.6324 32.0951 13.9684 32.0951 15.4401C32.0951 16.1402 32.0379 16.9868 31.9236 17.9798C31.8093 18.9657 31.6307 20.0552 31.3878 21.2483C31.1449 22.4342 30.8341 23.6987 30.4555 25.0418C30.0769 26.3777 29.6268 27.7423 29.1053 29.1354L38.1712 14.4756C38.3426 14.2113 38.5355 13.9362 38.7498 13.6505C38.9642 13.3576 39.1892 13.0897 39.425 12.8468C39.6679 12.5967 39.9143 12.3931 40.1644 12.2359C40.4144 12.0716 40.6609 11.9895 40.9038 11.9895C41.1467 11.9895 41.336 12.0109 41.4718 12.0538C41.6075 12.0895 41.7075 12.1359 41.7718 12.1931C41.8432 12.2502 41.8861 12.3181 41.9004 12.3967C41.9218 12.4681 41.9325 12.5396 41.9325 12.611L28.8909 31.2465ZM48.5337 26.5956C48.5837 26.5671 48.6373 26.5528 48.6945 26.5528C48.7802 26.5528 48.8588 26.5814 48.9302 26.6385C49.0017 26.6957 49.0374 26.7742 49.0374 26.8743C49.0374 26.96 48.9981 27.0564 48.9195 27.1636C48.8481 27.2708 48.7195 27.3779 48.5337 27.4851C48.1694 27.6923 47.7693 27.9245 47.3335 28.1816C46.9049 28.4317 46.4619 28.6889 46.0047 28.9532C45.5546 29.2175 45.1045 29.4783 44.6545 29.7355C44.2044 29.9927 43.7757 30.2284 43.3685 30.4428C42.9684 30.6571 42.6041 30.8428 42.2755 31C41.9468 31.15 41.6789 31.2536 41.4718 31.3108C41.3574 31.3465 41.2503 31.3679 41.1503 31.3751C41.0574 31.3894 40.9717 31.3965 40.8931 31.3965C40.593 31.3965 40.3466 31.3215 40.1537 31.1715C39.9608 31.0214 39.8072 30.8214 39.6929 30.5714C39.5857 30.3142 39.5107 30.0177 39.4678 29.6819C39.425 29.339 39.4035 28.9782 39.4035 28.5996C39.4035 28.0852 39.4285 27.5637 39.4785 27.035C39.5286 26.4992 39.575 26.0063 39.6179 25.5562L37.2924 26.9278L36.3494 27.4851C36.2994 27.5137 36.2423 27.528 36.178 27.528C36.0922 27.528 36.0172 27.4994 35.9529 27.4422C35.8886 27.3851 35.8565 27.3065 35.8565 27.2065C35.8565 27.1207 35.8922 27.0279 35.9636 26.9278C36.0351 26.8207 36.1637 26.71 36.3494 26.5956L39.6821 24.6346C40.0251 23.4487 40.3787 22.3592 40.7431 21.3661C41.1074 20.3731 41.5039 19.4765 41.9325 18.6764C42.3612 17.8762 42.8291 17.1725 43.3364 16.5653C43.8436 15.958 44.4116 15.4544 45.0402 15.0543C45.6689 14.6471 46.3655 14.3435 47.1299 14.1434C47.9015 13.9362 48.7588 13.8327 49.7018 13.8327C50.1733 13.8327 50.5698 13.8755 50.8913 13.9613C51.2128 14.0398 51.4735 14.1577 51.6736 14.3149C51.8807 14.4649 52.0272 14.6471 52.1129 14.8614C52.2058 15.0757 52.2522 15.3115 52.2522 15.5687C52.2522 15.8902 52.1451 16.2367 51.9308 16.6082C51.7164 16.9725 51.4271 17.3511 51.0627 17.7441C50.6984 18.137 50.2769 18.5371 49.7982 18.9443C49.3196 19.3444 48.8159 19.7409 48.2873 20.1338C47.7586 20.5267 47.2192 20.9053 46.6691 21.2697C46.1262 21.634 45.6046 21.9734 45.1045 22.2877C44.6116 22.6021 44.1544 22.8843 43.7329 23.1343C43.3185 23.3844 42.9792 23.588 42.7148 23.7451C42.5862 24.1952 42.4576 24.6667 42.329 25.1597C42.2005 25.6526 42.0826 26.1491 41.9754 26.6492C41.8754 27.1493 41.7932 27.6458 41.7289 28.1388C41.6646 28.6246 41.6325 29.0818 41.6325 29.5104C41.6325 29.6819 41.6468 29.8284 41.6754 29.9498C41.7111 30.0713 41.7682 30.132 41.8468 30.132C41.9826 30.132 42.1826 30.082 42.4469 29.982C42.7184 29.8748 43.0292 29.7319 43.3792 29.5533C43.7293 29.3747 44.1115 29.1711 44.5259 28.9425C44.9474 28.7067 45.3832 28.4567 45.8332 28.1924C46.2833 27.928 46.737 27.6601 47.1942 27.3886C47.6514 27.1172 48.0979 26.8528 48.5337 26.5956ZM42.8649 22.7592C43.2935 22.5306 43.8007 22.2306 44.3866 21.8591C44.9795 21.4876 45.5903 21.0804 46.219 20.6374C46.8549 20.1874 47.48 19.7158 48.0944 19.2229C48.7088 18.73 49.2589 18.2477 49.7447 17.7762C50.2376 17.3047 50.6341 16.8582 50.9342 16.4367C51.2342 16.008 51.3842 15.6366 51.3842 15.3222C51.3842 15.0579 51.2449 14.8471 50.9663 14.69C50.6948 14.5256 50.2483 14.4435 49.6268 14.4435C48.648 14.4435 47.8015 14.6185 47.087 14.9686C46.3726 15.3186 45.7511 15.8402 45.2224 16.5331C44.7009 17.2261 44.2508 18.0941 43.8722 19.1372C43.5007 20.1731 43.1649 21.3804 42.8649 22.7592ZM48.5444 27.4851C48.4944 27.5137 48.448 27.528 48.4051 27.528C48.3337 27.528 48.2801 27.4994 48.2444 27.4422C48.2087 27.3779 48.1908 27.2993 48.1908 27.2065C48.1908 27.1065 48.2158 26.9993 48.2658 26.885C48.3158 26.7707 48.4087 26.6742 48.5444 26.5956L52.5094 24.2595C53.0024 23.9737 53.5275 23.7273 54.0847 23.5201C54.642 23.3129 55.2063 23.145 55.7779 23.0164C56.3565 22.8807 56.9281 22.7843 57.4925 22.7271C58.0568 22.6628 58.5891 22.6307 59.0892 22.6307C59.3749 22.6307 59.6428 22.6521 59.8929 22.695C60.1429 22.7307 60.3573 22.7878 60.5359 22.8664C60.7216 22.9379 60.8645 23.0272 60.9645 23.1343C61.0717 23.2415 61.1253 23.3629 61.1253 23.4987C61.1253 23.5987 61.0895 23.6701 61.0181 23.713C60.9466 23.7559 60.8609 23.788 60.7609 23.8094C60.668 23.8237 60.568 23.8344 60.4608 23.8416C60.3608 23.8487 60.2822 23.8666 60.2251 23.8952C60.1822 24.0309 60.1144 24.2417 60.0215 24.5274C59.9286 24.806 59.8357 25.0954 59.7429 25.3954C59.65 25.6883 59.5643 25.9527 59.4857 26.1884C59.4142 26.417 59.3749 26.5492 59.3678 26.5849C59.2749 26.885 59.1463 27.2672 58.982 27.7316C58.8248 28.1888 58.6498 28.8032 58.4569 29.5747C58.4641 29.5747 58.5426 29.5355 58.6927 29.4569C58.8498 29.3711 59.0499 29.2604 59.2928 29.1247C59.5428 28.9889 59.825 28.8318 60.1394 28.6532C60.4537 28.4746 60.7788 28.2924 61.1145 28.1066L63.6757 26.5956C63.7757 26.5385 63.8615 26.5099 63.9329 26.5099C64.0115 26.5099 64.0722 26.5385 64.1151 26.5956C64.1579 26.6457 64.1794 26.71 64.1794 26.7885C64.1794 26.8886 64.1401 27.0064 64.0615 27.1422C63.9829 27.2708 63.8543 27.3851 63.6757 27.4851L57.9747 30.8285C57.8318 30.9143 57.6996 30.975 57.5782 31.0107C57.4567 31.0464 57.346 31.0643 57.246 31.0643C57.1031 31.0643 56.9817 31.0321 56.8816 30.9679C56.7816 30.9036 56.6995 30.8143 56.6352 30.6999C56.5709 30.5856 56.5209 30.457 56.4851 30.3142C56.4566 30.1641 56.4423 30.007 56.4423 29.8427C56.4423 29.664 56.4601 29.4854 56.4959 29.3068C56.5316 29.1282 56.578 28.9568 56.6352 28.7925C56.428 29.1997 56.1851 29.5533 55.9065 29.8534C55.635 30.1534 55.3421 30.407 55.0277 30.6142C54.7205 30.8143 54.4026 30.9643 54.074 31.0643C53.7454 31.1643 53.4239 31.2143 53.1095 31.2143C52.7952 31.2143 52.4987 31.1643 52.2201 31.0643C51.9415 30.9643 51.695 30.8178 51.4807 30.6249C51.2735 30.4249 51.1092 30.1784 50.9877 29.8855C50.8663 29.5926 50.8056 29.2533 50.8056 28.8675C50.8056 28.6389 50.827 28.3852 50.8699 28.1066C50.9199 27.828 50.9842 27.5458 51.0627 27.26C51.1413 26.9743 51.2306 26.6957 51.3307 26.4242C51.4307 26.1456 51.5343 25.8919 51.6414 25.6633L48.5444 27.4851ZM58.2855 23.5415C57.7139 23.5415 57.1674 23.638 56.6459 23.8309C56.1244 24.0238 55.6386 24.2774 55.1885 24.5917C54.7455 24.9061 54.3419 25.2668 53.9776 25.6741C53.6203 26.0741 53.3131 26.4885 53.056 26.9171C52.8059 27.3386 52.6095 27.7566 52.4666 28.1709C52.3308 28.5853 52.263 28.9568 52.263 29.2854C52.263 29.6498 52.3415 29.9462 52.4987 30.1749C52.663 30.3963 52.9274 30.5071 53.2917 30.5071C53.506 30.5071 53.7382 30.4428 53.9883 30.3142C54.2455 30.1784 54.5026 30.0034 54.7598 29.7891C55.0242 29.5676 55.2814 29.3211 55.5314 29.0497C55.7886 28.771 56.0243 28.4924 56.2387 28.2138C56.453 27.928 56.6387 27.653 56.7959 27.3886C56.9602 27.1172 57.0781 26.8814 57.1495 26.6814L58.2855 23.5415ZM66.269 28.3852C66.269 28.1209 66.3476 27.803 66.5048 27.4315C66.6691 27.06 66.8798 26.6814 67.137 26.2956C67.4014 25.9098 67.6978 25.5419 68.0265 25.1918C68.3551 24.8346 68.6837 24.5453 69.0124 24.3238L63.6757 27.4851C63.6471 27.4994 63.6221 27.5101 63.6007 27.5172C63.5721 27.5172 63.5471 27.5172 63.5257 27.5172C63.4471 27.5172 63.3864 27.4887 63.3435 27.4315C63.3006 27.3744 63.2792 27.3029 63.2792 27.2172C63.2792 27.1172 63.3114 27.01 63.3757 26.8957C63.4399 26.7742 63.54 26.6742 63.6757 26.5956L66.6227 24.806C67.0227 24.5631 67.4764 24.306 67.9836 24.0345C68.4908 23.7559 69.0159 23.5022 69.5589 23.2736C70.109 23.045 70.6627 22.8557 71.2199 22.7057C71.7771 22.5485 72.3058 22.4699 72.8059 22.4699C73.2703 22.4699 73.6811 22.5414 74.0383 22.6842L76.8352 17.0368C76.9066 16.8868 76.9816 16.726 77.0602 16.5546C77.146 16.376 77.2531 16.2117 77.3817 16.0616C77.5175 15.9116 77.6853 15.7866 77.8854 15.6866C78.0926 15.5794 78.3569 15.5258 78.6784 15.5258C78.7784 15.5258 78.8391 15.5615 78.8605 15.633C78.8891 15.6973 78.9034 15.783 78.9034 15.8902C78.8891 15.9902 78.8641 16.1045 78.8284 16.2331C78.7927 16.3545 78.7534 16.476 78.7105 16.5974C78.6748 16.7189 78.6391 16.8296 78.6034 16.9296C78.5676 17.0297 78.5391 17.1047 78.5176 17.1547L75.3242 24.0988C75.167 24.5631 74.9706 25.0454 74.7348 25.5455C74.5062 26.0384 74.2812 26.5206 74.0597 26.9921C73.8454 27.4565 73.6596 27.8923 73.5025 28.2995C73.3524 28.7067 73.2774 29.0532 73.2774 29.339C73.2774 29.439 73.2881 29.5355 73.3096 29.6283C73.3381 29.7212 73.3881 29.7676 73.4596 29.7676C73.5525 29.7676 73.6918 29.7319 73.8775 29.6605C74.0704 29.589 74.2883 29.489 74.5312 29.3604C74.7741 29.2318 75.0349 29.0818 75.3135 28.9103C75.5993 28.7317 75.8814 28.5424 76.1601 28.3424L78.9463 26.5956C79.0034 26.5671 79.0463 26.5528 79.0749 26.5528C79.132 26.5528 79.1749 26.5814 79.2035 26.6385C79.2392 26.6957 79.257 26.7635 79.257 26.8421C79.257 26.9636 79.2285 27.085 79.1713 27.2065C79.1213 27.3208 79.0463 27.4136 78.9463 27.4851C78.5391 27.7566 78.1176 28.0388 77.6818 28.3317C77.2531 28.6174 76.8209 28.9032 76.3851 29.189C75.9493 29.4676 75.5207 29.7355 75.0992 29.9927C74.6848 30.2499 74.2847 30.4856 73.899 30.6999C73.3489 31.0071 72.8559 31.1607 72.4201 31.1607C72.1344 31.1607 71.9415 31.0822 71.8414 30.925C71.7414 30.7678 71.6914 30.5642 71.6914 30.3142C71.6914 30.1641 71.7021 30.0105 71.7236 29.8534C71.7521 29.6891 71.7914 29.514 71.8414 29.3283C71.6486 29.6069 71.4271 29.8569 71.177 30.0784C70.927 30.2999 70.6591 30.4892 70.3733 30.6464C70.0947 30.8035 69.8018 30.9214 69.4946 31C69.1945 31.0857 68.9016 31.1286 68.6159 31.1286C68.3015 31.1286 68.0015 31.0786 67.7157 30.9786C67.4299 30.8714 67.1799 30.7071 66.9656 30.4856C66.7513 30.257 66.5798 29.9712 66.4512 29.6283C66.3297 29.2854 66.269 28.871 66.269 28.3852ZM73.256 24.656C73.2846 24.5774 73.3203 24.481 73.3631 24.3667C73.4132 24.2524 73.4596 24.1416 73.5025 24.0345C73.5525 23.9273 73.5918 23.8309 73.6203 23.7451C73.6561 23.6523 73.6739 23.588 73.6739 23.5522C73.6739 23.5094 73.5918 23.4772 73.4274 23.4558C73.2631 23.4344 73.0452 23.4237 72.7738 23.4237C72.4165 23.4237 72.0522 23.5201 71.6807 23.713C71.3164 23.8987 70.9591 24.1452 70.6091 24.4524C70.2662 24.7596 69.9411 25.1132 69.6339 25.5133C69.3339 25.9062 69.0695 26.3135 68.8409 26.735C68.6194 27.1493 68.4408 27.5601 68.3051 27.9673C68.1765 28.3745 68.1122 28.7425 68.1122 29.0711C68.1122 29.514 68.1872 29.8319 68.3372 30.0248C68.4873 30.2106 68.6837 30.3034 68.9266 30.3034C69.2553 30.3034 69.6089 30.1641 69.9875 29.8855C70.3733 29.6069 70.7591 29.2211 71.1449 28.7282C71.5307 28.2281 71.9057 27.6315 72.2701 26.9386C72.6344 26.2456 72.9631 25.4847 73.256 24.656ZM91.002 27.4851C89.8947 28.1209 88.9552 28.6746 88.1836 29.1461C87.4121 29.6105 86.7548 29.9962 86.2119 30.3034C85.6689 30.6035 85.2081 30.8285 84.8295 30.9786C84.458 31.1215 84.1186 31.1929 83.8114 31.1929C83.5114 31.1929 83.2542 31.1572 83.0399 31.0857C82.8327 31.0143 82.6612 30.9178 82.5255 30.7964C82.3897 30.6749 82.2897 30.5285 82.2254 30.357C82.1683 30.1856 82.1397 29.9998 82.1397 29.7998C82.1397 29.6498 82.1719 29.4962 82.2361 29.339C82.3004 29.1818 82.379 29.0211 82.4719 28.8568C82.5719 28.6924 82.6755 28.521 82.7827 28.3424C82.8898 28.1566 82.9899 27.9602 83.0827 27.753L84.7116 24.1095L78.957 27.4851C78.8641 27.5208 78.7998 27.5387 78.7641 27.5387C78.6784 27.5387 78.6034 27.5101 78.5391 27.4529C78.4676 27.3958 78.4319 27.3208 78.4319 27.2279C78.4319 27.1422 78.4712 27.0457 78.5498 26.9386C78.6212 26.8314 78.757 26.7171 78.957 26.5956L81.7325 24.9775C82.0968 24.7632 82.4648 24.5489 82.8363 24.3345C83.2077 24.1202 83.5542 23.9202 83.8757 23.7344C84.2044 23.5487 84.4973 23.3844 84.7545 23.2415C85.0188 23.0914 85.2224 22.9771 85.3653 22.8986H86.7477C86.7762 22.92 86.8012 22.9557 86.8227 23.0057C86.8441 23.0557 86.8548 23.1307 86.8548 23.2308C86.8548 23.4165 86.8012 23.6808 86.6941 24.0238C86.5869 24.3595 86.4512 24.7382 86.2869 25.1597C86.1297 25.5812 85.9511 26.0241 85.7511 26.4885C85.5582 26.9457 85.376 27.3815 85.2045 27.7959C85.0331 28.2031 84.8545 28.6103 84.6687 29.0175C84.483 29.4247 84.2972 29.8427 84.1115 30.2713C84.3044 30.2713 84.608 30.1749 85.0224 29.982C85.4439 29.7891 85.9511 29.5283 86.5441 29.1997C87.1442 28.8639 87.8193 28.4746 88.5694 28.0316C89.3267 27.5815 90.1376 27.1029 91.002 26.5956C91.0306 26.5671 91.0842 26.5528 91.1627 26.5528C91.2485 26.5528 91.3271 26.5814 91.3985 26.6385C91.4771 26.6957 91.5164 26.7742 91.5164 26.8743C91.5164 26.96 91.4771 27.0564 91.3985 27.1636C91.3271 27.2636 91.1949 27.3708 91.002 27.4851ZM88.0443 19.1479C88.0872 19.1479 88.1658 19.1515 88.2801 19.1586C88.4015 19.1586 88.5373 19.1658 88.6873 19.18C88.8373 19.1943 88.9945 19.2193 89.1588 19.2551C89.3231 19.2836 89.4731 19.3301 89.6089 19.3944C89.7446 19.4515 89.8589 19.5265 89.9518 19.6194C90.0447 19.7123 90.0947 19.8266 90.1018 19.9623L88.548 21.1411L87.8407 21.4733C87.7121 21.4733 87.6121 21.4376 87.5407 21.3661C87.4692 21.2947 87.4156 21.2197 87.3799 21.1411L88.0443 19.1479ZM114.846 26.5956C114.938 26.5599 115.013 26.5421 115.071 26.5421C115.171 26.5421 115.26 26.5671 115.338 26.6171C115.424 26.6671 115.467 26.7385 115.467 26.8314C115.467 26.9314 115.36 27.0707 115.146 27.2493C114.931 27.4208 114.67 27.6065 114.363 27.8066C114.056 28.0066 113.738 28.2066 113.41 28.4067C113.081 28.5996 112.799 28.7675 112.563 28.9103C112.249 29.1175 111.895 29.3676 111.502 29.6605C111.109 29.9462 110.702 30.2249 110.28 30.4963C109.866 30.7678 109.455 30.9964 109.048 31.1822C108.648 31.3751 108.284 31.4715 107.955 31.4715C107.662 31.4715 107.412 31.3644 107.205 31.15C107.005 30.9428 106.905 30.6071 106.905 30.1427C106.905 29.8641 106.948 29.539 107.033 29.1675C107.119 28.7889 107.262 28.3531 107.462 27.8602C107.698 27.2743 107.901 26.76 108.073 26.317C108.251 25.8741 108.398 25.4954 108.512 25.1811C108.627 24.8668 108.712 24.6096 108.769 24.4095C108.827 24.2024 108.855 24.0416 108.855 23.9273C108.855 23.6844 108.766 23.563 108.587 23.563C108.409 23.563 108.159 23.6808 107.837 23.9166C107.516 24.1452 107.155 24.4488 106.755 24.8275C106.362 25.2061 105.948 25.6419 105.512 26.1348C105.083 26.6206 104.672 27.1243 104.279 27.6458C103.886 28.1674 103.533 28.6817 103.218 29.189C102.904 29.6962 102.665 30.157 102.5 30.5714C102.472 30.6428 102.418 30.7142 102.34 30.7857C102.261 30.85 102.168 30.9107 102.061 30.9679C101.961 31.0179 101.85 31.0572 101.729 31.0857C101.607 31.1215 101.49 31.1393 101.375 31.1393C101.182 31.1393 101.014 31.0857 100.872 30.9786C100.729 30.8643 100.657 30.6714 100.657 30.3999C100.657 30.1713 100.7 29.9105 100.786 29.6176C100.879 29.3176 100.968 29.0354 101.054 28.771C101.175 28.3424 101.304 27.9102 101.44 27.4744C101.582 27.0314 101.715 26.6278 101.836 26.2634C101.979 25.8419 102.122 25.4312 102.265 25.0311C102.329 24.9239 102.397 24.8096 102.468 24.6882C102.547 24.5596 102.615 24.431 102.672 24.3024C102.729 24.1738 102.776 24.0488 102.811 23.9273C102.854 23.7987 102.876 23.6844 102.876 23.5844C102.876 23.4058 102.793 23.3165 102.629 23.3165C102.293 23.3165 101.908 23.4379 101.472 23.6808C101.043 23.9166 100.597 24.2274 100.132 24.6131C99.675 24.9918 99.2177 25.424 98.7605 25.9098C98.3033 26.3885 97.8818 26.8743 97.496 27.3672C97.1102 27.853 96.778 28.321 96.4994 28.771C96.2208 29.214 96.0279 29.5926 95.9207 29.9069C95.8564 30.0998 95.7957 30.2677 95.7385 30.4106C95.6885 30.5535 95.6314 30.6714 95.5671 30.7642C95.5028 30.8571 95.4242 30.9286 95.3313 30.9786C95.2385 31.0214 95.117 31.0429 94.967 31.0429C94.6669 31.0429 94.4633 30.9607 94.3562 30.7964C94.2561 30.6249 94.2061 30.407 94.2061 30.1427C94.2061 30.0213 94.2419 29.8355 94.3133 29.5855C94.3847 29.3283 94.4776 29.0354 94.5919 28.7067C94.7134 28.3781 94.8455 28.0245 94.9884 27.6458C95.1313 27.26 95.2742 26.8778 95.4171 26.4992C95.5671 26.1134 95.71 25.7419 95.8457 25.3847C95.9814 25.0275 96.0958 24.7096 96.1886 24.431L91.002 27.4851C90.9091 27.5351 90.8198 27.5601 90.7341 27.5601C90.6484 27.5601 90.5769 27.5351 90.5198 27.4851C90.4555 27.4351 90.4233 27.3672 90.4233 27.2815C90.4233 27.1886 90.4698 27.0814 90.5626 26.96C90.6484 26.8385 90.7948 26.7171 91.002 26.5956L94.8277 24.3452C94.9205 24.2738 95.0277 24.2024 95.1492 24.1309C95.2778 24.0595 95.4099 23.9952 95.5457 23.938C95.6885 23.8809 95.8314 23.8344 95.9743 23.7987C96.1172 23.763 96.2601 23.7451 96.403 23.7451C96.5601 23.7451 96.6994 23.7844 96.8209 23.863C96.9495 23.9345 97.0566 24.0273 97.1424 24.1416C97.2281 24.2488 97.2924 24.3702 97.3353 24.506C97.3853 24.6417 97.4103 24.7703 97.4103 24.8918C97.4103 25.0204 97.3996 25.149 97.3781 25.2776C97.3638 25.399 97.3281 25.5526 97.271 25.7383C97.221 25.917 97.1495 26.1384 97.0566 26.4028C96.9638 26.6671 96.8423 27.0064 96.6923 27.4208C96.9423 27.085 97.2031 26.7385 97.4746 26.3813C97.7532 26.017 98.0461 25.6633 98.3533 25.3204C98.6605 24.9704 98.9856 24.6382 99.3285 24.3238C99.6785 24.0095 100.046 23.7344 100.432 23.4987C100.818 23.2629 101.225 23.0772 101.654 22.9414C102.09 22.7985 102.547 22.7271 103.026 22.7271C103.168 22.7271 103.308 22.7628 103.443 22.8343C103.586 22.8986 103.711 23.0021 103.819 23.145C103.933 23.2879 104.022 23.4701 104.086 23.6916C104.158 23.913 104.194 24.1738 104.194 24.4738C104.194 24.8239 104.14 25.2275 104.033 25.6848C103.933 26.1348 103.758 26.6492 103.508 27.2279C104.015 26.4849 104.526 25.8634 105.04 25.3633C105.562 24.856 106.065 24.4381 106.551 24.1095C107.044 23.7809 107.512 23.5308 107.955 23.3594C108.398 23.1808 108.798 23.0486 109.155 22.9629C109.355 22.9629 109.566 22.9914 109.787 23.0486C110.009 23.1057 110.209 23.1915 110.388 23.3058C110.566 23.4129 110.713 23.5522 110.827 23.7237C110.948 23.8952 111.009 24.0952 111.009 24.3238C111.009 24.3881 111.006 24.4524 110.998 24.5167C110.991 24.581 110.977 24.6489 110.956 24.7203C110.87 25.0204 110.752 25.3454 110.602 25.6955C110.452 26.0384 110.291 26.3885 110.12 26.7457C109.948 27.1029 109.77 27.4565 109.584 27.8066C109.405 28.1495 109.245 28.4746 109.102 28.7817C108.959 29.0818 108.841 29.3533 108.748 29.5962C108.655 29.8319 108.609 30.0177 108.609 30.1534C108.609 30.3249 108.673 30.4106 108.802 30.4106C108.909 30.4106 109.073 30.3427 109.295 30.207C109.523 30.0713 109.784 29.9034 110.077 29.7033C110.37 29.4962 110.688 29.2711 111.031 29.0282C111.373 28.7853 111.716 28.5567 112.059 28.3424L114.846 26.5956ZM126.901 27.4851C125.794 28.1209 124.854 28.6746 124.083 29.1461C123.311 29.6105 122.654 29.9962 122.111 30.3034C121.568 30.6035 121.107 30.8285 120.729 30.9786C120.357 31.1215 120.018 31.1929 119.711 31.1929C119.411 31.1929 119.153 31.1572 118.939 31.0857C118.732 31.0143 118.56 30.9178 118.425 30.7964C118.289 30.6749 118.189 30.5285 118.125 30.357C118.068 30.1856 118.039 29.9998 118.039 29.7998C118.039 29.6498 118.071 29.4962 118.135 29.339C118.2 29.1818 118.278 29.0211 118.371 28.8568C118.471 28.6924 118.575 28.521 118.682 28.3424C118.789 28.1566 118.889 27.9602 118.982 27.753L120.611 24.1095L114.856 27.4851C114.763 27.5208 114.699 27.5387 114.663 27.5387C114.578 27.5387 114.503 27.5101 114.438 27.4529C114.367 27.3958 114.331 27.3208 114.331 27.2279C114.331 27.1422 114.37 27.0457 114.449 26.9386C114.52 26.8314 114.656 26.7171 114.856 26.5956L117.632 24.9775C117.996 24.7632 118.364 24.5489 118.736 24.3345C119.107 24.1202 119.453 23.9202 119.775 23.7344C120.104 23.5487 120.397 23.3844 120.654 23.2415C120.918 23.0914 121.122 22.9771 121.265 22.8986H122.647C122.675 22.92 122.7 22.9557 122.722 23.0057C122.743 23.0557 122.754 23.1307 122.754 23.2308C122.754 23.4165 122.7 23.6808 122.593 24.0238C122.486 24.3595 122.35 24.7382 122.186 25.1597C122.029 25.5812 121.85 26.0241 121.65 26.4885C121.457 26.9457 121.275 27.3815 121.104 27.7959C120.932 28.2031 120.754 28.6103 120.568 29.0175C120.382 29.4247 120.196 29.8427 120.011 30.2713C120.204 30.2713 120.507 30.1749 120.922 29.982C121.343 29.7891 121.85 29.5283 122.443 29.1997C123.043 28.8639 123.719 28.4746 124.469 28.0316C125.226 27.5815 126.037 27.1029 126.901 26.5956C126.93 26.5671 126.983 26.5528 127.062 26.5528C127.148 26.5528 127.226 26.5814 127.298 26.6385C127.376 26.6957 127.416 26.7742 127.416 26.8743C127.416 26.96 127.376 27.0564 127.298 27.1636C127.226 27.2636 127.094 27.3708 126.901 27.4851ZM123.944 19.1479C123.986 19.1479 124.065 19.1515 124.179 19.1586C124.301 19.1586 124.437 19.1658 124.587 19.18C124.737 19.1943 124.894 19.2193 125.058 19.2551C125.222 19.2836 125.372 19.3301 125.508 19.3944C125.644 19.4515 125.758 19.5265 125.851 19.6194C125.944 19.7123 125.994 19.8266 126.001 19.9623L124.447 21.1411L123.74 21.4733C123.611 21.4733 123.511 21.4376 123.44 21.3661C123.368 21.2947 123.315 21.2197 123.279 21.1411L123.944 19.1479ZM138.914 23.2736C138.914 23.4522 138.882 23.663 138.818 23.9059C138.753 24.1416 138.671 24.3953 138.571 24.6667C138.471 24.9311 138.364 25.2025 138.25 25.4812C138.135 25.7598 138.028 26.0313 137.928 26.2956C137.828 26.5528 137.746 26.7957 137.682 27.0243C137.617 27.2529 137.585 27.4458 137.585 27.603C137.585 27.7387 137.614 27.8459 137.671 27.9245C137.735 28.003 137.835 28.0423 137.971 28.0423C138.071 28.0423 138.21 28.0066 138.389 27.9352C138.575 27.8566 138.789 27.753 139.032 27.6244C139.282 27.4887 139.553 27.3351 139.846 27.1636C140.146 26.985 140.461 26.7957 140.789 26.5956C140.861 26.5528 140.932 26.5313 141.004 26.5313C141.082 26.5313 141.15 26.5599 141.207 26.6171C141.272 26.6742 141.304 26.7457 141.304 26.8314C141.304 26.9243 141.265 27.0243 141.186 27.1315C141.107 27.2315 140.975 27.3494 140.789 27.4851C139.861 28.1781 139.011 28.7139 138.239 29.0925C137.475 29.4712 136.864 29.6605 136.407 29.6605C136.035 29.6605 135.742 29.6033 135.528 29.489C135.313 29.3747 135.206 29.1961 135.206 28.9532C135.206 28.7246 135.303 28.4353 135.496 28.0852C135.696 27.7351 136.021 27.3208 136.471 26.8421C136.642 26.5564 136.778 26.2456 136.878 25.9098C136.978 25.5669 137.049 25.2347 137.092 24.9132C137.142 24.5846 137.174 24.2845 137.189 24.013C137.203 23.7344 137.21 23.513 137.21 23.3486C137.21 23.0772 137.164 22.87 137.071 22.7271C136.985 22.5771 136.839 22.5021 136.632 22.5021C136.403 22.5021 136.178 22.6056 135.956 22.8128C135.742 23.0129 135.524 23.2915 135.303 23.6487C135.088 24.0059 134.874 24.4274 134.66 24.9132C134.445 25.399 134.224 25.9241 133.995 26.4885C133.774 27.0529 133.545 27.6423 133.31 28.2567C133.074 28.871 132.827 29.489 132.57 30.1106C132.527 30.232 132.474 30.357 132.409 30.4856C132.345 30.6142 132.27 30.7357 132.184 30.85C132.106 30.9571 132.013 31.0464 131.906 31.1179C131.806 31.1893 131.699 31.225 131.584 31.225C131.313 31.225 131.109 31.1643 130.973 31.0429C130.838 30.9214 130.77 30.7214 130.77 30.4428C130.77 30.3642 130.773 30.282 130.78 30.1963C130.795 30.1106 130.831 30.0105 130.888 29.8962L132.956 25.7491C133.227 25.0489 133.517 24.4703 133.824 24.013C134.138 23.5558 134.42 23.1879 134.67 22.9093C134.085 23.2593 133.499 23.6094 132.913 23.9595C132.327 24.3095 131.763 24.6489 131.22 24.9775C130.677 25.299 130.163 25.6062 129.677 25.8991C129.198 26.1849 128.769 26.4385 128.391 26.6599C128.012 26.8814 127.694 27.0636 127.437 27.2065C127.18 27.3494 127.001 27.4422 126.901 27.4851C126.844 27.5208 126.783 27.5387 126.719 27.5387C126.64 27.5387 126.576 27.5101 126.526 27.4529C126.469 27.3958 126.44 27.3208 126.44 27.2279C126.44 27.1279 126.476 27.0207 126.548 26.9064C126.612 26.785 126.73 26.6742 126.901 26.5742L129.762 24.9025C130.134 24.681 130.509 24.4596 130.888 24.2381C131.266 24.0095 131.62 23.7987 131.949 23.6058C132.284 23.4129 132.581 23.2415 132.838 23.0914C133.095 22.9414 133.292 22.8271 133.427 22.7485C133.77 22.5485 134.103 22.377 134.424 22.2342C134.753 22.0913 135.078 21.9734 135.399 21.8805C135.721 21.7876 136.046 21.7162 136.374 21.6662C136.71 21.6162 137.06 21.5805 137.425 21.559C137.582 21.559 137.746 21.609 137.917 21.7091C138.096 21.8019 138.257 21.9305 138.4 22.0948C138.55 22.252 138.671 22.4342 138.764 22.6414C138.864 22.8414 138.914 23.0522 138.914 23.2736Z" fill="#FBFDFB"/>
<path d="M55.5464 51.6273C55.7851 51.4697 56.0262 51.3098 56.2697 51.1475C56.4797 51.009 56.7065 50.8586 56.95 50.6963C57.1934 50.534 57.4226 50.3765 57.6374 50.2237C57.9621 49.9993 58.2867 49.7487 58.6113 49.4718C58.936 49.1949 59.2343 48.9347 59.5065 48.6912C59.8168 48.4048 60.1199 48.116 60.4159 47.8247L61.1535 46.7578C61.249 46.6432 61.3469 46.5119 61.4471 46.3639C61.5521 46.2111 61.65 46.0655 61.7407 45.9271C61.8457 45.7695 61.9484 45.6072 62.0486 45.4401C61.9818 45.2396 61.9341 45.0176 61.9054 44.7741C61.8768 44.5259 61.8625 44.2585 61.8625 43.9721C61.8625 43.5711 61.8911 43.1414 61.9484 42.6831C62.0057 42.2248 62.0868 41.7593 62.1919 41.2867C62.3017 40.8141 62.433 40.3438 62.5857 39.876C62.7385 39.4033 62.9104 38.9522 63.1013 38.5225C63.2923 38.0881 63.5 37.6871 63.7243 37.3195C63.9487 36.9471 64.1874 36.6249 64.4404 36.3527C64.6935 36.0806 64.956 35.8682 65.2282 35.7154C65.505 35.5579 65.7891 35.4791 66.0803 35.4791C66.4145 35.4791 66.7009 35.5173 66.9396 35.5937C67.1783 35.67 67.3717 35.7798 67.5197 35.9231C67.6677 36.0615 67.7751 36.2286 67.8419 36.4243C67.9135 36.6201 67.9494 36.8397 67.9494 37.0832C67.9494 37.3648 67.9088 37.6704 67.8276 37.9998C67.7465 38.3292 67.6319 38.6753 67.4839 39.0381C67.3407 39.3962 67.1712 39.7662 66.9755 40.1481C66.7797 40.5252 66.5673 40.9048 66.3381 41.2867C66.109 41.6686 65.8679 42.0458 65.6148 42.4181C65.3666 42.7905 65.116 43.1486 64.8629 43.4923C64.6099 43.836 64.3593 44.1607 64.111 44.4662C63.8676 44.7718 63.6384 45.0463 63.4236 45.2897C63.4618 45.6478 63.5286 45.9963 63.6241 46.3352C63.7196 46.6694 63.8485 46.9678 64.0108 47.2304C64.1731 47.4882 64.3712 47.6958 64.6051 47.8534C64.8438 48.0062 65.1231 48.0825 65.443 48.0825C65.6101 48.0825 65.7652 48.0515 65.9085 47.9895C66.0517 47.9226 66.183 47.8367 66.3023 47.7317C66.2784 47.5025 66.2593 47.2805 66.245 47.0657C66.2307 46.8461 66.2235 46.6289 66.2235 46.414C66.2235 46.1085 66.2474 45.8149 66.2952 45.5332C66.3429 45.2468 66.4121 44.9937 66.5028 44.7741C66.5983 44.5545 66.7105 44.3803 66.8394 44.2514C66.9731 44.1177 67.1258 44.0509 67.2977 44.0509C67.4934 44.0509 67.6343 44.1416 67.7202 44.323C67.8109 44.5044 67.8563 44.7359 67.8563 45.0176C67.8563 45.4234 67.7823 45.8626 67.6343 46.3352C67.491 46.8079 67.2571 47.2686 66.9325 47.7173C67.0041 48.0515 67.0853 48.3761 67.176 48.6912C67.2714 49.0063 67.3598 49.2904 67.4409 49.5434C67.5269 49.7917 67.5985 50.0017 67.6558 50.1736C67.7178 50.3407 67.7488 50.4457 67.7488 50.4887C67.7488 50.5555 67.7345 50.6199 67.7059 50.682C67.682 50.7393 67.6486 50.7918 67.6056 50.8396C67.5627 50.8825 67.5149 50.9183 67.4624 50.947C67.4099 50.9756 67.355 50.9899 67.2977 50.9899C67.2547 50.9899 67.1998 50.9708 67.133 50.9326C67.0709 50.8945 66.9993 50.7894 66.9182 50.6176C66.837 50.4409 66.7511 50.1736 66.6604 49.8155C66.5697 49.4527 66.4766 48.949 66.3811 48.3045C66.2283 48.4239 66.066 48.5194 65.8941 48.591C65.727 48.6578 65.5432 48.6912 65.3427 48.6912C65.1565 48.6912 64.9632 48.6578 64.7627 48.591C64.2614 48.4143 63.8461 48.1327 63.5167 47.746C63.1873 47.3593 62.9295 46.901 62.7433 46.3711C62.3232 46.9344 61.9317 47.4906 61.5689 48.0396C61.206 48.5838 60.8886 49.1114 60.6164 49.6222C60.3491 50.133 60.1366 50.6223 59.9791 51.0902C59.8263 51.5533 59.7499 51.9805 59.7499 52.372C59.7499 52.7874 59.8407 53.1454 60.0221 53.4462C60.2083 53.7422 60.4637 53.988 60.7883 54.1838C61.1177 54.3747 61.5044 54.5156 61.9484 54.6063C62.3924 54.697 62.8769 54.7423 63.4021 54.7423C63.932 54.7423 64.4906 54.697 65.0778 54.6063C65.6698 54.5156 66.2641 54.3867 66.8609 54.2196C67.4624 54.0477 68.0568 53.84 68.644 53.5966C69.236 53.3483 69.7993 53.069 70.334 52.7587C70.8687 52.4436 71.3652 52.0999 71.8235 51.7275C72.2818 51.3504 72.678 50.9494 73.0122 50.5245C73.3464 50.0996 73.609 49.6508 73.7999 49.1782C73.9909 48.7056 74.0864 48.2138 74.0864 47.703C74.0864 47.6362 74.0864 47.5741 74.0864 47.5168C74.0864 47.4548 74.0816 47.3903 74.0721 47.3235C73.8477 47.2662 73.6161 47.2041 73.3774 47.1373C73.1387 47.0657 72.9024 47.0012 72.6685 46.9439C72.4346 46.8819 72.2054 46.8317 71.981 46.7936C71.7614 46.7506 71.5585 46.7291 71.3723 46.7291C71.2291 46.7291 71.1098 46.7434 71.0143 46.7721C70.9188 46.8007 70.8353 46.8365 70.7636 46.8795C70.6968 46.9225 70.6348 46.9702 70.5775 47.0227C70.5202 47.0752 70.4581 47.123 70.3913 47.1659C70.3244 47.2089 70.2433 47.2447 70.1478 47.2733C70.0571 47.302 69.9425 47.3163 69.8041 47.3163C69.7086 47.3163 69.6274 47.2996 69.5606 47.2662C69.4938 47.228 69.4365 47.1803 69.3887 47.123C69.3458 47.0657 69.3123 47.0036 69.2885 46.9368C69.2694 46.8699 69.2598 46.8055 69.2598 46.7434C69.2598 46.5334 69.3243 46.3639 69.4532 46.235C69.5821 46.1061 69.7372 46.0058 69.9186 45.9342C70.1048 45.8626 70.2958 45.8149 70.4915 45.791C70.6873 45.7671 70.852 45.7552 70.9856 45.7552C71.2434 45.7552 71.4941 45.7886 71.7376 45.8555C71.981 45.9175 72.2197 45.9963 72.4537 46.0918C72.6924 46.1825 72.9263 46.2851 73.1554 46.3997C73.3846 46.5095 73.6138 46.6121 73.8429 46.7076C74.0768 46.7983 74.3084 46.8771 74.5375 46.9439C74.7715 47.006 75.0102 47.037 75.2536 47.037C75.3873 47.037 75.509 47.0084 75.6188 46.9511C75.7334 46.889 75.8432 46.8222 75.9483 46.7506C76.0533 46.6742 76.1583 46.6074 76.2633 46.5501C76.3684 46.488 76.4829 46.457 76.6071 46.457C76.736 46.457 76.8243 46.4832 76.872 46.5358C76.9198 46.5883 76.9436 46.6551 76.9436 46.7363C76.9436 46.8508 76.8816 46.9583 76.7575 47.0585C76.6333 47.154 76.4829 47.2375 76.3063 47.3092C76.1344 47.3808 75.9554 47.4381 75.7692 47.481C75.583 47.5192 75.4255 47.5383 75.2966 47.5383C75.1677 47.5383 75.0269 47.5264 74.8741 47.5025C74.7261 47.4786 74.5686 47.4476 74.4015 47.4094V47.481C74.4206 47.6147 74.4349 47.746 74.4444 47.8749C74.454 48.0038 74.4588 48.1303 74.4588 48.2544C74.4588 48.8798 74.3561 49.4742 74.1508 50.0375C73.9455 50.5961 73.6591 51.1212 73.2915 51.6129C72.9287 52.1047 72.4966 52.5606 71.9954 52.9807C71.4989 53.3961 70.957 53.7756 70.3698 54.1193C69.7874 54.463 69.1715 54.7662 68.5222 55.0288C67.873 55.2913 67.2165 55.5109 66.5529 55.6876C65.8941 55.869 65.2377 56.0051 64.5837 56.0958C63.9296 56.1912 63.3042 56.239 62.7075 56.239C62.0868 56.239 61.5116 56.1865 60.9816 56.0814C60.4517 55.9812 59.991 55.826 59.5996 55.616C59.2129 55.4059 58.9073 55.141 58.6829 54.8211C58.4633 54.5012 58.3535 54.1241 58.3535 53.6897C58.3535 53.4319 58.3965 53.1215 58.4824 52.7587C58.5731 52.3959 58.6877 52.014 58.8262 51.6129C58.9646 51.2119 59.1198 50.8085 59.2916 50.4027C59.4635 49.9922 59.633 49.615 59.8001 49.2713C59.7857 49.3047 59.7213 49.3691 59.6067 49.4646C59.4921 49.5553 59.3442 49.6675 59.1627 49.8012C58.9861 49.9349 58.7856 50.0805 58.5612 50.238C58.3368 50.3956 58.1053 50.5555 57.8666 50.7178C57.6279 50.8801 57.3916 51.0401 57.1576 51.1976C56.9237 51.3551 56.7089 51.496 56.5131 51.6201C56.3222 51.7442 56.1551 51.8493 56.0119 51.9352C55.8734 52.0211 55.7803 52.0736 55.7326 52.0927C55.6801 52.1262 55.6323 52.1429 55.5894 52.1429C55.5273 52.1429 55.482 52.119 55.4533 52.0713C55.4199 52.0235 55.4032 51.9686 55.4032 51.9066C55.4032 51.7872 55.4509 51.6941 55.5464 51.6273ZM66.1519 35.9947C65.875 35.9947 65.6196 36.0806 65.3857 36.2525C65.1565 36.4243 64.9465 36.6559 64.7555 36.9471C64.5646 37.2383 64.3927 37.5773 64.2399 37.964C64.0872 38.3459 63.9511 38.7541 63.8317 39.1885C63.7124 39.6182 63.6098 40.0574 63.5238 40.5061C63.4427 40.9549 63.3734 41.3893 63.3162 41.8095C63.2636 42.2248 63.2231 42.6139 63.1944 42.9767C63.1705 43.3395 63.1586 43.6475 63.1586 43.9005V44.1225C63.4212 43.8456 63.6957 43.5138 63.9821 43.1271C64.2686 42.7404 64.5479 42.3274 64.82 41.8882C65.0969 41.449 65.3571 40.9955 65.6005 40.5276C65.8488 40.0598 66.066 39.6039 66.2522 39.1599C66.4384 38.7159 66.5864 38.2982 66.6962 37.9067C66.806 37.5152 66.8609 37.1739 66.8609 36.8827C66.8609 36.6058 66.806 36.3885 66.6962 36.231C66.5864 36.0735 66.405 35.9947 66.1519 35.9947ZM67.1974 46.2063C67.2834 45.9772 67.3478 45.7552 67.3908 45.5404C67.4338 45.3208 67.4552 45.1298 67.4552 44.9675C67.4552 44.8481 67.4385 44.7503 67.4051 44.6739C67.3765 44.5975 67.3263 44.5593 67.2547 44.5593C67.1783 44.5593 67.1067 44.6023 67.0399 44.6882C66.9731 44.7741 66.9158 44.8863 66.868 45.0248C66.8203 45.1584 66.7821 45.3136 66.7535 45.4902C66.7248 45.6621 66.7105 45.834 66.7105 46.0058C66.7105 46.1729 66.7177 46.3472 66.732 46.5286C66.7463 46.71 66.7726 46.8938 66.8107 47.08C66.9015 46.9272 66.9755 46.7768 67.0327 46.6289C67.09 46.4761 67.1449 46.3352 67.1974 46.2063Z" fill="#FBFDFB"/>
<path d="M112.929 54.6874C112.971 54.666 113.014 54.6553 113.057 54.6553C113.143 54.6553 113.221 54.6982 113.293 54.7839C113.364 54.8696 113.4 54.9625 113.4 55.0625C113.4 55.1697 113.364 55.2697 113.293 55.3626C113.221 55.4554 113.111 55.5555 112.961 55.6626C112.811 55.7626 112.618 55.8805 112.382 56.0162C112.146 56.152 111.864 56.3163 111.535 56.5092C111.335 56.6306 111.064 56.8057 110.721 57.0343C110.385 57.2558 110.007 57.5022 109.585 57.7737C109.171 58.038 108.728 58.3131 108.256 58.5989C107.785 58.8775 107.313 59.1311 106.842 59.3597C106.37 59.5955 105.913 59.7848 105.47 59.9277C105.027 60.0777 104.627 60.1527 104.27 60.1527C104.048 60.1527 103.845 60.1206 103.659 60.0563C103.48 59.992 103.327 59.8848 103.198 59.7348C103.07 59.5919 102.97 59.4026 102.898 59.1668C102.827 58.9382 102.791 58.656 102.791 58.3202C102.791 57.8702 102.866 57.3629 103.016 56.7985C103.166 56.227 103.355 55.6412 103.584 55.0411C103.82 54.4338 104.081 53.8266 104.366 53.2193C104.652 52.6049 104.934 52.0298 105.213 51.494C105.492 50.9582 105.749 50.476 105.984 50.0473C106.22 49.6187 106.402 49.2829 106.531 49.04C106.074 49.0329 105.595 49.015 105.095 48.9864C104.595 48.9507 104.12 48.9007 103.67 48.8364C103.227 48.7721 102.83 48.6935 102.48 48.6006C102.137 48.5078 101.887 48.397 101.73 48.2684C101.059 49.0829 100.305 49.9223 99.469 50.7867C98.6403 51.644 97.7509 52.4799 96.8007 53.2943C95.8577 54.1016 94.8646 54.8696 93.8216 55.5983C92.7786 56.3199 91.7105 56.9521 90.6175 57.4951C89.5315 58.0309 88.4278 58.4595 87.3062 58.781C86.1917 59.0954 85.0879 59.2525 83.9948 59.2525C83.5733 59.2525 83.1697 59.2383 82.7839 59.2097C82.3981 59.1811 82.0266 59.1311 81.6694 59.0596C81.3122 58.9882 80.9693 58.8882 80.6407 58.7596C80.312 58.631 79.9941 58.4667 79.6869 58.2667C79.5655 58.1881 79.4405 58.1059 79.3119 58.0202C79.1833 57.9344 79.069 57.8487 78.969 57.763C78.8618 57.6773 78.7761 57.5951 78.7118 57.5165C78.6403 57.4308 78.601 57.3522 78.5939 57.2808H78.8189C78.8261 57.2808 78.9118 57.3093 79.0761 57.3665C79.2333 57.4236 79.444 57.4951 79.7084 57.5808C79.9727 57.6665 80.2763 57.763 80.6192 57.8702C80.9622 57.9702 81.3229 58.063 81.7016 58.1488C82.0874 58.2345 82.4767 58.3059 82.8696 58.3631C83.2697 58.4202 83.6519 58.4488 84.0163 58.4488C84.9307 58.4488 85.8202 58.2881 86.6846 57.9666C87.5562 57.6451 88.4063 57.2093 89.2351 56.6592C90.0709 56.102 90.8889 55.4554 91.6891 54.7196C92.4964 53.9766 93.2929 53.1907 94.0788 52.362C94.8646 51.5333 95.6398 50.6832 96.4042 49.8116C97.1758 48.9328 97.9438 48.0791 98.7082 47.2504C99.4726 46.4217 100.237 45.6394 101.001 44.9036C101.766 44.1606 102.534 43.514 103.305 42.9639C104.084 42.4067 104.87 41.9673 105.663 41.6458C106.456 41.3243 107.26 41.1636 108.074 41.1636C108.653 41.1636 109.131 41.2422 109.51 41.3994C109.889 41.5494 110.185 41.753 110.4 42.0102C110.621 42.2674 110.775 42.5674 110.86 42.9103C110.953 43.2461 111 43.5998 111 43.9712C111 44.3785 110.96 44.7964 110.882 45.225C110.803 45.6537 110.714 46.0609 110.614 46.4467C110.514 46.8325 110.417 47.1825 110.325 47.4969C110.232 47.8041 110.171 48.0434 110.142 48.2149L110.132 48.3006C111.36 48.0863 112.436 47.8005 113.357 47.4433C114.286 47.0789 115.061 46.6717 115.683 46.2216C116.304 45.7716 116.769 45.2929 117.076 44.7857C117.39 44.2713 117.547 43.7569 117.547 43.2425C117.547 42.6496 117.336 42.0745 116.915 41.5172C116.493 40.9529 115.854 40.4563 114.997 40.0277C114.147 39.5919 113.075 39.2454 111.782 38.9882C110.496 38.7239 108.985 38.5917 107.249 38.5917C106.499 38.5917 105.652 38.6346 104.709 38.7203C103.773 38.7989 102.77 38.9061 101.698 39.0418C100.634 39.1775 99.5155 39.3311 98.3438 39.5026C97.1793 39.6741 95.9898 39.8527 94.7753 40.0384C93.5608 40.217 92.3392 40.392 91.1104 40.5635C89.8816 40.735 88.6707 40.8886 87.4776 41.0243C86.2917 41.16 85.1379 41.2708 84.0163 41.3565C82.8947 41.4351 81.8337 41.4744 80.8336 41.4744C80.0334 41.4744 79.2976 41.4387 78.626 41.3672C77.9473 41.2886 77.3508 41.1636 76.8364 40.9921C76.7578 40.9707 76.6114 40.8957 76.3971 40.7671C76.1827 40.6314 75.9363 40.4671 75.6576 40.2742C75.379 40.0813 75.0897 39.8741 74.7896 39.6526C74.4896 39.4312 74.2145 39.2204 73.9645 39.0204C73.7144 38.8203 73.5073 38.6453 73.343 38.4953C73.1786 38.3381 73.0965 38.2345 73.0965 38.1845C73.0965 38.1631 73.1143 38.1524 73.1501 38.1524C73.2001 38.1524 73.2858 38.1774 73.4072 38.2274C73.5216 38.2702 73.6859 38.3452 73.9002 38.4524C74.979 39.0025 76.2399 39.3919 77.683 39.6205C79.119 39.8419 80.7657 39.9527 82.6232 39.9527C83.6091 39.9527 84.7235 39.9027 85.9666 39.8027C87.2097 39.7026 88.5421 39.5812 89.9638 39.4383C91.3854 39.2883 92.8821 39.1275 94.4539 38.9561C96.0256 38.7846 97.633 38.6274 99.2761 38.4846C100.926 38.3345 102.595 38.2095 104.281 38.1095C105.974 38.0095 107.653 37.9595 109.317 37.9595C111.003 37.9595 112.453 38.0988 113.668 38.3774C114.882 38.656 115.883 39.0311 116.669 39.5026C117.454 39.967 118.033 40.5028 118.405 41.11C118.776 41.7101 118.962 42.3352 118.962 42.9854C118.962 43.464 118.865 43.9427 118.672 44.4213C118.487 44.9 118.208 45.3608 117.837 45.8037C117.472 46.2395 117.022 46.6539 116.486 47.0468C115.951 47.4397 115.336 47.7862 114.643 48.0863C113.957 48.3792 113.196 48.6221 112.361 48.815C111.532 49.0079 110.635 49.1293 109.671 49.1793C109.607 49.3151 109.478 49.5365 109.285 49.8437C109.099 50.1509 108.874 50.5153 108.61 50.9368C108.346 51.3511 108.053 51.8048 107.731 52.2977C107.417 52.7835 107.099 53.28 106.777 53.7873C106.456 54.2945 106.145 54.7946 105.845 55.2875C105.545 55.7805 105.277 56.2341 105.041 56.6485C104.813 57.0629 104.627 57.4236 104.484 57.7308C104.348 58.0309 104.281 58.2488 104.281 58.3845C104.281 58.6203 104.331 58.7917 104.431 58.8989C104.531 58.9989 104.674 59.0489 104.859 59.0489C105.088 59.0489 105.377 58.9775 105.727 58.8346C106.077 58.6917 106.467 58.5024 106.895 58.2667C107.324 58.0237 107.785 57.7523 108.278 57.4522C108.771 57.145 109.278 56.8307 109.799 56.5092C110.321 56.1806 110.846 55.8591 111.375 55.5447C111.903 55.2304 112.421 54.9446 112.929 54.6874ZM106.97 48.2684C107.178 47.8327 107.406 47.3719 107.656 46.8861C107.913 46.3931 108.153 45.9073 108.374 45.4287C108.596 44.9429 108.781 44.4785 108.931 44.0355C109.081 43.5855 109.156 43.189 109.156 42.846C109.156 42.5246 109.096 42.296 108.974 42.1602C108.853 42.0245 108.689 41.9566 108.481 41.9566C108.224 41.9566 107.913 42.0459 107.549 42.2245C107.192 42.4031 106.81 42.6424 106.402 42.9425C106.002 43.2425 105.595 43.5855 105.181 43.9712C104.766 44.357 104.373 44.7571 104.002 45.1715C103.638 45.5858 103.309 46.0002 103.016 46.4145C102.723 46.8218 102.502 47.2004 102.352 47.5505C102.437 47.6648 102.634 47.7684 102.941 47.8612C103.248 47.947 103.62 48.022 104.056 48.0863C104.491 48.1434 104.963 48.1899 105.47 48.2256C105.984 48.2542 106.485 48.2684 106.97 48.2684ZM125.124 54.6874C125.174 54.6589 125.227 54.6446 125.284 54.6446C125.37 54.6446 125.449 54.6732 125.52 54.7303C125.592 54.7875 125.627 54.866 125.627 54.9661C125.627 55.0518 125.588 55.1482 125.509 55.2554C125.438 55.3626 125.309 55.4697 125.124 55.5769C124.759 55.7841 124.359 56.0162 123.923 56.2734C123.495 56.5235 123.052 56.7807 122.595 57.045C122.144 57.3093 121.694 57.5701 121.244 57.8273C120.794 58.0845 120.366 58.3202 119.958 58.5346C119.558 58.7489 119.194 58.9346 118.865 59.0918C118.537 59.2418 118.269 59.3454 118.062 59.4026C117.947 59.4383 117.84 59.4597 117.74 59.4669C117.647 59.4812 117.562 59.4883 117.483 59.4883C117.183 59.4883 116.936 59.4133 116.744 59.2633C116.551 59.1132 116.397 58.9132 116.283 58.6631C116.176 58.406 116.101 58.1095 116.058 57.7737C116.015 57.4308 115.993 57.07 115.993 56.6914C115.993 56.177 116.018 55.6555 116.068 55.1268C116.118 54.591 116.165 54.0981 116.208 53.648L113.882 55.0196L112.939 55.5769C112.889 55.6055 112.832 55.6198 112.768 55.6198C112.682 55.6198 112.607 55.5912 112.543 55.534C112.478 55.4769 112.446 55.3983 112.446 55.2983C112.446 55.2125 112.482 55.1197 112.554 55.0196C112.625 54.9125 112.754 54.8017 112.939 54.6874L116.272 52.7264C116.615 51.5405 116.969 50.451 117.333 49.4579C117.697 48.4649 118.094 47.5683 118.522 46.7682C118.951 45.968 119.419 45.2643 119.926 44.6571C120.433 44.0498 121.001 43.5462 121.63 43.1461C122.259 42.7389 122.955 42.4353 123.72 42.2352C124.491 42.028 125.349 41.9245 126.292 41.9245C126.763 41.9245 127.16 41.9673 127.481 42.0531C127.803 42.1316 128.063 42.2495 128.263 42.4067C128.471 42.5567 128.617 42.7389 128.703 42.9532C128.796 43.1675 128.842 43.4033 128.842 43.6605C128.842 43.982 128.735 44.3285 128.521 44.7C128.306 45.0643 128.017 45.4429 127.653 45.8359C127.288 46.2288 126.867 46.6289 126.388 47.0361C125.909 47.4362 125.406 47.8327 124.877 48.2256C124.348 48.6185 123.809 48.9971 123.259 49.3615C122.716 49.7258 122.195 50.0652 121.694 50.3795C121.201 50.6939 120.744 50.9761 120.323 51.2261C119.908 51.4762 119.569 51.6798 119.305 51.8369C119.176 52.287 119.048 52.7585 118.919 53.2515C118.79 53.7444 118.672 54.2409 118.565 54.741C118.465 55.2411 118.383 55.7376 118.319 56.2306C118.255 56.7164 118.222 57.1736 118.222 57.6022C118.222 57.7737 118.237 57.9202 118.265 58.0416C118.301 58.1631 118.358 58.2238 118.437 58.2238C118.572 58.2238 118.772 58.1738 119.037 58.0738C119.308 57.9666 119.619 57.8237 119.969 57.6451C120.319 57.4665 120.701 57.2629 121.116 57.0343C121.537 56.7985 121.973 56.5485 122.423 56.2842C122.873 56.0198 123.327 55.7519 123.784 55.4804C124.241 55.209 124.688 54.9446 125.124 54.6874ZM119.455 50.851C119.883 50.6224 120.391 50.3224 120.976 49.9509C121.569 49.5794 122.18 49.1722 122.809 48.7292C123.445 48.2792 124.07 47.8076 124.684 47.3147C125.299 46.8218 125.849 46.3395 126.335 45.868C126.827 45.3965 127.224 44.95 127.524 44.5285C127.824 44.0998 127.974 43.7283 127.974 43.414C127.974 43.1497 127.835 42.9389 127.556 42.7818C127.285 42.6174 126.838 42.5353 126.217 42.5353C125.238 42.5353 124.391 42.7103 123.677 43.0604C122.962 43.4104 122.341 43.932 121.812 44.6249C121.291 45.3179 120.841 46.1859 120.462 47.229C120.091 48.2649 119.755 49.4722 119.455 50.851ZM137.179 55.5769C136.072 56.2127 135.133 56.7664 134.361 57.2379C133.589 57.7023 132.932 58.088 132.389 58.3952C131.846 58.6953 131.385 58.9203 131.007 59.0704C130.635 59.2132 130.296 59.2847 129.989 59.2847C129.689 59.2847 129.432 59.249 129.217 59.1775C129.01 59.1061 128.839 59.0096 128.703 58.8882C128.567 58.7667 128.467 58.6203 128.403 58.4488C128.346 58.2774 128.317 58.0916 128.317 57.8916C128.317 57.7416 128.349 57.588 128.413 57.4308C128.478 57.2736 128.556 57.1129 128.649 56.9486C128.749 56.7842 128.853 56.6128 128.96 56.4342C129.067 56.2484 129.167 56.052 129.26 55.8448L130.889 52.2013L125.134 55.5769C125.041 55.6126 124.977 55.6305 124.941 55.6305C124.856 55.6305 124.781 55.6019 124.716 55.5447C124.645 55.4876 124.609 55.4126 124.609 55.3197C124.609 55.234 124.649 55.1375 124.727 55.0304C124.799 54.9232 124.934 54.8089 125.134 54.6874L127.91 53.0693C128.274 52.855 128.642 52.6406 129.014 52.4263C129.385 52.212 129.732 52.012 130.053 51.8262C130.382 51.6405 130.675 51.4762 130.932 51.3333C131.196 51.1832 131.4 51.0689 131.543 50.9904H132.925C132.954 51.0118 132.979 51.0475 133 51.0975C133.021 51.1475 133.032 51.2225 133.032 51.3226C133.032 51.5083 132.979 51.7726 132.871 52.1156C132.764 52.4513 132.629 52.83 132.464 53.2515C132.307 53.673 132.128 54.1159 131.928 54.5803C131.735 55.0375 131.553 55.4733 131.382 55.8877C131.21 56.2949 131.032 56.7021 130.846 57.1093C130.66 57.5165 130.475 57.9344 130.289 58.3631C130.482 58.3631 130.785 58.2667 131.2 58.0738C131.621 57.8809 132.128 57.6201 132.721 57.2915C133.321 56.9557 133.997 56.5663 134.747 56.1234C135.504 55.6733 136.315 55.1947 137.179 54.6874C137.208 54.6589 137.261 54.6446 137.34 54.6446C137.426 54.6446 137.504 54.6732 137.576 54.7303C137.654 54.7875 137.694 54.866 137.694 54.9661C137.694 55.0518 137.654 55.1482 137.576 55.2554C137.504 55.3554 137.372 55.4626 137.179 55.5769ZM134.222 47.2397C134.265 47.2397 134.343 47.2433 134.457 47.2504C134.579 47.2504 134.715 47.2575 134.865 47.2718C135.015 47.2861 135.172 47.3111 135.336 47.3468C135.5 47.3754 135.65 47.4219 135.786 47.4862C135.922 47.5433 136.036 47.6183 136.129 47.7112C136.222 47.8041 136.272 47.9184 136.279 48.0541L134.725 49.2329L134.018 49.5651C133.889 49.5651 133.789 49.5294 133.718 49.4579C133.647 49.3865 133.593 49.3115 133.557 49.2329L134.222 47.2397ZM150.135 52.1477C149.864 52.1477 149.524 52.2263 149.117 52.3835C148.71 52.5335 148.263 52.7442 147.778 53.0157C147.292 53.28 146.785 53.5944 146.256 53.9587C145.734 54.3231 145.22 54.7196 144.713 55.1482C144.213 55.5769 143.734 56.0305 143.277 56.5092C142.827 56.9807 142.434 57.4558 142.098 57.9344C142.062 57.9702 142.044 58.0523 142.044 58.1809C142.044 58.3024 142.023 58.431 141.98 58.5667C141.944 58.7024 141.869 58.8239 141.755 58.9311C141.641 59.0382 141.451 59.0918 141.187 59.0918C141.001 59.0918 140.855 59.0704 140.748 59.0275C140.648 58.9846 140.569 58.9275 140.512 58.856C140.462 58.7775 140.43 58.6882 140.416 58.5881C140.401 58.481 140.394 58.3631 140.394 58.2345C140.394 58.1059 140.43 57.9166 140.501 57.6665C140.573 57.4165 140.666 57.1272 140.78 56.7985C140.894 56.4699 141.023 56.1163 141.166 55.7376C141.309 55.359 141.451 54.9804 141.594 54.6017C141.744 54.2231 141.884 53.8552 142.012 53.4979C142.148 53.1407 142.262 52.8193 142.355 52.5335L137.179 55.5769C137.144 55.584 137.115 55.5912 137.094 55.5983C137.065 55.5983 137.044 55.5983 137.029 55.5983C136.929 55.5983 136.858 55.5733 136.815 55.5233C136.765 55.4662 136.74 55.3983 136.74 55.3197C136.74 55.2197 136.779 55.1125 136.858 54.9982C136.929 54.8768 137.036 54.7732 137.179 54.6874C138.251 54.0516 139.133 53.5301 139.826 53.1229C140.526 52.7085 141.087 52.3763 141.509 52.1263C141.93 51.8762 142.244 51.6905 142.452 51.569C142.666 51.4476 142.827 51.3583 142.934 51.3011C143.034 51.244 143.123 51.2047 143.202 51.1832C143.288 51.1618 143.38 51.1511 143.48 51.1511C143.688 51.1511 143.855 51.2118 143.984 51.3333C144.12 51.4547 144.188 51.5905 144.188 51.7405C144.188 51.8905 144.141 52.0977 144.048 52.362C143.956 52.6192 143.841 52.9014 143.705 53.2086C143.57 53.5158 143.43 53.8301 143.288 54.1516C143.145 54.466 143.023 54.7589 142.923 55.0304C142.88 55.1375 142.845 55.2268 142.816 55.2983C142.795 55.3626 142.766 55.4376 142.73 55.5233C142.702 55.609 142.659 55.7198 142.602 55.8555C142.545 55.9841 142.462 56.1663 142.355 56.402C142.655 56.0162 143.005 55.6126 143.405 55.1911C143.813 54.7696 144.252 54.3588 144.724 53.9587C145.202 53.5515 145.709 53.1657 146.245 52.8014C146.788 52.437 147.345 52.1191 147.917 51.8477C148.496 51.569 149.085 51.3511 149.685 51.194C150.285 51.0296 150.882 50.9475 151.475 50.9475C151.839 50.9475 152.089 51.0261 152.225 51.1832C152.368 51.3333 152.439 51.5405 152.439 51.8048C152.439 52.0191 152.4 52.2799 152.321 52.5871C152.243 52.8943 152.136 53.23 152 53.5944C151.864 53.9516 151.71 54.3374 151.539 54.7517C151.368 55.159 151.185 55.5733 150.992 55.9948C150.807 56.4092 150.617 56.8271 150.425 57.2486C150.239 57.6701 150.064 58.0738 149.899 58.4595C150.307 58.2952 150.732 58.0809 151.175 57.8166C151.618 57.5522 152.089 57.2558 152.589 56.9271C153.096 56.5985 153.629 56.2449 154.186 55.8662C154.75 55.4804 155.354 55.0875 155.997 54.6874C156.047 54.6589 156.115 54.6446 156.201 54.6446C156.372 54.6446 156.458 54.741 156.458 54.9339C156.458 55.0339 156.418 55.1447 156.34 55.2661C156.261 55.3804 156.147 55.484 155.997 55.5769C155.147 56.1056 154.379 56.6092 153.693 57.0879C153.007 57.5665 152.378 57.9916 151.807 58.3631C151.243 58.7346 150.725 59.0275 150.253 59.2418C149.789 59.4633 149.356 59.574 148.956 59.574C148.714 59.574 148.506 59.5419 148.335 59.4776C148.163 59.4204 148.021 59.3418 147.906 59.2418C147.799 59.1418 147.717 59.0239 147.66 58.8882C147.61 58.7453 147.585 58.5989 147.585 58.4488C147.585 58.2845 147.617 58.1238 147.681 57.9666C147.753 57.8023 147.849 57.6273 147.971 57.4415C148.192 56.9557 148.438 56.4485 148.71 55.9198C148.981 55.384 149.231 54.8768 149.46 54.3981C149.689 53.9194 149.882 53.4944 150.039 53.1229C150.196 52.7514 150.274 52.4835 150.274 52.3192C150.274 52.2049 150.228 52.1477 150.135 52.1477ZM155.997 55.5769C155.947 55.6055 155.901 55.6198 155.858 55.6198C155.786 55.6198 155.733 55.5912 155.697 55.534C155.661 55.4697 155.643 55.3911 155.643 55.2983C155.643 55.1982 155.668 55.0911 155.718 54.9768C155.768 54.8625 155.861 54.766 155.997 54.6874L159.962 52.3513C160.455 52.0655 160.98 51.8191 161.537 51.6119C162.094 51.4047 162.659 51.2368 163.23 51.1082C163.809 50.9725 164.381 50.876 164.945 50.8189C165.509 50.7546 166.042 50.7225 166.542 50.7225C166.827 50.7225 167.095 50.7439 167.345 50.7867C167.595 50.8225 167.81 50.8796 167.988 50.9582C168.174 51.0296 168.317 51.1189 168.417 51.2261C168.524 51.3333 168.578 51.4547 168.578 51.5905C168.578 51.6905 168.542 51.7619 168.471 51.8048C168.399 51.8477 168.313 51.8798 168.213 51.9012C168.121 51.9155 168.021 51.9262 167.913 51.9334C167.813 51.9405 167.735 51.9584 167.678 51.987C167.635 52.1227 167.567 52.3335 167.474 52.6192C167.381 52.8978 167.288 53.1872 167.195 53.4872C167.102 53.7801 167.017 54.0445 166.938 54.2802C166.867 54.5088 166.827 54.641 166.82 54.6767C166.727 54.9768 166.599 55.359 166.435 55.8234C166.277 56.2806 166.102 56.895 165.909 57.6665C165.917 57.6665 165.995 57.6273 166.145 57.5487C166.302 57.4629 166.502 57.3522 166.745 57.2165C166.995 57.0807 167.278 56.9236 167.592 56.745C167.906 56.5663 168.231 56.3842 168.567 56.1984L171.128 54.6874C171.228 54.6303 171.314 54.6017 171.385 54.6017C171.464 54.6017 171.525 54.6303 171.568 54.6874C171.61 54.7375 171.632 54.8017 171.632 54.8803C171.632 54.9804 171.593 55.0982 171.514 55.234C171.435 55.3626 171.307 55.4769 171.128 55.5769L165.427 58.9203C165.284 59.0061 165.152 59.0668 165.031 59.1025C164.909 59.1382 164.799 59.1561 164.698 59.1561C164.556 59.1561 164.434 59.1239 164.334 59.0596C164.234 58.9954 164.152 58.906 164.088 58.7917C164.023 58.6774 163.973 58.5488 163.938 58.406C163.909 58.2559 163.895 58.0988 163.895 57.9344C163.895 57.7558 163.913 57.5772 163.948 57.3986C163.984 57.22 164.031 57.0486 164.088 56.8843C163.88 57.2915 163.638 57.6451 163.359 57.9452C163.087 58.2452 162.795 58.4988 162.48 58.706C162.173 58.906 161.855 59.0561 161.527 59.1561C161.198 59.2561 160.876 59.3061 160.562 59.3061C160.248 59.3061 159.951 59.2561 159.673 59.1561C159.394 59.0561 159.148 58.9096 158.933 58.7167C158.726 58.5167 158.562 58.2702 158.44 57.9773C158.319 57.6844 158.258 57.3451 158.258 56.9593C158.258 56.7307 158.279 56.477 158.322 56.1984C158.372 55.9198 158.437 55.6376 158.515 55.3518C158.594 55.0661 158.683 54.7875 158.783 54.516C158.883 54.2374 158.987 53.9837 159.094 53.7551L155.997 55.5769ZM165.738 51.6333C165.166 51.6333 164.62 51.7298 164.098 51.9227C163.577 52.1156 163.091 52.3692 162.641 52.6835C162.198 52.9979 161.794 53.3586 161.43 53.7658C161.073 54.1659 160.766 54.5803 160.508 55.0089C160.258 55.4304 160.062 55.8484 159.919 56.2627C159.783 56.6771 159.715 57.0486 159.715 57.3772C159.715 57.7416 159.794 58.038 159.951 58.2667C160.116 58.4881 160.38 58.5989 160.744 58.5989C160.959 58.5989 161.191 58.5346 161.441 58.406C161.698 58.2702 161.955 58.0952 162.212 57.8809C162.477 57.6594 162.734 57.4129 162.984 57.1414C163.241 56.8628 163.477 56.5842 163.691 56.3056C163.905 56.0198 164.091 55.7448 164.248 55.4804C164.413 55.209 164.531 54.9732 164.602 54.7732L165.738 51.6333Z" fill="#FBFDFB"/>
</g>
</svg>
