<svg xmlns="http://www.w3.org/2000/svg" width="173" height="58" viewBox="0 0 173 58" fill="none">
  <path
    d="M29.1212 28.8245C29.1068 28.8606 28.9951 28.9291 28.7863 29.0301C28.5847 29.1382 28.3398 29.25 28.0518 29.3653C27.771 29.4879 27.4721 29.5925 27.1553 29.679C26.8456 29.7728 26.572 29.8196 26.3343 29.8196C26.1759 29.8196 26.0463 29.7908 25.9455 29.7331C25.8519 29.6754 25.8051 29.5817 25.8051 29.4519C25.8051 29.4086 25.8123 29.3653 25.8267 29.3221C25.8411 29.286 25.8591 29.2283 25.8807 29.149C26.1543 28.1179 26.4352 27.0904 26.7232 26.0665C27.0112 25.0426 27.2921 24.0439 27.5657 23.0705C27.8394 22.0898 28.0986 21.1452 28.3434 20.2367C28.5883 19.3209 28.8007 18.4629 28.9807 17.6625C29.1608 16.8549 29.3048 16.1158 29.4128 15.4452C29.5208 14.7674 29.5748 14.1761 29.5748 13.6714C29.5748 12.0922 29.4416 10.6645 29.1752 9.38826C28.9159 8.11197 28.5451 6.9799 28.0626 5.99205C27.5873 4.99698 27.0148 4.14252 26.3451 3.42866C25.6826 2.7076 24.9481 2.11632 24.1416 1.65484C23.3351 1.19336 22.471 0.854461 21.5492 0.638142C20.6347 0.414612 19.6877 0.302847 18.7084 0.302847C17.549 0.302847 16.3681 0.44706 15.1655 0.735486C13.9629 1.02391 12.7783 1.43852 11.6117 1.97932C10.438 2.52012 9.30379 3.17989 8.20923 3.95864C7.10746 4.73739 6.08491 5.61709 5.14157 6.59774C4.19103 7.57118 3.3413 8.64196 2.59239 9.81008C1.84348 10.971 1.23138 12.2076 0.756113 13.52C0.612092 13.9093 0.496874 14.1797 0.410461 14.3312C0.316847 14.4754 0.241236 14.5475 0.183628 14.5475C0.118818 14.5475 0.0720108 14.4718 0.0432065 14.3203C0.0144022 14.1617 0 14.0031 0 13.8444C0 13.7723 0.00360054 13.711 0.0108016 13.6606C0.0108016 13.6029 0.0144022 13.556 0.0216032 13.52C0.360054 12.0995 0.878532 10.7799 1.57704 9.56131C2.27554 8.34271 3.10367 7.23228 4.06141 6.23C5.01915 5.22772 6.08491 4.34081 7.25869 3.56927C8.43246 2.79052 9.66385 2.13796 10.9528 1.61158C12.2418 1.0852 13.5668 0.685011 14.9278 0.411007C16.2888 0.137002 17.6354 0 18.9676 0C20.1486 0 21.2972 0.111765 22.4134 0.335295C23.5367 0.558825 24.5917 0.897725 25.5782 1.352C26.572 1.80627 27.4829 2.38312 28.311 3.08255C29.1392 3.78198 29.8521 4.61121 30.4498 5.57022C31.0474 6.52203 31.5119 7.60723 31.8432 8.82583C32.1816 10.0372 32.3508 11.3856 32.3508 12.871C32.3508 13.5776 32.2932 14.4321 32.178 15.4344C32.0628 16.4295 31.8828 17.5291 31.6379 18.7333C31.3931 19.9302 31.0799 21.2065 30.6982 22.5621C30.3165 23.9105 29.8629 25.2877 29.3372 26.6938L38.4754 11.8976C38.6482 11.6308 38.8426 11.3532 39.0587 11.0647C39.2747 10.7691 39.5015 10.4987 39.7392 10.2535C39.984 10.0012 40.2324 9.79566 40.4845 9.63703C40.7365 9.47118 40.9849 9.38826 41.2298 9.38826C41.4746 9.38826 41.6654 9.40989 41.8023 9.45315C41.9391 9.48921 42.0399 9.53608 42.1047 9.59376C42.1767 9.65145 42.2199 9.71995 42.2343 9.79927C42.2559 9.87137 42.2667 9.94348 42.2667 10.0156L29.1212 28.8245Z"
    fill="#2B312F" />
  <path
    d="M48.9205 24.1304C48.9709 24.1016 49.0249 24.0872 49.0826 24.0872C49.169 24.0872 49.2482 24.116 49.3202 24.1737C49.3922 24.2314 49.4282 24.3107 49.4282 24.4116C49.4282 24.4982 49.3886 24.5955 49.3094 24.7037C49.2374 24.8118 49.1078 24.92 48.9205 25.0281C48.5533 25.2373 48.15 25.4716 47.7107 25.7312C47.2787 25.9836 46.8322 26.2431 46.3713 26.5099C45.9177 26.7767 45.464 27.0399 45.0103 27.2995C44.5567 27.5591 44.1246 27.797 43.7141 28.0134C43.3109 28.2297 42.9436 28.4171 42.6124 28.5758C42.2811 28.7272 42.0111 28.8318 41.8023 28.8894C41.687 28.9255 41.579 28.9471 41.4782 28.9543C41.3846 28.9688 41.2982 28.976 41.219 28.976C40.9165 28.976 40.6681 28.9003 40.4737 28.7488C40.2792 28.5974 40.1244 28.3955 40.0092 28.1431C39.9012 27.8836 39.8256 27.5843 39.7824 27.2454C39.7392 26.8993 39.7176 26.5352 39.7176 26.153C39.7176 25.6338 39.7428 25.1075 39.7932 24.5739C39.8436 24.0331 39.8904 23.5355 39.9336 23.0813L36.6391 25.0281C36.5887 25.057 36.5311 25.0714 36.4663 25.0714C36.3798 25.0714 36.3042 25.0426 36.2394 24.9849C36.1746 24.9272 36.1422 24.8479 36.1422 24.7469C36.1422 24.6604 36.1782 24.5667 36.2502 24.4657C36.3222 24.3576 36.4519 24.2458 36.6391 24.1304L39.9984 22.1511C40.344 20.9541 40.7005 19.8545 41.0677 18.8522C41.435 17.85 41.8347 16.945 42.2667 16.1374C42.6988 15.3298 43.1705 14.6196 43.6817 14.0067C44.193 13.3938 44.7655 12.8854 45.3992 12.4816C46.0329 12.0706 46.735 11.7642 47.5055 11.5623C48.2832 11.3532 49.1474 11.2486 50.0979 11.2486C50.5732 11.2486 50.9728 11.2919 51.2969 11.3784C51.6209 11.4577 51.8838 11.5767 52.0854 11.7353C52.2942 11.8867 52.4419 12.0706 52.5283 12.2869C52.6219 12.5033 52.6687 12.7412 52.6687 13.0008C52.6687 13.3253 52.5607 13.675 52.3446 14.0499C52.1286 14.4177 51.837 14.7998 51.4697 15.1964C51.1025 15.593 50.6776 15.9968 50.1951 16.4078C49.7126 16.8116 49.205 17.2118 48.6721 17.6084C48.1392 18.005 47.5955 18.3871 47.041 18.7549C46.4938 19.1226 45.9681 19.4651 45.464 19.7824C44.9671 20.0997 44.5063 20.3845 44.0814 20.6369C43.6637 20.8892 43.3217 21.0947 43.0552 21.2534C42.9256 21.7076 42.796 22.1835 42.6664 22.6811C42.5368 23.1786 42.418 23.6798 42.3099 24.1845C42.2091 24.6892 42.1263 25.1904 42.0615 25.6879C41.9967 26.1782 41.9643 26.6397 41.9643 27.0724C41.9643 27.2454 41.9787 27.3932 42.0075 27.5158C42.0435 27.6384 42.1011 27.6997 42.1803 27.6997C42.3171 27.6997 42.5188 27.6492 42.7852 27.5483C43.0588 27.4401 43.3721 27.2959 43.7249 27.1156C44.0778 26.9354 44.4631 26.7299 44.8807 26.4991C45.3056 26.2612 45.7449 26.0088 46.1985 25.742C46.6522 25.4752 47.1095 25.2048 47.5703 24.9308C48.0312 24.6568 48.4813 24.39 48.9205 24.1304ZM43.2065 20.2583C43.6385 20.0276 44.1498 19.7247 44.7403 19.3498C45.338 18.9748 45.9537 18.5638 46.5874 18.1167C47.2283 17.6625 47.8584 17.1866 48.4777 16.689C49.097 16.1915 49.6514 15.7048 50.1411 15.2289C50.638 14.753 51.0376 14.3023 51.3401 13.8769C51.6425 13.4442 51.7938 13.0693 51.7938 12.752C51.7938 12.4852 51.6533 12.2725 51.3725 12.1139C51.0989 11.948 50.6488 11.8651 50.0223 11.8651C49.0357 11.8651 48.1824 12.0418 47.4623 12.3951C46.7422 12.7484 46.1157 13.2748 45.5828 13.9742C45.0571 14.6737 44.6035 15.5498 44.2218 16.6025C43.8474 17.6481 43.5089 18.8666 43.2065 20.2583Z"
    fill="#2B312F" />
  <path
    d="M48.9313 25.0281C48.8809 25.057 48.8341 25.0714 48.7909 25.0714C48.7189 25.0714 48.6649 25.0426 48.6289 24.9849C48.5929 24.92 48.5749 24.8407 48.5749 24.7469C48.5749 24.646 48.6001 24.5378 48.6505 24.4225C48.7009 24.3071 48.7945 24.2097 48.9313 24.1304L52.9279 21.7725C53.4248 21.4841 53.9541 21.2353 54.5158 21.0262C55.0775 20.8171 55.6463 20.6477 56.2224 20.5179C56.8057 20.3809 57.3818 20.2835 57.9507 20.2259C58.5196 20.161 59.056 20.1285 59.5601 20.1285C59.8482 20.1285 60.1182 20.1501 60.3702 20.1934C60.6223 20.2295 60.8383 20.2871 61.0183 20.3665C61.2056 20.4386 61.3496 20.5287 61.4504 20.6369C61.5584 20.745 61.6124 20.8676 61.6124 21.0046C61.6124 21.1056 61.5764 21.1777 61.5044 21.2209C61.4324 21.2642 61.346 21.2966 61.2452 21.3183C61.1516 21.3327 61.0507 21.3435 60.9427 21.3507C60.8419 21.3579 60.7627 21.376 60.7051 21.4048C60.6619 21.5418 60.5935 21.7545 60.4999 22.0429C60.4063 22.3242 60.3126 22.6162 60.219 22.919C60.1254 23.2147 60.039 23.4815 59.9598 23.7194C59.8878 23.9502 59.8482 24.0836 59.841 24.1196C59.7474 24.4225 59.6177 24.8082 59.4521 25.2769C59.2937 25.7384 59.1173 26.3585 58.9228 27.1373C58.93 27.1373 59.0092 27.0976 59.1605 27.0183C59.3189 26.9318 59.5205 26.82 59.7654 26.683C60.0174 26.546 60.3018 26.3874 60.6187 26.2071C60.9355 26.0268 61.2632 25.8429 61.6016 25.6555L64.1832 24.1304C64.284 24.0727 64.3704 24.0439 64.4425 24.0439C64.5217 24.0439 64.5829 24.0727 64.6261 24.1304C64.6693 24.1809 64.6909 24.2458 64.6909 24.3251C64.6909 24.4261 64.6513 24.545 64.5721 24.682C64.4929 24.8118 64.3632 24.9272 64.1832 25.0281L58.4368 28.4027C58.2927 28.4893 58.1595 28.5505 58.0371 28.5866C57.9147 28.6227 57.8031 28.6407 57.7022 28.6407C57.5582 28.6407 57.4358 28.6082 57.335 28.5433C57.2342 28.4784 57.1514 28.3883 57.0866 28.2729C57.0217 28.1576 56.9713 28.0278 56.9353 27.8836C56.9065 27.7321 56.8921 27.5735 56.8921 27.4077C56.8921 27.2274 56.9101 27.0471 56.9461 26.8669C56.9821 26.6866 57.0289 26.5135 57.0866 26.3477C56.8777 26.7587 56.6329 27.1156 56.352 27.4185C56.0784 27.7213 55.7832 27.9773 55.4663 28.1864C55.1567 28.3883 54.8362 28.5397 54.505 28.6407C54.1737 28.7416 53.8497 28.7921 53.5328 28.7921C53.216 28.7921 52.9171 28.7416 52.6363 28.6407C52.3554 28.5397 52.107 28.3919 51.891 28.1972C51.6821 27.9953 51.5165 27.7466 51.3941 27.4509C51.2717 27.1553 51.2105 26.8128 51.2105 26.4234C51.2105 26.1927 51.2321 25.9367 51.2753 25.6555C51.3257 25.3743 51.3905 25.0894 51.4697 24.801C51.5489 24.5126 51.6389 24.2314 51.7398 23.9574C51.8406 23.6761 51.945 23.4202 52.053 23.1894L48.9313 25.0281ZM58.75 21.0479C58.1739 21.0479 57.623 21.1452 57.0974 21.3399C56.5717 21.5346 56.082 21.7906 55.6283 22.1078C55.1819 22.4251 54.775 22.7892 54.4077 23.2002C54.0477 23.604 53.7381 24.0223 53.4788 24.4549C53.2268 24.8803 53.0287 25.3022 52.8847 25.7204C52.7479 26.1386 52.6795 26.5135 52.6795 26.8452C52.6795 27.213 52.7587 27.5122 52.9171 27.743C53.0828 27.9665 53.3492 28.0782 53.7164 28.0782C53.9325 28.0782 54.1665 28.0134 54.4186 27.8836C54.6778 27.7466 54.937 27.5699 55.1963 27.3536C55.4627 27.13 55.722 26.8813 55.974 26.6073C56.2332 26.3261 56.4709 26.0448 56.6869 25.7636C56.9029 25.4752 57.0902 25.1976 57.2486 24.9308C57.4142 24.6568 57.533 24.4188 57.605 24.2169L58.75 21.0479Z"
    fill="#2B312F" />
  <path
    d="M66.7972 25.9367C66.7972 25.6699 66.8764 25.349 67.0348 24.9741C67.2005 24.5991 67.4129 24.2169 67.6721 23.8276C67.9386 23.4382 68.2374 23.0669 68.5687 22.7135C68.8999 22.353 69.2312 22.061 69.5624 21.8374L64.1832 25.0281C64.1544 25.0426 64.1292 25.0534 64.1076 25.0606C64.0788 25.0606 64.0536 25.0606 64.032 25.0606C63.9528 25.0606 63.8916 25.0318 63.8484 24.9741C63.8052 24.9164 63.7836 24.8443 63.7836 24.7577C63.7836 24.6568 63.816 24.5486 63.8808 24.4333C63.9456 24.3107 64.0464 24.2097 64.1832 24.1304L67.1537 22.3242C67.5569 22.079 68.0142 21.8194 68.5255 21.5454C69.0367 21.2642 69.566 21.0082 70.1133 20.7775C70.6678 20.5467 71.2259 20.3556 71.7876 20.2042C72.3492 20.0456 72.8821 19.9663 73.3862 19.9663C73.8543 19.9663 74.2683 20.0384 74.6284 20.1826L77.4476 14.4826C77.5196 14.3312 77.5952 14.1689 77.6744 13.9959C77.7608 13.8156 77.8689 13.6497 77.9985 13.4983C78.1353 13.3469 78.3045 13.2207 78.5062 13.1198C78.715 13.0116 78.9814 12.9575 79.3055 12.9575C79.4063 12.9575 79.4675 12.9936 79.4891 13.0657C79.5179 13.1306 79.5323 13.2171 79.5323 13.3253C79.5179 13.4262 79.4927 13.5416 79.4567 13.6714C79.4207 13.794 79.3811 13.9165 79.3379 14.0391C79.3019 14.1617 79.2659 14.2735 79.2299 14.3744C79.1939 14.4754 79.1651 14.5511 79.1435 14.6016L75.9246 21.6103C75.7662 22.079 75.5681 22.5657 75.3305 23.0705C75.1 23.568 74.8732 24.0547 74.65 24.5306C74.4339 24.9993 74.2467 25.4392 74.0883 25.8502C73.9371 26.2612 73.8615 26.6109 73.8615 26.8993C73.8615 27.0003 73.8723 27.0976 73.8939 27.1913C73.9227 27.2851 73.9731 27.3319 74.0451 27.3319C74.1387 27.3319 74.2791 27.2959 74.4664 27.2238C74.6608 27.1517 74.8804 27.0507 75.1253 26.9209C75.3701 26.7911 75.6329 26.6397 75.9138 26.4667C76.2018 26.2864 76.4863 26.0953 76.7671 25.8934L79.5755 24.1304C79.6331 24.1016 79.6763 24.0872 79.7051 24.0872C79.7627 24.0872 79.806 24.116 79.8348 24.1737C79.8708 24.2314 79.8888 24.2999 79.8888 24.3792C79.8888 24.5018 79.86 24.6243 79.8024 24.7469C79.7519 24.8623 79.6763 24.956 79.5755 25.0281C79.1651 25.3022 78.7402 25.587 78.3009 25.8826C77.8689 26.171 77.4332 26.4595 76.9939 26.7479C76.5547 27.0291 76.1226 27.2995 75.6977 27.5591C75.2801 27.8187 74.8768 28.0566 74.488 28.2729C73.9335 28.583 73.4366 28.738 72.9973 28.738C72.7093 28.738 72.5149 28.6587 72.414 28.5001C72.3132 28.3414 72.2628 28.1359 72.2628 27.8836C72.2628 27.7321 72.2736 27.5771 72.2952 27.4185C72.324 27.2526 72.3636 27.076 72.414 26.8885C72.2196 27.1697 71.9964 27.4221 71.7443 27.6456C71.4923 27.8691 71.2223 28.0602 70.9342 28.2189C70.6534 28.3775 70.3581 28.4965 70.0485 28.5758C69.746 28.6623 69.4508 28.7056 69.1628 28.7056C68.8459 28.7056 68.5435 28.6551 68.2554 28.5542C67.9674 28.446 67.7153 28.2801 67.4993 28.0566C67.2833 27.8259 67.1105 27.5375 66.9808 27.1913C66.8584 26.8452 66.7972 26.427 66.7972 25.9367ZM73.8399 22.1727C73.8687 22.0934 73.9047 21.9961 73.9479 21.8807C73.9983 21.7653 74.0451 21.6536 74.0883 21.5454C74.1387 21.4372 74.1783 21.3399 74.2071 21.2534C74.2431 21.1596 74.2611 21.0947 74.2611 21.0587C74.2611 21.0154 74.1783 20.983 74.0127 20.9613C73.8471 20.9397 73.6274 20.9289 73.3538 20.9289C72.9937 20.9289 72.6265 21.0262 72.252 21.2209C71.8848 21.4084 71.5247 21.6572 71.1719 21.9672C70.8262 22.2773 70.4986 22.6342 70.1889 23.038C69.8865 23.4346 69.62 23.8456 69.3896 24.271C69.1664 24.6892 68.9863 25.1039 68.8495 25.5149C68.7199 25.9259 68.6551 26.2972 68.6551 26.6289C68.6551 27.076 68.7307 27.3968 68.8819 27.5915C69.0331 27.779 69.2312 27.8727 69.476 27.8727C69.8073 27.8727 70.1637 27.7321 70.5454 27.4509C70.9342 27.1697 71.3231 26.7803 71.7119 26.2828C72.1008 25.7781 72.4789 25.176 72.8461 24.4765C73.2134 23.7771 73.5446 23.0092 73.8399 22.1727Z"
    fill="#2B312F" />
  <path
    d="M91.7273 25.0281C90.6112 25.6699 89.6642 26.2287 88.8865 26.7046C88.1088 27.1733 87.4463 27.5627 86.899 27.8727C86.3517 28.1756 85.8873 28.4027 85.5056 28.5542C85.1311 28.6984 84.7891 28.7705 84.4795 28.7705C84.177 28.7705 83.9178 28.7344 83.7017 28.6623C83.4929 28.5902 83.3201 28.4929 83.1833 28.3703C83.0464 28.2477 82.9456 28.0999 82.8808 27.9268C82.8232 27.7538 82.7944 27.5663 82.7944 27.3644C82.7944 27.213 82.8268 27.0579 82.8916 26.8993C82.9564 26.7407 83.0356 26.5784 83.1293 26.4126C83.2301 26.2467 83.3345 26.0737 83.4425 25.8934C83.5505 25.7059 83.6513 25.5077 83.7449 25.2985L85.3868 21.6211L79.5863 25.0281C79.4927 25.0642 79.4279 25.0822 79.3919 25.0822C79.3055 25.0822 79.2299 25.0534 79.1651 24.9957C79.093 24.938 79.057 24.8623 79.057 24.7686C79.057 24.682 79.0966 24.5847 79.1759 24.4765C79.2479 24.3684 79.3847 24.253 79.5863 24.1304L82.3839 22.4972C82.7512 22.2809 83.122 22.0646 83.4965 21.8483C83.871 21.6319 84.2202 21.43 84.5443 21.2426C84.8755 21.0551 85.1708 20.8892 85.43 20.745C85.6964 20.5936 85.9017 20.4782 86.0457 20.3989H87.4391C87.4679 20.4205 87.4931 20.4566 87.5147 20.5071C87.5363 20.5575 87.5471 20.6333 87.5471 20.7342C87.5471 20.9217 87.4931 21.1885 87.3851 21.5346C87.2771 21.8735 87.1403 22.2557 86.9746 22.6811C86.8162 23.1065 86.6362 23.5536 86.4345 24.0223C86.2401 24.4837 86.0565 24.9236 85.8837 25.3418C85.7108 25.7528 85.5308 26.1638 85.3436 26.5748C85.1564 26.9858 84.9691 27.4077 84.7819 27.8403C84.9763 27.8403 85.2824 27.743 85.7 27.5483C86.1249 27.3536 86.6362 27.0904 87.2339 26.7587C87.8388 26.4198 88.5193 26.0268 89.2754 25.5798C90.0387 25.1255 90.856 24.6424 91.7273 24.1304C91.7561 24.1016 91.8102 24.0872 91.8894 24.0872C91.9758 24.0872 92.055 24.116 92.127 24.1737C92.2062 24.2314 92.2458 24.3107 92.2458 24.4116C92.2458 24.4982 92.2062 24.5955 92.127 24.7037C92.055 24.8046 91.9218 24.9128 91.7273 25.0281ZM88.7461 16.6133C88.7893 16.6133 88.8685 16.6169 88.9837 16.6241C89.1061 16.6241 89.243 16.6314 89.3942 16.6458C89.5454 16.6602 89.7038 16.6854 89.8695 16.7215C90.0351 16.7503 90.1863 16.7972 90.3231 16.8621C90.4599 16.9198 90.5752 16.9955 90.6688 17.0892C90.7624 17.183 90.8128 17.2983 90.82 17.4353L89.2538 18.6251L88.5409 18.9604C88.4113 18.9604 88.3104 18.9243 88.2384 18.8522C88.1664 18.7801 88.1124 18.7044 88.0764 18.6251L88.7461 16.6133Z"
    fill="#2B312F" />
  <path
    d="M115.761 24.1304C115.855 24.0944 115.93 24.0763 115.988 24.0763C116.089 24.0763 116.179 24.1016 116.258 24.1521C116.344 24.2025 116.387 24.2746 116.387 24.3684C116.387 24.4693 116.279 24.6099 116.063 24.7902C115.847 24.9632 115.585 25.1507 115.275 25.3526C114.965 25.5545 114.645 25.7564 114.314 25.9583C113.982 26.153 113.698 26.3225 113.46 26.4667C113.143 26.6758 112.787 26.9282 112.391 27.2238C111.995 27.5122 111.584 27.7934 111.159 28.0674C110.742 28.3414 110.328 28.5722 109.917 28.7597C109.514 28.9543 109.147 29.0517 108.815 29.0517C108.52 29.0517 108.268 28.9435 108.059 28.7272C107.858 28.5181 107.757 28.1792 107.757 27.7105C107.757 27.4293 107.8 27.1012 107.887 26.7263C107.973 26.3441 108.117 25.9042 108.319 25.4067C108.556 24.8154 108.761 24.2963 108.934 23.8492C109.114 23.4021 109.262 23.02 109.377 22.7027C109.492 22.3854 109.579 22.1259 109.636 21.924C109.694 21.7149 109.723 21.5526 109.723 21.4372C109.723 21.1921 109.633 21.0695 109.453 21.0695C109.273 21.0695 109.021 21.1885 108.697 21.4264C108.373 21.6572 108.009 21.9636 107.606 22.3458C107.21 22.728 106.792 23.1678 106.353 23.6653C105.921 24.1557 105.507 24.664 105.111 25.1904C104.714 25.7168 104.358 26.2359 104.041 26.7479C103.724 27.2598 103.483 27.7249 103.317 28.1431C103.289 28.2153 103.235 28.2874 103.155 28.3595C103.076 28.4244 102.983 28.4856 102.875 28.5433C102.774 28.5938 102.662 28.6335 102.54 28.6623C102.417 28.6984 102.299 28.7164 102.183 28.7164C101.989 28.7164 101.82 28.6623 101.676 28.5542C101.532 28.4388 101.46 28.2441 101.46 27.9701C101.46 27.7393 101.503 27.4762 101.589 27.1805C101.683 26.8777 101.773 26.5929 101.859 26.3261C101.982 25.8934 102.111 25.4572 102.248 25.0173C102.392 24.5703 102.525 24.1629 102.648 23.7951C102.792 23.3697 102.936 22.9551 103.08 22.5513C103.145 22.4431 103.213 22.3278 103.285 22.2052C103.364 22.0754 103.433 21.9456 103.49 21.8158C103.548 21.686 103.595 21.5598 103.631 21.4372C103.674 21.3075 103.696 21.1921 103.696 21.0911C103.696 20.9109 103.613 20.8207 103.447 20.8207C103.109 20.8207 102.72 20.9433 102.281 21.1885C101.848 21.4264 101.398 21.7401 100.93 22.1295C100.469 22.5116 100.009 22.9479 99.5477 23.4382C99.0868 23.9213 98.662 24.4116 98.2731 24.9092C97.8843 25.3995 97.5494 25.8718 97.2686 26.3261C96.9877 26.7731 96.7933 27.1553 96.6853 27.4726C96.6205 27.6672 96.5593 27.8367 96.5017 27.9809C96.4513 28.1251 96.3936 28.2441 96.3288 28.3378C96.264 28.4316 96.1848 28.5037 96.0912 28.5542C95.9976 28.5974 95.8752 28.619 95.7239 28.619C95.4215 28.619 95.2163 28.5361 95.1082 28.3703C95.0074 28.1972 94.957 27.9773 94.957 27.7105C94.957 27.5879 94.993 27.4004 95.065 27.1481C95.1371 26.8885 95.2307 26.5929 95.3459 26.2612C95.4683 25.9295 95.6015 25.5725 95.7455 25.1904C95.8896 24.801 96.0336 24.4152 96.1776 24.0331C96.3288 23.6437 96.4729 23.2687 96.6097 22.9082C96.7465 22.5477 96.8617 22.2268 96.9553 21.9456L91.7273 25.0281C91.6337 25.0786 91.5437 25.1039 91.4573 25.1039C91.3709 25.1039 91.2989 25.0786 91.2413 25.0281C91.1765 24.9777 91.1441 24.9092 91.1441 24.8226C91.1441 24.7289 91.1909 24.6207 91.2845 24.4982C91.3709 24.3756 91.5185 24.253 91.7273 24.1304L95.5835 21.8591C95.6771 21.787 95.7851 21.7149 95.9076 21.6427C96.0372 21.5706 96.1704 21.5057 96.3072 21.4481C96.4513 21.3904 96.5953 21.3435 96.7393 21.3075C96.8833 21.2714 97.0273 21.2534 97.1714 21.2534C97.3298 21.2534 97.4702 21.293 97.5926 21.3723C97.7222 21.4445 97.8303 21.5382 97.9167 21.6536C98.0031 21.7617 98.0679 21.8843 98.1111 22.0213C98.1615 22.1583 98.1867 22.2881 98.1867 22.4107C98.1867 22.5405 98.1759 22.6703 98.1543 22.8001C98.1399 22.9226 98.1039 23.0777 98.0463 23.2651C97.9959 23.4454 97.9239 23.6689 97.8303 23.9357C97.7366 24.2025 97.6142 24.545 97.463 24.9633C97.715 24.6244 97.9779 24.2746 98.2515 23.9141C98.5324 23.5464 98.8276 23.1894 99.1373 22.8433C99.4469 22.49 99.7746 22.1547 100.12 21.8374C100.473 21.5202 100.844 21.2426 101.233 21.0046C101.622 20.7667 102.032 20.5792 102.464 20.4422C102.903 20.298 103.364 20.2259 103.847 20.2259C103.991 20.2259 104.131 20.2619 104.268 20.334C104.412 20.3989 104.538 20.5035 104.646 20.6477C104.761 20.7919 104.851 20.9758 104.916 21.1993C104.988 21.4228 105.024 21.686 105.024 21.9889C105.024 22.3422 104.97 22.7496 104.862 23.2111C104.761 23.6653 104.585 24.1845 104.333 24.7686C104.844 24.0187 105.359 23.3913 105.877 22.8866C106.403 22.3746 106.911 21.9528 107.4 21.6211C107.897 21.2894 108.369 21.0371 108.815 20.864C109.262 20.6837 109.665 20.5503 110.025 20.4638C110.227 20.4638 110.439 20.4926 110.663 20.5503C110.886 20.608 111.087 20.6945 111.267 20.8099C111.447 20.9181 111.595 21.0587 111.71 21.2317C111.833 21.4048 111.894 21.6067 111.894 21.8374C111.894 21.9023 111.89 21.9672 111.883 22.0321C111.876 22.097 111.862 22.1655 111.84 22.2376C111.754 22.5405 111.635 22.8686 111.484 23.2219C111.332 23.568 111.17 23.9213 110.997 24.2818C110.825 24.6424 110.645 24.9993 110.457 25.3526C110.277 25.6987 110.115 26.0268 109.971 26.3369C109.827 26.6397 109.708 26.9137 109.615 27.1589C109.521 27.3968 109.474 27.5843 109.474 27.7213C109.474 27.8944 109.539 27.9809 109.669 27.9809C109.777 27.9809 109.942 27.9124 110.166 27.7754C110.396 27.6384 110.659 27.4689 110.954 27.267C111.249 27.0579 111.57 26.8308 111.916 26.5856C112.261 26.3405 112.607 26.1097 112.953 25.8934L115.761 24.1304Z"
    fill="#2B312F" />
  <path
    d="M127.913 25.0281C126.797 25.6699 125.85 26.2287 125.072 26.7046C124.294 27.1733 123.632 27.5627 123.084 27.8727C122.537 28.1756 122.073 28.4027 121.691 28.5542C121.317 28.6984 120.975 28.7705 120.665 28.7705C120.362 28.7705 120.103 28.7344 119.887 28.6623C119.678 28.5902 119.506 28.4929 119.369 28.3703C119.232 28.2477 119.131 28.0999 119.066 27.9268C119.009 27.7538 118.98 27.5663 118.98 27.3644C118.98 27.213 119.012 27.0579 119.077 26.8993C119.142 26.7407 119.221 26.5784 119.315 26.4126C119.415 26.2467 119.52 26.0737 119.628 25.8934C119.736 25.7059 119.837 25.5077 119.93 25.2985L121.572 21.6211L115.772 25.0281C115.678 25.0642 115.613 25.0822 115.577 25.0822C115.491 25.0822 115.415 25.0534 115.35 24.9957C115.278 24.938 115.242 24.8623 115.242 24.7686C115.242 24.682 115.282 24.5847 115.361 24.4765C115.433 24.3684 115.57 24.253 115.772 24.1304L118.569 22.4972C118.937 22.2809 119.307 22.0646 119.682 21.8483C120.056 21.6319 120.406 21.43 120.73 21.2426C121.061 21.0551 121.356 20.8892 121.615 20.745C121.882 20.5936 122.087 20.4782 122.231 20.3989H123.625C123.653 20.4205 123.679 20.4566 123.7 20.5071C123.722 20.5575 123.733 20.6333 123.733 20.7342C123.733 20.9217 123.679 21.1885 123.571 21.5346C123.462 21.8735 123.326 22.2557 123.16 22.6811C123.002 23.1065 122.822 23.5536 122.62 24.0223C122.426 24.4837 122.242 24.9236 122.069 25.3418C121.896 25.7528 121.716 26.1638 121.529 26.5748C121.342 26.9858 121.155 27.4077 120.967 27.8403C121.162 27.8403 121.468 27.743 121.885 27.5483C122.31 27.3536 122.822 27.0904 123.419 26.7587C124.024 26.4198 124.705 26.0268 125.461 25.5798C126.224 25.1255 127.041 24.6424 127.913 24.1304C127.942 24.1016 127.996 24.0872 128.075 24.0872C128.161 24.0872 128.24 24.116 128.312 24.1737C128.392 24.2314 128.431 24.3107 128.431 24.4116C128.431 24.4982 128.392 24.5955 128.312 24.7037C128.24 24.8046 128.107 24.9128 127.913 25.0281ZM124.932 16.6133C124.975 16.6133 125.054 16.6169 125.169 16.6241C125.292 16.6241 125.428 16.6314 125.58 16.6458C125.731 16.6602 125.889 16.6854 126.055 16.7215C126.221 16.7503 126.372 16.7972 126.509 16.8621C126.645 16.9198 126.761 16.9955 126.854 17.0892C126.948 17.183 126.998 17.2983 127.005 17.4353L125.439 18.6251L124.726 18.9604C124.597 18.9604 124.496 18.9243 124.424 18.8522C124.352 18.7801 124.298 18.7044 124.262 18.6251L124.932 16.6133Z"
    fill="#2B312F" />
  <path
    d="M140.021 20.7775C140.021 20.9577 139.989 21.1705 139.924 21.4156C139.859 21.6536 139.777 21.9095 139.676 22.1835C139.575 22.4503 139.467 22.7243 139.352 23.0056C139.236 23.2868 139.128 23.5608 139.028 23.8276C138.927 24.0872 138.844 24.3323 138.779 24.5631C138.714 24.7938 138.682 24.9885 138.682 25.1471C138.682 25.2841 138.711 25.3923 138.768 25.4716C138.833 25.5509 138.934 25.5906 139.071 25.5906C139.172 25.5906 139.312 25.5545 139.492 25.4824C139.679 25.4031 139.895 25.2985 140.14 25.1688C140.392 25.0317 140.666 24.8767 140.961 24.7037C141.264 24.5234 141.58 24.3323 141.912 24.1304C141.984 24.0872 142.056 24.0655 142.128 24.0655C142.207 24.0655 142.275 24.0944 142.333 24.1521C142.398 24.2097 142.43 24.2818 142.43 24.3684C142.43 24.4621 142.391 24.5631 142.311 24.6712C142.232 24.7722 142.099 24.8911 141.912 25.0281C140.976 25.7276 140.119 26.2684 139.341 26.6505C138.57 27.0327 137.955 27.2238 137.494 27.2238C137.119 27.2238 136.824 27.1661 136.608 27.0507C136.392 26.9354 136.284 26.7551 136.284 26.5099C136.284 26.2792 136.381 25.9872 136.576 25.6338C136.777 25.2805 137.105 24.8623 137.559 24.3792C137.731 24.0908 137.868 23.7771 137.969 23.4382C138.07 23.0921 138.142 22.7568 138.185 22.4323C138.236 22.1006 138.268 21.7978 138.282 21.5238C138.297 21.2426 138.304 21.019 138.304 20.8532C138.304 20.5792 138.257 20.3701 138.163 20.2259C138.077 20.0744 137.929 19.9987 137.721 19.9987C137.49 19.9987 137.263 20.1033 137.04 20.3124C136.824 20.5143 136.604 20.7955 136.381 21.156C136.165 21.5166 135.949 21.942 135.733 22.4323C135.517 22.9226 135.294 23.4526 135.063 24.0223C134.84 24.5919 134.61 25.1868 134.372 25.8069C134.134 26.427 133.886 27.0507 133.627 27.6781C133.584 27.8006 133.53 27.9268 133.465 28.0566C133.4 28.1864 133.324 28.309 133.238 28.4244C133.159 28.5325 133.065 28.6227 132.957 28.6948C132.856 28.7669 132.748 28.8029 132.633 28.8029C132.359 28.8029 132.154 28.7416 132.017 28.619C131.881 28.4965 131.812 28.2946 131.812 28.0134C131.812 27.934 131.816 27.8511 131.823 27.7646C131.837 27.6781 131.873 27.5771 131.931 27.4617L134.016 23.276C134.289 22.5693 134.581 21.9853 134.891 21.5238C135.207 21.0623 135.492 20.6909 135.744 20.4097C135.153 20.763 134.563 21.1164 133.972 21.4697C133.382 21.823 132.813 22.1655 132.266 22.4972C131.719 22.8217 131.2 23.1317 130.71 23.4274C130.228 23.7158 129.796 23.9718 129.414 24.1953C129.033 24.4188 128.712 24.6027 128.453 24.7469C128.194 24.8911 128.014 24.9849 127.913 25.0281C127.855 25.0642 127.794 25.0822 127.729 25.0822C127.65 25.0822 127.585 25.0534 127.535 24.9957C127.477 24.938 127.448 24.8623 127.448 24.7686C127.448 24.6676 127.484 24.5595 127.556 24.4441C127.621 24.3215 127.74 24.2097 127.913 24.1088L130.797 22.4215C131.171 22.198 131.549 21.9744 131.931 21.7509C132.313 21.5202 132.669 21.3075 133 21.1128C133.339 20.9181 133.638 20.745 133.897 20.5936C134.156 20.4422 134.354 20.3268 134.491 20.2475C134.837 20.0456 135.171 19.8725 135.495 19.7283C135.827 19.5841 136.154 19.4651 136.478 19.3714C136.802 19.2777 137.13 19.2055 137.461 19.1551C137.8 19.1046 138.153 19.0685 138.52 19.0469C138.678 19.0469 138.844 19.0974 139.017 19.1983C139.197 19.2921 139.359 19.4219 139.503 19.5877C139.654 19.7463 139.777 19.9302 139.87 20.1393C139.971 20.3412 140.021 20.5539 140.021 20.7775Z"
    fill="#2B312F" />
  <path
    d="M55.989 49.3863C56.2296 49.2273 56.4726 49.0659 56.7181 48.9021C56.9298 48.7623 57.1584 48.6106 57.4038 48.4467C57.6492 48.2829 57.8802 48.1239 58.0967 47.9697C58.424 47.7432 58.7512 47.4903 59.0784 47.2108C59.4056 46.9313 59.7064 46.6687 59.9807 46.423C60.2935 46.1339 60.599 45.8423 60.8974 45.5484L61.6408 44.4715C61.7371 44.3558 61.8357 44.2233 61.9368 44.074C62.0426 43.9198 62.1413 43.7728 62.2327 43.6331C62.3386 43.4741 62.4421 43.3102 62.5431 43.1416C62.4757 42.9392 62.4276 42.7151 62.3987 42.4694C62.3699 42.2188 62.3554 41.949 62.3554 41.6599C62.3554 41.2551 62.3843 40.8215 62.4421 40.3589C62.4998 39.8963 62.5816 39.4265 62.6875 38.9495C62.7981 38.4725 62.9305 37.9978 63.0845 37.5256C63.2385 37.0486 63.4117 36.5933 63.6042 36.1596C63.7967 35.7211 64.006 35.3164 64.2321 34.9453C64.4583 34.5695 64.6989 34.2442 64.954 33.9696C65.209 33.6949 65.4737 33.4805 65.748 33.3263C66.0271 33.1673 66.3134 33.0878 66.6069 33.0878C66.9438 33.0878 67.2325 33.1264 67.4731 33.2034C67.7137 33.2805 67.9086 33.3914 68.0578 33.5359C68.2069 33.6757 68.3152 33.8443 68.3826 34.0419C68.4548 34.2394 68.4909 34.4611 68.4909 34.7068C68.4909 34.9911 68.45 35.2995 68.3681 35.632C68.2863 35.9644 68.1709 36.3138 68.0217 36.68C67.8773 37.0414 67.7065 37.4148 67.5092 37.8003C67.3119 38.1809 67.0977 38.564 66.8668 38.9495C66.6358 39.335 66.3928 39.7156 66.1377 40.0915C65.8875 40.4673 65.6349 40.8287 65.3798 41.1756C65.1248 41.5226 64.8722 41.8502 64.6219 42.1586C64.3765 42.467 64.1455 42.7441 63.929 42.9898C63.9675 43.3512 64.0349 43.7029 64.1311 44.045C64.2273 44.3823 64.3573 44.6835 64.5209 44.9485C64.6845 45.2087 64.8842 45.4183 65.12 45.5773C65.3606 45.7315 65.6421 45.8086 65.9645 45.8086C66.1329 45.8086 66.2893 45.7773 66.4337 45.7146C66.578 45.6472 66.7104 45.5605 66.8307 45.4545C66.8066 45.2232 66.7874 44.9991 66.7729 44.7823C66.7585 44.5606 66.7513 44.3414 66.7513 44.1245C66.7513 43.8162 66.7753 43.5198 66.8235 43.2355C66.8716 42.9464 66.9414 42.691 67.0328 42.4694C67.129 42.2477 67.2421 42.0719 67.372 41.9418C67.5068 41.8069 67.6608 41.7394 67.834 41.7394C68.0313 41.7394 68.1733 41.831 68.2599 42.0141C68.3513 42.1972 68.397 42.4309 68.397 42.7151C68.397 43.1247 68.3224 43.568 68.1733 44.045C68.0289 44.5221 67.7931 44.9871 67.4659 45.44C67.5381 45.7773 67.6199 46.1049 67.7113 46.423C67.8075 46.741 67.8966 47.0277 67.9784 47.2831C68.065 47.5336 68.1372 47.7456 68.1949 47.9191C68.2575 48.0878 68.2887 48.1938 68.2887 48.2371C68.2887 48.3046 68.2743 48.3696 68.2454 48.4323C68.2214 48.4901 68.1877 48.5431 68.1444 48.5913C68.1011 48.6347 68.053 48.6708 68 48.6997C67.9471 48.7286 67.8918 48.7431 67.834 48.7431C67.7907 48.7431 67.7354 48.7238 67.668 48.6852C67.6054 48.6467 67.5332 48.5407 67.4514 48.3672C67.3696 48.1889 67.283 47.9191 67.1916 47.5577C67.1002 47.1915 67.0063 46.6832 66.9101 46.0327C66.7561 46.1531 66.5925 46.2495 66.4193 46.3218C66.2508 46.3892 66.0656 46.423 65.8635 46.423C65.6758 46.423 65.4809 46.3892 65.2788 46.3218C64.7735 46.1435 64.3549 45.8592 64.0228 45.4689C63.6908 45.0786 63.4309 44.616 63.2433 44.0812C62.8198 44.6498 62.4252 45.2111 62.0595 45.7652C61.6938 46.3146 61.3738 46.847 61.0995 47.3626C60.83 47.8782 60.6159 48.3721 60.4571 48.8443C60.3031 49.3117 60.2261 49.7429 60.2261 50.138C60.2261 50.5572 60.3175 50.9186 60.5004 51.2222C60.688 51.5209 60.9455 51.7691 61.2727 51.9666C61.6047 52.1594 61.9945 52.3015 62.4421 52.3931C62.8896 52.4846 63.378 52.5304 63.9073 52.5304C64.4415 52.5304 65.0045 52.4846 65.5964 52.3931C66.1931 52.3015 66.7922 52.1714 67.3937 52.0028C68 51.8293 68.5991 51.6197 69.191 51.374C69.7877 51.1234 70.3555 50.8415 70.8945 50.5283C71.4335 50.2103 71.9339 49.8634 72.3959 49.4875C72.8578 49.1069 73.2572 48.7021 73.5941 48.2733C73.9309 47.8444 74.1956 47.3915 74.3881 46.9145C74.5806 46.4374 74.6768 45.9411 74.6768 45.4255C74.6768 45.3581 74.6768 45.2954 74.6768 45.2376C74.6768 45.175 74.672 45.1099 74.6624 45.0425C74.4362 44.9846 74.2028 44.922 73.9622 44.8546C73.7216 44.7823 73.4834 44.7172 73.2476 44.6594C73.0118 44.5968 72.7808 44.5462 72.5547 44.5076C72.3333 44.4643 72.1288 44.4426 71.9411 44.4426C71.7968 44.4426 71.6765 44.457 71.5802 44.4859C71.484 44.5149 71.3998 44.551 71.3276 44.5944C71.2602 44.6377 71.1977 44.6859 71.1399 44.7389C71.0822 44.7919 71.0196 44.8401 70.9522 44.8835C70.8849 44.9268 70.8031 44.963 70.7068 44.9919C70.6154 45.0208 70.4999 45.0352 70.3604 45.0352C70.2641 45.0352 70.1823 45.0184 70.1149 44.9847C70.0476 44.9461 69.9898 44.8979 69.9417 44.8401C69.8984 44.7823 69.8647 44.7196 69.8406 44.6522C69.8214 44.5847 69.8118 44.5197 69.8118 44.457C69.8118 44.245 69.8767 44.074 70.0067 43.9439C70.1366 43.8138 70.293 43.7126 70.4758 43.6403C70.6635 43.568 70.856 43.5198 71.0533 43.4957C71.2506 43.4716 71.4166 43.4596 71.5513 43.4596C71.8112 43.4596 72.0638 43.4933 72.3093 43.5608C72.5547 43.6234 72.7953 43.7029 73.0311 43.7993C73.2717 43.8909 73.5075 43.9945 73.7384 44.1101C73.9694 44.2209 74.2004 44.3245 74.4314 44.4209C74.6672 44.5124 74.9006 44.5919 75.1315 44.6594C75.3673 44.722 75.6079 44.7534 75.8534 44.7534C75.9881 44.7534 76.1108 44.7245 76.2215 44.6666C76.337 44.604 76.4477 44.5365 76.5535 44.4643C76.6594 44.3872 76.7653 44.3197 76.8711 44.2619C76.977 44.1992 77.0925 44.1679 77.2176 44.1679C77.3475 44.1679 77.4365 44.1944 77.4847 44.2474C77.5328 44.3004 77.5568 44.3679 77.5568 44.4498C77.5568 44.5654 77.4943 44.6739 77.3692 44.775C77.2441 44.8714 77.0925 44.9557 76.9144 45.028C76.7412 45.1003 76.5607 45.1581 76.3731 45.2015C76.1854 45.24 76.0266 45.2593 75.8967 45.2593C75.7667 45.2593 75.6248 45.2473 75.4708 45.2232C75.3216 45.1991 75.1628 45.1678 74.9944 45.1292V45.2015C75.0136 45.3364 75.0281 45.4689 75.0377 45.599C75.0473 45.7291 75.0521 45.8568 75.0521 45.9821C75.0521 46.6133 74.9487 47.2132 74.7418 47.7818C74.5349 48.3455 74.2461 48.8756 73.8756 49.3719C73.5099 49.8682 73.0744 50.3284 72.5691 50.7524C72.0686 51.1716 71.5225 51.5547 70.9306 51.9016C70.3435 52.2485 69.7227 52.5545 69.0683 52.8195C68.4139 53.0845 67.7522 53.3062 67.0833 53.4845C66.4193 53.6676 65.7576 53.8049 65.0983 53.8964C64.4391 53.9928 63.8087 54.041 63.2072 54.041C62.5816 54.041 62.0017 53.988 61.4676 53.882C60.9335 53.7808 60.4691 53.6242 60.0745 53.4122C59.6847 53.2002 59.3768 52.9327 59.1506 52.6099C58.9292 52.2871 58.8185 51.9064 58.8185 51.4679C58.8185 51.2077 58.8619 50.8945 58.9485 50.5283C59.0399 50.1621 59.1554 49.7766 59.2949 49.3719C59.4345 48.9671 59.5909 48.56 59.7641 48.1504C59.9374 47.736 60.1082 47.3553 60.2766 47.0084C60.2622 47.0421 60.1972 47.1072 60.0817 47.2036C59.9662 47.2951 59.8171 47.4083 59.6342 47.5433C59.4561 47.6782 59.254 47.8251 59.0279 47.9842C58.8017 48.1432 58.5683 48.3046 58.3277 48.4684C58.0871 48.6322 57.8489 48.7937 57.6131 48.9527C57.3773 49.1117 57.1608 49.2538 56.9635 49.3791C56.771 49.5044 56.6026 49.6104 56.4582 49.6971C56.3187 49.7839 56.2248 49.8369 56.1767 49.8561C56.1238 49.8899 56.0756 49.9067 56.0323 49.9067C55.9698 49.9067 55.9241 49.8826 55.8952 49.8345C55.8615 49.7863 55.8447 49.7309 55.8447 49.6682C55.8447 49.5478 55.8928 49.4538 55.989 49.3863ZM66.6791 33.6082C66.4 33.6082 66.1426 33.6949 65.9068 33.8684C65.6758 34.0419 65.4641 34.2756 65.2716 34.5695C65.0791 34.8634 64.9058 35.2055 64.7519 35.5958C64.5979 35.9813 64.4607 36.3933 64.3404 36.8318C64.2201 37.2654 64.1167 37.7087 64.03 38.1617C63.9482 38.6146 63.8785 39.0531 63.8207 39.4771C63.7678 39.8963 63.7269 40.289 63.698 40.6552C63.674 41.0214 63.6619 41.3322 63.6619 41.5876V41.8117C63.9266 41.5322 64.2033 41.1973 64.492 40.807C64.7807 40.4167 65.0622 39.9999 65.3365 39.5566C65.6156 39.1133 65.8779 38.6556 66.1233 38.1834C66.3735 37.7111 66.5925 37.251 66.7802 36.8029C66.9678 36.3547 67.117 35.9331 67.2277 35.538C67.3384 35.1429 67.3937 34.7984 67.3937 34.5044C67.3937 34.225 67.3384 34.0057 67.2277 33.8467C67.117 33.6877 66.9341 33.6082 66.6791 33.6082ZM67.7329 43.9149C67.8196 43.6837 67.8845 43.4596 67.9278 43.2428C67.9712 43.0211 67.9928 42.8284 67.9928 42.6645C67.9928 42.5441 67.976 42.4453 67.9423 42.3682C67.9134 42.2911 67.8629 42.2526 67.7907 42.2526C67.7137 42.2526 67.6415 42.2959 67.5742 42.3827C67.5068 42.4694 67.449 42.5826 67.4009 42.7224C67.3528 42.8573 67.3143 43.0139 67.2854 43.1922C67.2566 43.3656 67.2421 43.5391 67.2421 43.7126C67.2421 43.8812 67.2493 44.0571 67.2638 44.2402C67.2782 44.4233 67.3047 44.6088 67.3432 44.7967C67.4346 44.6425 67.5092 44.4908 67.5669 44.3414C67.6247 44.1872 67.68 44.045 67.7329 43.9149Z"
    fill="#2B312F" />
  <path
    d="M113.829 52.4839C113.872 52.4622 113.915 52.4514 113.958 52.4514C114.045 52.4514 114.124 52.4947 114.196 52.5812C114.268 52.6677 114.304 52.7615 114.304 52.8624C114.304 52.9706 114.268 53.0715 114.196 53.1653C114.124 53.259 114.012 53.36 113.861 53.4681C113.71 53.5691 113.515 53.688 113.278 53.825C113.04 53.962 112.756 54.1279 112.425 54.3226C112.223 54.4452 111.949 54.6218 111.604 54.8526C111.265 55.0761 110.883 55.3249 110.459 55.5989C110.041 55.8657 109.594 56.1433 109.119 56.4317C108.644 56.7129 108.169 56.9689 107.693 57.1996C107.218 57.4376 106.757 57.6287 106.311 57.7729C105.864 57.9243 105.461 58 105.101 58C104.878 58 104.673 57.9676 104.485 57.9027C104.305 57.8378 104.15 57.7296 104.021 57.5782C103.891 57.434 103.79 57.2429 103.718 57.0049C103.646 56.7742 103.61 56.4894 103.61 56.1505C103.61 55.6962 103.686 55.1842 103.837 54.6146C103.988 54.0378 104.179 53.4465 104.41 52.8408C104.647 52.2279 104.91 51.615 105.198 51.0021C105.486 50.382 105.771 49.8015 106.052 49.2607C106.332 48.7199 106.592 48.2332 106.829 47.8005C107.067 47.3679 107.251 47.029 107.38 46.7838C106.919 46.7766 106.437 46.7586 105.933 46.7298C105.429 46.6937 104.95 46.6432 104.496 46.5783C104.05 46.5134 103.65 46.4341 103.297 46.3404C102.951 46.2467 102.699 46.1349 102.541 46.0051C101.864 46.8271 101.104 47.6744 100.262 48.5468C99.4266 49.4121 98.53 50.2558 97.5723 51.0778C96.6217 51.8926 95.6208 52.6677 94.5694 53.4032C93.5181 54.1315 92.4415 54.7696 91.3398 55.3176C90.2452 55.8584 89.1326 56.2911 88.0021 56.6156C86.8787 56.9328 85.7661 57.0915 84.6644 57.0915C84.2395 57.0915 83.8326 57.077 83.4438 57.0482C83.0549 57.0194 82.6805 56.9689 82.3204 56.8968C81.9604 56.8247 81.6147 56.7237 81.2835 56.5939C80.9522 56.4641 80.6318 56.2983 80.3221 56.0964C80.1997 56.0171 80.0737 55.9342 79.9441 55.8476C79.8144 55.7611 79.6992 55.6746 79.5984 55.588C79.4904 55.5015 79.404 55.4186 79.3392 55.3393C79.2672 55.2527 79.2275 55.1734 79.2203 55.1013H79.4472C79.4544 55.1013 79.5408 55.1302 79.7064 55.1878C79.8648 55.2455 80.0773 55.3176 80.3437 55.4042C80.6102 55.4907 80.9162 55.588 81.2618 55.6962C81.6075 55.7971 81.9712 55.8909 82.3528 55.9774C82.7417 56.0639 83.1341 56.136 83.5302 56.1937C83.9334 56.2514 84.3187 56.2803 84.686 56.2803C85.6077 56.2803 86.5042 56.118 87.3756 55.7935C88.2541 55.4691 89.111 55.0292 89.9464 54.474C90.7889 53.9116 91.6134 53.259 92.4199 52.5163C93.2336 51.7664 94.0366 50.9732 94.8287 50.1368C95.6208 49.3004 96.4021 48.4423 97.1726 47.5626C97.9504 46.6757 98.7245 45.814 99.495 44.9776C100.266 44.1411 101.036 43.3516 101.807 42.6089C102.577 41.859 103.351 41.2064 104.129 40.6512C104.914 40.0888 105.706 39.6453 106.505 39.3208C107.305 38.9963 108.115 38.8341 108.936 38.8341C109.519 38.8341 110.001 38.9134 110.383 39.0721C110.765 39.2235 111.064 39.429 111.28 39.6886C111.503 39.9482 111.658 40.251 111.744 40.5971C111.838 40.936 111.884 41.2929 111.884 41.6679C111.884 42.0789 111.845 42.5007 111.766 42.9334C111.686 43.366 111.596 43.777 111.496 44.1664C111.395 44.5558 111.298 44.9091 111.204 45.2263C111.11 45.5364 111.049 45.778 111.02 45.951L111.01 46.0375C112.248 45.8212 113.332 45.5328 114.261 45.1723C115.197 44.8045 115.978 44.3935 116.605 43.9392C117.231 43.485 117.699 43.0019 118.009 42.4899C118.326 41.9707 118.484 41.4516 118.484 40.9324C118.484 40.3339 118.272 39.7535 117.847 39.191C117.422 38.6214 116.778 38.1203 115.913 37.6876C115.057 37.2478 113.976 36.898 112.673 36.6385C111.377 36.3717 109.854 36.2383 108.104 36.2383C107.348 36.2383 106.494 36.2815 105.544 36.3681C104.601 36.4474 103.589 36.5555 102.509 36.6925C101.436 36.8295 100.309 36.9846 99.1277 37.1576C97.954 37.3307 96.755 37.511 95.5308 37.6984C94.3066 37.8787 93.0752 38.0554 91.8366 38.2284C90.5981 38.4015 89.3775 38.5565 88.1749 38.6935C86.9795 38.8305 85.8165 38.9423 84.686 39.0288C83.5554 39.1081 82.486 39.1478 81.4779 39.1478C80.6714 39.1478 79.9297 39.1117 79.2528 39.0396C78.5686 38.9603 77.9674 38.8341 77.4489 38.661C77.3697 38.6394 77.2221 38.5637 77.006 38.4339C76.79 38.2969 76.5415 38.1311 76.2607 37.9364C75.9799 37.7417 75.6882 37.5326 75.3858 37.3091C75.0833 37.0855 74.8061 36.8728 74.554 36.6709C74.302 36.469 74.0932 36.2924 73.9276 36.1409C73.7619 35.9823 73.6791 35.8777 73.6791 35.8273C73.6791 35.8056 73.6971 35.7948 73.7331 35.7948C73.7835 35.7948 73.8699 35.8201 73.9924 35.8705C74.1076 35.9138 74.2732 35.9895 74.4892 36.0977C75.5766 36.6529 76.8476 37.0459 78.3022 37.2766C79.7496 37.5001 81.4095 37.6119 83.2818 37.6119C84.2755 37.6119 85.3989 37.5614 86.6519 37.4605C87.9048 37.3595 89.2478 37.2369 90.6809 37.0927C92.1139 36.9413 93.6225 36.7791 95.2067 36.606C96.791 36.433 98.4112 36.2743 100.067 36.1301C101.731 35.9787 103.412 35.8525 105.112 35.7516C106.818 35.6506 108.511 35.6001 110.189 35.6001C111.888 35.6001 113.35 35.7407 114.574 36.022C115.798 36.3032 116.806 36.6817 117.598 37.1576C118.391 37.6263 118.974 38.1671 119.348 38.78C119.723 39.3857 119.91 40.0167 119.91 40.6728C119.91 41.1559 119.813 41.639 119.618 42.1222C119.431 42.6053 119.15 43.0704 118.776 43.5174C118.409 43.9573 117.955 44.3755 117.415 44.7721C116.875 45.1687 116.255 45.5184 115.557 45.8212C114.866 46.1169 114.099 46.362 113.256 46.5567C112.421 46.7514 111.517 46.874 110.545 46.9245C110.48 47.0615 110.351 47.285 110.156 47.595C109.969 47.9051 109.742 48.2728 109.476 48.6983C109.209 49.1165 108.914 49.5744 108.59 50.0719C108.273 50.5622 107.953 51.0634 107.629 51.5753C107.305 52.0873 106.991 52.592 106.689 53.0896C106.386 53.5871 106.116 54.045 105.879 54.4632C105.648 54.8814 105.461 55.2455 105.317 55.5556C105.18 55.8584 105.112 56.0784 105.112 56.2154C105.112 56.4533 105.162 56.6264 105.263 56.7345C105.364 56.8355 105.508 56.886 105.695 56.886C105.926 56.886 106.217 56.8139 106.57 56.6696C106.923 56.5254 107.315 56.3343 107.747 56.0964C108.179 55.8512 108.644 55.5772 109.141 55.2744C109.638 54.9643 110.149 54.647 110.675 54.3226C111.2 53.9909 111.73 53.6664 112.262 53.3491C112.795 53.0319 113.317 52.7434 113.829 52.4839ZM107.823 46.0051C108.032 45.5652 108.262 45.1002 108.514 44.6098C108.774 44.1123 109.015 43.622 109.238 43.1389C109.461 42.6485 109.649 42.1798 109.8 41.7328C109.951 41.2785 110.027 40.8783 110.027 40.5322C110.027 40.2077 109.965 39.977 109.843 39.84C109.721 39.703 109.555 39.6345 109.346 39.6345C109.087 39.6345 108.774 39.7246 108.406 39.9049C108.046 40.0852 107.661 40.3267 107.251 40.6296C106.847 40.9324 106.437 41.2785 106.019 41.6679C105.601 42.0573 105.205 42.4611 104.831 42.8793C104.464 43.2975 104.132 43.7157 103.837 44.1339C103.542 44.5449 103.319 44.9271 103.168 45.2804C103.254 45.3958 103.452 45.5003 103.762 45.5941C104.071 45.6806 104.446 45.7563 104.885 45.8212C105.324 45.8789 105.8 45.9258 106.311 45.9618C106.829 45.9907 107.333 46.0051 107.823 46.0051Z"
    fill="#2B312F" />
  <path
    d="M126.121 52.4839C126.171 52.455 126.225 52.4406 126.283 52.4406C126.369 52.4406 126.449 52.4694 126.521 52.5271C126.593 52.5848 126.629 52.6641 126.629 52.7651C126.629 52.8516 126.589 52.9489 126.51 53.0571C126.438 53.1653 126.308 53.2734 126.121 53.3816C125.754 53.5907 125.35 53.825 124.911 54.0846C124.479 54.337 124.033 54.5966 123.572 54.8634C123.118 55.1302 122.664 55.3934 122.211 55.6529C121.757 55.9125 121.325 56.1505 120.915 56.3668C120.511 56.5831 120.144 56.7706 119.813 56.9292C119.482 57.0806 119.212 57.1852 119.003 57.2429C118.887 57.2789 118.779 57.3006 118.679 57.3078C118.585 57.3222 118.499 57.3294 118.419 57.3294C118.117 57.3294 117.869 57.2537 117.674 57.1023C117.48 56.9509 117.325 56.749 117.21 56.4966C117.102 56.237 117.026 55.9378 116.983 55.5989C116.94 55.2527 116.918 54.8886 116.918 54.5064C116.918 53.9873 116.943 53.4609 116.994 52.9273C117.044 52.3865 117.091 51.889 117.134 51.4347L113.84 53.3816C113.789 53.4104 113.732 53.4248 113.667 53.4248C113.58 53.4248 113.505 53.396 113.44 53.3383C113.375 53.2806 113.343 53.2013 113.343 53.1004C113.343 53.0138 113.379 52.9201 113.451 52.8192C113.523 52.711 113.652 52.5992 113.84 52.4839L117.199 50.5045C117.544 49.3076 117.901 48.2079 118.268 47.2057C118.635 46.2034 119.035 45.2984 119.467 44.4909C119.899 43.6833 120.371 42.973 120.882 42.3601C121.393 41.7472 121.966 41.2389 122.6 40.8351C123.233 40.4241 123.935 40.1176 124.706 39.9157C125.484 39.7066 126.348 39.602 127.298 39.602C127.774 39.602 128.173 39.6453 128.497 39.7318C128.821 39.8111 129.084 39.9301 129.286 40.0888C129.495 40.2402 129.642 40.4241 129.729 40.6404C129.822 40.8567 129.869 41.0946 129.869 41.3542C129.869 41.6787 129.761 42.0284 129.545 42.4034C129.329 42.7711 129.037 43.1533 128.67 43.5499C128.303 43.9465 127.878 44.3503 127.396 44.7613C126.913 45.1651 126.405 45.5652 125.873 45.9618C125.34 46.3584 124.796 46.7406 124.241 47.1083C123.694 47.4761 123.169 47.8186 122.664 48.1358C122.168 48.4531 121.707 48.7379 121.282 48.9903C120.864 49.2427 120.522 49.4482 120.256 49.6068C120.126 50.0611 119.996 50.537 119.867 51.0345C119.737 51.5321 119.618 52.0332 119.51 52.5379C119.41 53.0427 119.327 53.5438 119.262 54.0414C119.197 54.5317 119.165 54.9932 119.165 55.4258C119.165 55.5989 119.179 55.7467 119.208 55.8693C119.244 55.9918 119.302 56.0531 119.381 56.0531C119.518 56.0531 119.719 56.0027 119.986 55.9017C120.259 55.7935 120.573 55.6493 120.925 55.4691C121.278 55.2888 121.664 55.0833 122.081 54.8526C122.506 54.6146 122.945 54.3622 123.399 54.0954C123.853 53.8286 124.31 53.5582 124.771 53.2842C125.232 53.0102 125.682 52.7434 126.121 52.4839ZM120.407 48.6117C120.839 48.381 121.35 48.0782 121.941 47.7032C122.538 47.3282 123.154 46.9172 123.788 46.4702C124.429 46.0159 125.059 45.54 125.678 45.0425C126.297 44.5449 126.852 44.0582 127.342 43.5823C127.838 43.1064 128.238 42.6557 128.541 42.2303C128.843 41.7977 128.994 41.4227 128.994 41.1055C128.994 40.8387 128.854 40.6259 128.573 40.4673C128.299 40.3015 127.849 40.2186 127.223 40.2186C126.236 40.2186 125.383 40.3952 124.663 40.7485C123.943 41.1019 123.316 41.6282 122.783 42.3277C122.258 43.0271 121.804 43.9032 121.422 44.9559C121.048 46.0015 120.709 47.2201 120.407 48.6117Z"
    fill="#2B312F" />
  <path
    d="M138.273 53.3816C137.157 54.0233 136.21 54.5822 135.432 55.0581C134.654 55.5267 133.992 55.9161 133.444 56.2262C132.897 56.529 132.433 56.7562 132.051 56.9076C131.677 57.0518 131.335 57.1239 131.025 57.1239C130.722 57.1239 130.463 57.0878 130.247 57.0157C130.038 56.9436 129.866 56.8463 129.729 56.7237C129.592 56.6011 129.491 56.4533 129.426 56.2803C129.369 56.1072 129.34 55.9197 129.34 55.7178C129.34 55.5664 129.372 55.4114 129.437 55.2527C129.502 55.0941 129.581 54.9319 129.675 54.766C129.776 54.6002 129.88 54.4271 129.988 54.2469C130.096 54.0594 130.197 53.8611 130.29 53.652L131.932 49.9746L126.132 53.3816C126.038 53.4176 125.973 53.4357 125.937 53.4357C125.851 53.4357 125.775 53.4068 125.711 53.3491C125.638 53.2914 125.602 53.2157 125.602 53.122C125.602 53.0355 125.642 52.9381 125.721 52.83C125.793 52.7218 125.93 52.6064 126.132 52.4839L128.929 50.8506C129.297 50.6343 129.668 50.418 130.042 50.2017C130.416 49.9854 130.766 49.7835 131.09 49.596C131.421 49.4085 131.716 49.2427 131.975 49.0985C132.242 48.947 132.447 48.8317 132.591 48.7523H133.985C134.013 48.774 134.039 48.81 134.06 48.8605C134.082 48.911 134.093 48.9867 134.093 49.0876C134.093 49.2751 134.039 49.5419 133.931 49.888C133.823 50.2269 133.686 50.6091 133.52 51.0345C133.362 51.4599 133.182 51.907 132.98 52.3757C132.786 52.8372 132.602 53.277 132.429 53.6952C132.256 54.1063 132.076 54.5173 131.889 54.9283C131.702 55.3393 131.515 55.7611 131.327 56.1937C131.522 56.1937 131.828 56.0964 132.245 55.9017C132.67 55.707 133.182 55.4438 133.779 55.1121C134.384 54.7732 135.065 54.3803 135.821 53.9332C136.584 53.4789 137.401 52.9958 138.273 52.4839C138.302 52.455 138.356 52.4406 138.435 52.4406C138.521 52.4406 138.6 52.4694 138.672 52.5271C138.752 52.5848 138.791 52.6641 138.791 52.7651C138.791 52.8516 138.752 52.9489 138.672 53.0571C138.6 53.1581 138.467 53.2662 138.273 53.3816ZM135.292 44.9668C135.335 44.9668 135.414 44.9704 135.529 44.9776C135.652 44.9776 135.788 44.9848 135.94 44.9992C136.091 45.0136 136.249 45.0389 136.415 45.0749C136.581 45.1038 136.732 45.1506 136.869 45.2155C137.005 45.2732 137.121 45.3489 137.214 45.4427C137.308 45.5364 137.358 45.6518 137.365 45.7888L135.799 46.9785L135.086 47.3138C134.957 47.3138 134.856 47.2778 134.784 47.2057C134.712 47.1336 134.658 47.0578 134.622 46.9785L135.292 44.9668Z"
    fill="#2B312F" />
  <path
    d="M151.332 49.9205C151.058 49.9205 150.716 49.9998 150.306 50.1584C149.895 50.3098 149.445 50.5226 148.956 50.7966C148.466 51.0634 147.955 51.3806 147.422 51.7484C146.896 52.1161 146.378 52.5163 145.866 52.9489C145.362 53.3816 144.88 53.8395 144.419 54.3226C143.965 54.7985 143.569 55.278 143.231 55.7611C143.195 55.7971 143.177 55.8801 143.177 56.0099C143.177 56.1324 143.155 56.2622 143.112 56.3992C143.076 56.5362 143 56.6588 142.885 56.767C142.77 56.8751 142.579 56.9292 142.313 56.9292C142.125 56.9292 141.978 56.9076 141.87 56.8643C141.769 56.8211 141.69 56.7634 141.632 56.6913C141.582 56.612 141.549 56.5218 141.535 56.4209C141.52 56.3127 141.513 56.1937 141.513 56.0639C141.513 55.9342 141.549 55.7431 141.621 55.4907C141.693 55.2383 141.787 54.9463 141.902 54.6146C142.017 54.2829 142.147 53.926 142.291 53.5438C142.435 53.1617 142.579 52.7795 142.723 52.3973C142.874 52.0152 143.015 51.6438 143.144 51.2833C143.281 50.9228 143.396 50.5983 143.49 50.3098L138.273 53.3816C138.237 53.3888 138.208 53.396 138.186 53.4032C138.158 53.4032 138.136 53.4032 138.122 53.4032C138.021 53.4032 137.949 53.378 137.906 53.3275C137.855 53.2698 137.83 53.2013 137.83 53.122C137.83 53.021 137.87 52.9129 137.949 52.7975C138.021 52.6749 138.129 52.5704 138.273 52.4839C139.353 51.8421 140.242 51.3157 140.941 50.9047C141.646 50.4865 142.212 50.1512 142.637 49.8988C143.062 49.6465 143.378 49.459 143.587 49.3364C143.803 49.2138 143.965 49.1237 144.073 49.066C144.174 49.0083 144.264 48.9687 144.343 48.947C144.43 48.9254 144.523 48.9146 144.624 48.9146C144.833 48.9146 145.002 48.9759 145.132 49.0985C145.269 49.221 145.337 49.358 145.337 49.5095C145.337 49.6609 145.29 49.87 145.197 50.1368C145.103 50.3964 144.988 50.6812 144.851 50.9913C144.714 51.3013 144.574 51.6186 144.43 51.9431C144.286 52.2603 144.163 52.556 144.062 52.83C144.019 52.9381 143.983 53.0283 143.954 53.1004C143.933 53.1653 143.904 53.241 143.868 53.3275C143.839 53.414 143.796 53.5258 143.738 53.6628C143.681 53.7926 143.598 53.9765 143.49 54.2144C143.792 53.825 144.145 53.4176 144.549 52.9922C144.959 52.5668 145.402 52.1522 145.877 51.7484C146.36 51.3374 146.871 50.948 147.411 50.5802C147.958 50.2125 148.52 49.8916 149.096 49.6176C149.679 49.3364 150.273 49.1165 150.878 48.9579C151.483 48.792 152.084 48.7091 152.682 48.7091C153.049 48.7091 153.301 48.7884 153.438 48.947C153.582 49.0985 153.654 49.3076 153.654 49.5744C153.654 49.7907 153.615 50.0539 153.535 50.3639C153.456 50.674 153.348 51.0129 153.211 51.3806C153.075 51.7412 152.92 52.1305 152.747 52.5488C152.574 52.9598 152.391 53.378 152.196 53.8034C152.009 54.2216 151.818 54.6434 151.624 55.0689C151.436 55.4943 151.26 55.9017 151.094 56.2911C151.505 56.1252 151.933 55.9089 152.38 55.6421C152.826 55.3753 153.301 55.0761 153.806 54.7444C154.317 54.4127 154.853 54.0558 155.415 53.6736C155.984 53.2842 156.592 52.8877 157.24 52.4839C157.291 52.455 157.359 52.4406 157.446 52.4406C157.618 52.4406 157.705 52.5379 157.705 52.7326C157.705 52.8336 157.665 52.9453 157.586 53.0679C157.507 53.1833 157.392 53.2878 157.24 53.3816C156.383 53.9152 155.609 54.4235 154.918 54.9066C154.227 55.3897 153.593 55.8188 153.017 56.1937C152.448 56.5687 151.926 56.8643 151.451 57.0806C150.983 57.3042 150.547 57.4159 150.144 57.4159C149.899 57.4159 149.69 57.3835 149.517 57.3186C149.344 57.2609 149.2 57.1816 149.085 57.0806C148.977 56.9797 148.894 56.8607 148.837 56.7237C148.786 56.5795 148.761 56.4317 148.761 56.2803C148.761 56.1144 148.794 55.9522 148.858 55.7935C148.93 55.6277 149.028 55.451 149.15 55.2636C149.373 54.7732 149.622 54.2613 149.895 53.7277C150.169 53.1869 150.421 52.6749 150.651 52.1918C150.882 51.7087 151.076 51.2797 151.235 50.9047C151.393 50.5298 151.472 50.2594 151.472 50.0935C151.472 49.9782 151.426 49.9205 151.332 49.9205Z"
    fill="#2B312F" />
  <path
    d="M157.24 53.3816C157.19 53.4104 157.143 53.4248 157.1 53.4248C157.028 53.4248 156.974 53.396 156.938 53.3383C156.902 53.2734 156.884 53.1941 156.884 53.1004C156.884 52.9994 156.909 52.8913 156.96 52.7759C157.01 52.6605 157.104 52.5632 157.24 52.4839L161.237 50.126C161.734 49.8376 162.263 49.5888 162.825 49.3797C163.387 49.1706 163.955 49.0011 164.532 48.8713C165.115 48.7343 165.691 48.637 166.26 48.5793C166.829 48.5144 167.365 48.4819 167.869 48.4819C168.157 48.4819 168.427 48.5036 168.679 48.5468C168.931 48.5829 169.147 48.6406 169.327 48.7199C169.515 48.792 169.659 48.8821 169.76 48.9903C169.868 49.0985 169.922 49.221 169.922 49.358C169.922 49.459 169.886 49.5311 169.814 49.5744C169.742 49.6176 169.655 49.6501 169.554 49.6717C169.461 49.6861 169.36 49.6969 169.252 49.7042C169.151 49.7114 169.072 49.7294 169.014 49.7582C168.971 49.8952 168.903 50.1079 168.809 50.3964C168.715 50.6776 168.622 50.9696 168.528 51.2725C168.435 51.5681 168.348 51.8349 168.269 52.0729C168.197 52.3036 168.157 52.437 168.15 52.473C168.056 52.7759 167.927 53.1617 167.761 53.6303C167.603 54.0918 167.426 54.7119 167.232 55.4907C167.239 55.4907 167.318 55.451 167.47 55.3717C167.628 55.2852 167.83 55.1734 168.074 55.0364C168.327 54.8994 168.611 54.7408 168.928 54.5605C169.245 54.3803 169.572 54.1964 169.911 54.0089L172.492 52.4839C172.593 52.4262 172.68 52.3973 172.752 52.3973C172.831 52.3973 172.892 52.4262 172.935 52.4839C172.978 52.5343 173 52.5992 173 52.6785C173 52.7795 172.96 52.8985 172.881 53.0355C172.802 53.1653 172.672 53.2806 172.492 53.3816L166.746 56.7562C166.602 56.8427 166.469 56.904 166.346 56.94C166.224 56.9761 166.112 56.9941 166.011 56.9941C165.867 56.9941 165.745 56.9617 165.644 56.8968C165.543 56.8319 165.46 56.7417 165.396 56.6264C165.331 56.511 165.28 56.3812 165.244 56.237C165.216 56.0856 165.201 55.9269 165.201 55.7611C165.201 55.5808 165.219 55.4006 165.255 55.2203C165.291 55.04 165.338 54.867 165.396 54.7011C165.187 55.1121 164.942 55.4691 164.661 55.7719C164.388 56.0748 164.092 56.3307 163.775 56.5398C163.466 56.7417 163.145 56.8932 162.814 56.9941C162.483 57.0951 162.159 57.1455 161.842 57.1455C161.525 57.1455 161.226 57.0951 160.945 56.9941C160.665 56.8932 160.416 56.7453 160.2 56.5507C159.991 56.3488 159.826 56.1 159.703 55.8044C159.581 55.5087 159.52 55.1662 159.52 54.7768C159.52 54.5461 159.541 54.2901 159.584 54.0089C159.635 53.7277 159.7 53.4429 159.779 53.1544C159.858 52.866 159.948 52.5848 160.049 52.3108C160.15 52.0296 160.254 51.7736 160.362 51.5429L157.24 53.3816ZM167.059 49.4013C166.483 49.4013 165.932 49.4986 165.406 49.6933C164.881 49.888 164.391 50.144 163.937 50.4613C163.491 50.7785 163.084 51.1427 162.717 51.5537C162.357 51.9575 162.047 52.3757 161.788 52.8083C161.536 53.2338 161.338 53.6556 161.194 54.0738C161.057 54.492 160.989 54.867 160.989 55.1987C160.989 55.5664 161.068 55.8657 161.226 56.0964C161.392 56.3199 161.658 56.4317 162.026 56.4317C162.242 56.4317 162.476 56.3668 162.728 56.237C162.987 56.1 163.246 55.9233 163.505 55.707C163.772 55.4835 164.031 55.2347 164.283 54.9607C164.542 54.6795 164.78 54.3983 164.996 54.1171C165.212 53.8286 165.399 53.551 165.558 53.2842C165.723 53.0102 165.842 52.7723 165.914 52.5704L167.059 49.4013Z"
    fill="#2B312F" />
</svg>