<svg preserveAspectRatio="none" width="100%" height="100%" overflow="visible" style="display: block;" viewBox="0 0 796 214.108" fill="none" xmlns="http://www.w3.org/2000/svg">
<g id="Wedding">
<path d="M43.421 129.295L50.3254 118.463L57.3065 107.938C55.721 107.426 53.931 106.734 51.9364 105.863L43.421 129.295ZM8.13184 41.1777C8.13184 45.2237 8.72 49.4234 9.8963 53.7768C11.0215 58.1302 12.8371 62.4835 15.3431 66.8369C17.8491 71.1902 21.0968 75.4924 25.086 79.7433C29.1263 83.9942 33.985 88.0403 39.6619 91.8815L50.4021 61.3824C52.8058 54.4682 54.6214 49.0393 55.8489 45.0957C57.3832 40.3326 58.1504 35.8256 58.1504 31.5747C58.1504 27.3237 57.6133 23.6874 56.5393 20.6657C55.5164 17.5927 54.11 15.0831 52.32 13.1369C50.5299 11.1395 48.4586 9.67982 46.106 8.75793C43.8046 7.83605 41.3497 7.3751 38.7413 7.3751C35.2124 7.3751 31.6324 8.16895 28.0012 9.75665C24.4211 11.3443 21.1479 13.6235 18.1816 16.594C15.2152 19.5133 12.8115 23.0728 10.9703 27.2725C9.078 31.421 8.13184 36.0561 8.13184 41.1777ZM54.0077 100.102C54.9794 100.614 56.0535 101.152 57.2298 101.715L60.6052 103.175L74.5675 83.354L87.916 65.3004L100.037 49.4747L110.24 36.2609L117.988 26.1202C120.136 23.3033 121.696 21.101 122.668 19.5133L123.282 18.5914L124.739 16.4403L126.504 13.982C127.066 13.2137 127.501 12.676 127.808 12.3687L129.112 10.9858C129.777 11.2931 130.288 11.6772 130.646 12.1382C131.056 12.5991 131.337 13.0601 131.49 13.521C131.695 13.982 131.823 14.4429 131.874 14.9039C131.925 15.3136 131.951 15.6721 131.951 15.9794L132.181 19.8974C132.283 21.69 132.36 23.585 132.411 25.5824C132.513 27.5798 132.564 29.6797 132.564 31.882C132.564 39.1034 132.36 46.6066 131.951 54.3914C131.542 62.125 131.004 69.9098 130.34 77.7459C129.726 85.5819 129.035 93.3668 128.268 101.1L125.89 123.379L131.797 109.858L138.855 94.8008L146.68 78.6678L154.812 62.4579L162.79 46.709L170.232 32.1124L176.753 19.5133L181.892 9.44935C182.915 7.45193 183.913 5.86423 184.884 4.68626C185.907 3.45708 186.981 2.50958 188.106 1.84378C189.283 1.12675 190.51 0.6402 191.789 0.38412C193.118 0.12804 194.576 0 196.162 0C197.9 0 199.435 0.332904 200.764 0.998712C202.094 1.6133 203.219 2.43276 204.14 3.45708C205.061 4.43018 205.751 5.55694 206.211 6.83734C206.672 8.06652 206.902 9.2957 206.902 10.5249C206.902 11.6004 206.723 12.6504 206.365 13.6747C206.058 14.6478 205.546 15.5184 204.83 16.2867C204.114 17.0549 203.219 17.6695 202.145 18.1305C201.071 18.5914 199.818 18.8219 198.386 18.8219C196.647 18.8219 194.755 19.6413 192.709 21.2802C190.664 22.9192 188.516 25.0702 186.265 27.7335C184.066 30.3455 181.841 33.3416 179.591 36.7219L172.993 47.1699L166.933 57.3875L161.87 66.2223L152.204 86.1965L141.924 107.861L130.877 131.676L119.293 158.027C118.474 159.871 117.477 161.458 116.301 162.79C115.176 164.122 113.974 164.839 112.695 164.941C111.365 164.941 110.317 164.531 109.55 163.712C108.834 162.944 108.297 161.817 107.939 160.332C107.581 158.898 107.351 157.156 107.248 155.108C107.197 153.11 107.172 150.882 107.172 148.424C107.172 143.405 107.299 138.027 107.555 132.291C107.811 126.504 108.169 120.614 108.629 114.621C109.089 108.629 109.601 102.662 110.163 96.7214C110.726 90.7803 111.289 85.0954 111.851 79.6665C112.465 74.1864 113.053 69.0904 113.616 64.3785C114.178 59.6666 114.69 55.5694 115.15 52.0867L116.301 43.9433C116.556 42.1508 116.71 41.1777 116.761 41.024L101.111 62.1506L93.7463 72.1377L85.5378 83.1236L77.0224 94.6472L68.5069 106.248C72.8542 107.835 77.3292 109.295 81.9322 110.627C86.5862 111.958 91.6239 113.187 97.0451 114.314L96.1245 116.312C90.3964 115.748 85.0008 114.98 79.9376 114.007C74.8743 113.034 70.0157 111.881 65.3616 110.55L38.281 146.887L34.2151 152.419C32.7831 154.467 31.2999 156.388 29.7656 158.181C28.2824 160.024 26.7993 161.561 25.3161 162.79C23.8329 164.019 22.4521 164.634 21.1735 164.634C20.7643 164.634 20.2529 164.531 19.6392 164.327C19.0254 164.173 18.4373 163.917 17.8747 163.558C17.3121 163.2 16.8263 162.79 16.4171 162.329C16.008 161.868 15.8034 161.356 15.8034 160.793C15.8034 160.639 16.3148 159.077 17.3377 156.106L28.3847 124.148L37.2837 98.642C30.7373 94.7496 25.1115 90.4731 20.4063 85.8124C15.7011 81.1517 11.8398 76.3118 8.82228 71.2927C5.80481 66.2735 3.58006 61.2031 2.14803 56.0815C0.716011 50.9087 0 45.8895 0 41.024C0 34.622 1.25302 28.9883 3.75906 24.1227C6.2651 19.2572 9.53829 15.1855 13.5786 11.9077C17.5678 8.6299 22.0941 6.14592 27.1573 4.45579C32.1694 2.81688 37.207 1.99742 42.2702 1.99742C46.6175 1.99742 50.7857 2.61202 54.7749 3.8412C58.8152 5.07038 62.3697 6.91416 65.4383 9.37253C68.5581 11.8309 71.0386 14.9039 72.8797 18.5914C74.7209 22.279 75.6415 26.6067 75.6415 31.5747C75.6415 34.6476 75.2835 37.9254 74.5675 41.4081C73.9537 44.7372 72.8797 48.4759 71.3454 52.6244L54.0077 100.102Z" fill="url(#paint0_linear_68_17)"/>
<path d="M158.341 114.621C157.829 114.98 157.241 115.159 156.576 115.159C155.911 115.159 155.374 114.98 154.965 114.621C154.556 114.212 154.352 113.7 154.352 113.085C154.352 112.419 154.658 111.676 155.272 110.857C155.835 109.986 156.858 109.116 158.341 108.245L177.75 96.7982C179.182 92.7522 181.023 89.2695 183.273 86.3502C185.575 83.3796 188.081 80.9469 190.791 79.0519C193.553 77.1057 196.417 75.6716 199.384 74.7497C202.401 73.7766 205.316 73.2901 208.129 73.2901C210.993 73.2901 213.346 74.0583 215.187 75.5948C217.079 77.0801 218.025 79.4104 218.025 82.5858C218.025 84.532 217.309 86.5806 215.877 88.7317C214.497 90.8316 212.579 92.9314 210.124 95.0313C207.72 97.0799 204.882 99.0005 201.608 100.793C198.335 102.586 194.857 104.097 191.175 105.326C191.175 107.784 191.124 110.114 191.022 112.317C190.97 114.519 190.945 116.593 190.945 118.539C190.945 120.178 190.996 121.689 191.098 123.072C191.201 124.404 191.405 125.556 191.712 126.529C192.07 127.451 192.53 128.194 193.093 128.757C193.707 129.269 194.474 129.525 195.394 129.525C196.826 129.525 198.54 128.962 200.534 127.835C202.58 126.657 205.137 125.172 208.206 123.379C210.968 121.74 214.497 119.692 218.793 117.233C223.089 114.775 228.331 111.779 234.519 108.245C234.724 108.091 235.005 108.015 235.363 108.015C235.926 108.015 236.412 108.271 236.821 108.783C237.281 109.244 237.511 109.833 237.511 110.55C237.511 111.164 237.281 111.83 236.821 112.547C236.412 113.264 235.644 113.956 234.519 114.621C229.456 117.643 224.546 120.716 219.79 123.84C215.034 126.913 210.533 129.73 206.288 132.291C202.094 134.801 198.207 136.875 194.627 138.514C191.047 140.101 187.927 140.895 185.268 140.895C183.478 140.895 181.892 140.511 180.512 139.743C179.182 138.975 178.031 137.745 177.059 136.055C176.139 134.365 175.423 132.163 174.911 129.448C174.451 126.683 174.221 123.328 174.221 119.384C174.221 118.77 174.246 117.797 174.298 116.465C174.4 115.082 174.528 113.623 174.681 112.086C174.886 110.499 175.116 108.962 175.372 107.477C175.627 105.991 175.934 104.839 176.292 104.02C175.934 104.225 175.397 104.532 174.681 104.942C174.016 105.351 173.224 105.838 172.303 106.401C171.382 106.913 170.411 107.477 169.388 108.091C168.365 108.706 167.342 109.321 166.319 109.935L158.341 114.621ZM209.74 83.2004C209.842 82.8931 209.894 82.5602 209.894 82.2017C209.894 80.9213 209.663 79.9738 209.203 79.3592C208.794 78.7446 208.078 78.4373 207.055 78.4373C205.879 78.4373 204.524 78.8982 202.989 79.8201C201.455 80.6908 199.946 81.9968 198.463 83.7382C197.031 85.4795 195.727 87.6562 194.551 90.2682C193.425 92.8802 192.658 95.8763 192.249 99.2566C194.346 98.1811 196.392 96.9519 198.386 95.569C200.381 94.135 202.171 92.7009 203.756 91.2669C205.393 89.7816 206.723 88.3476 207.746 86.9648C208.82 85.5307 209.484 84.2759 209.74 83.2004Z" fill="url(#paint1_linear_68_17)"/>
<path d="M253.161 121.075C253.161 119.18 253.724 116.901 254.849 114.237C256.025 111.574 257.534 108.86 259.375 106.094C261.267 103.328 263.39 100.691 265.742 98.1811C268.095 95.6203 270.448 93.546 272.8 91.9583L234.596 114.621C234.391 114.724 234.212 114.801 234.059 114.852C233.854 114.852 233.675 114.852 233.522 114.852C232.959 114.852 232.525 114.647 232.218 114.237C231.911 113.828 231.758 113.315 231.758 112.701C231.758 111.984 231.988 111.216 232.448 110.396C232.908 109.525 233.624 108.808 234.596 108.245L255.693 95.4154C258.557 93.6741 261.804 91.8303 265.436 89.8841C269.067 87.8866 272.826 86.0685 276.713 84.4296C280.651 82.7907 284.615 81.4334 288.604 80.3579C292.593 79.2311 296.378 78.6678 299.958 78.6678C303.282 78.6678 306.223 79.1799 308.78 80.2042L328.803 39.718C329.314 38.6425 329.851 37.4901 330.414 36.2609C331.027 34.9805 331.795 33.8026 332.715 32.727C333.687 31.6515 334.889 30.7552 336.321 30.0382C337.804 29.2699 339.696 28.8858 341.998 28.8858C342.714 28.8858 343.148 29.1419 343.302 29.6541C343.506 30.115 343.609 30.7296 343.609 31.4978C343.506 32.2149 343.327 33.0343 343.072 33.9562C342.816 34.8269 342.535 35.6975 342.228 36.5682C341.972 37.4389 341.716 38.2327 341.461 38.9498C341.205 39.6668 341 40.2046 340.847 40.5631L317.986 90.345C316.861 93.6741 315.454 97.1311 313.766 100.716C312.13 104.25 310.519 107.707 308.933 111.087C307.399 114.417 306.069 117.541 304.944 120.46C303.87 123.379 303.333 125.863 303.333 127.912C303.333 128.629 303.41 129.32 303.563 129.986C303.768 130.652 304.126 130.985 304.637 130.985C305.302 130.985 306.299 130.729 307.629 130.217C309.01 129.705 310.57 128.987 312.309 128.066C314.048 127.144 315.914 126.068 317.909 124.839C319.955 123.559 321.975 122.201 323.97 120.767L343.916 108.245C344.325 108.04 344.632 107.938 344.836 107.938C345.245 107.938 345.552 108.143 345.757 108.552C346.012 108.962 346.14 109.449 346.14 110.012C346.14 110.883 345.936 111.753 345.527 112.624C345.169 113.443 344.632 114.109 343.916 114.621C341 116.568 337.983 118.591 334.863 120.69C331.795 122.739 328.7 124.788 325.581 126.836C322.461 128.834 319.392 130.754 316.375 132.598C313.408 134.442 310.544 136.132 307.783 137.669C303.845 139.871 300.316 140.972 297.196 140.972C295.15 140.972 293.769 140.409 293.053 139.282C292.337 138.155 291.979 136.695 291.979 134.903C291.979 133.827 292.056 132.726 292.209 131.599C292.414 130.422 292.695 129.167 293.053 127.835C291.672 129.833 290.087 131.625 288.297 133.213C286.507 134.8 284.589 136.158 282.543 137.284C280.549 138.411 278.452 139.256 276.253 139.82C274.104 140.434 272.008 140.742 269.962 140.742C267.712 140.742 265.564 140.383 263.518 139.666C261.472 138.898 259.682 137.72 258.148 136.132C256.613 134.493 255.386 132.445 254.465 129.986C253.596 127.528 253.161 124.557 253.161 121.075ZM303.18 94.3399C303.384 93.7765 303.64 93.0851 303.947 92.2656C304.305 91.4462 304.637 90.6523 304.944 89.8841C305.302 89.1158 305.583 88.4244 305.788 87.8098C306.044 87.144 306.172 86.6831 306.172 86.427C306.172 86.1197 305.583 85.8892 304.407 85.7356C303.231 85.5819 301.671 85.5051 299.727 85.5051C297.17 85.5051 294.562 86.1965 291.902 87.5793C289.294 88.911 286.737 90.6779 284.231 92.8802C281.776 95.0825 279.449 97.6177 277.25 100.486C275.102 103.303 273.209 106.222 271.573 109.244C269.987 112.214 268.709 115.159 267.737 118.078C266.817 120.998 266.356 123.635 266.356 125.991C266.356 129.167 266.893 131.446 267.967 132.829C269.041 134.16 270.448 134.826 272.187 134.826C274.539 134.826 277.071 133.827 279.781 131.83C282.543 129.833 285.305 127.067 288.067 123.533C290.828 119.948 293.514 115.671 296.122 110.703C298.73 105.735 301.083 100.281 303.18 94.3399Z" fill="url(#paint2_linear_68_17)"/>
<path d="M362.557 121.075C362.557 119.18 363.12 116.901 364.245 114.237C365.421 111.574 366.93 108.86 368.771 106.094C370.664 103.328 372.786 100.691 375.139 98.1811C377.491 95.6203 379.844 93.546 382.197 91.9583L343.992 114.621C343.788 114.724 343.609 114.801 343.455 114.852C343.251 114.852 343.072 114.852 342.918 114.852C342.356 114.852 341.921 114.647 341.614 114.237C341.307 113.828 341.154 113.315 341.154 112.701C341.154 111.984 341.384 111.216 341.844 110.396C342.305 109.525 343.021 108.808 343.992 108.245L365.089 95.4154C367.953 93.6741 371.201 91.8303 374.832 89.8841C378.463 87.8866 382.222 86.0685 386.109 84.4296C390.047 82.7907 394.011 81.4334 398 80.3579C401.989 79.2311 405.774 78.6678 409.354 78.6678C412.678 78.6678 415.619 79.1799 418.176 80.2042L438.199 39.718C438.71 38.6425 439.247 37.4901 439.81 36.2609C440.424 34.9805 441.191 33.8026 442.111 32.727C443.083 31.6515 444.285 30.7552 445.717 30.0382C447.2 29.2699 449.093 28.8858 451.394 28.8858C452.11 28.8858 452.545 29.1419 452.698 29.6541C452.903 30.115 453.005 30.7296 453.005 31.4978C452.903 32.2149 452.724 33.0343 452.468 33.9562C452.212 34.8269 451.931 35.6975 451.624 36.5682C451.368 37.4389 451.113 38.2327 450.857 38.9498C450.601 39.6668 450.397 40.2046 450.243 40.5631L427.382 90.345C426.257 93.6741 424.85 97.1311 423.163 100.716C421.526 104.25 419.915 107.707 418.33 111.087C416.795 114.417 415.466 117.541 414.34 120.46C413.266 123.379 412.729 125.863 412.729 127.912C412.729 128.629 412.806 129.32 412.96 129.986C413.164 130.652 413.522 130.985 414.034 130.985C414.698 130.985 415.696 130.729 417.025 130.217C418.406 129.705 419.966 128.987 421.705 128.066C423.444 127.144 425.311 126.068 427.305 124.839C429.351 123.559 431.371 122.201 433.366 120.767L453.312 108.245C453.721 108.04 454.028 107.938 454.232 107.938C454.642 107.938 454.949 108.143 455.153 108.552C455.409 108.962 455.537 109.449 455.537 110.012C455.537 110.883 455.332 111.753 454.923 112.624C454.565 113.443 454.028 114.109 453.312 114.621C450.397 116.568 447.379 118.591 444.259 120.69C441.191 122.739 438.097 124.788 434.977 126.836C431.857 128.834 428.789 130.754 425.771 132.598C422.805 134.442 419.941 136.132 417.179 137.669C413.241 139.871 409.712 140.972 406.592 140.972C404.546 140.972 403.166 140.409 402.45 139.282C401.733 138.155 401.375 136.695 401.375 134.903C401.375 133.827 401.452 132.726 401.606 131.599C401.81 130.422 402.092 129.167 402.45 127.835C401.069 129.833 399.483 131.625 397.693 133.213C395.903 134.8 393.985 136.158 391.939 137.284C389.945 138.411 387.848 139.256 385.649 139.82C383.501 140.434 381.404 140.742 379.358 140.742C377.108 140.742 374.96 140.383 372.914 139.666C370.868 138.898 369.078 137.72 367.544 136.132C366.01 134.493 364.782 132.445 363.862 129.986C362.992 127.528 362.557 124.557 362.557 121.075ZM412.576 94.3399C412.781 93.7765 413.036 93.0851 413.343 92.2656C413.701 91.4462 414.034 90.6523 414.34 89.8841C414.698 89.1158 414.98 88.4244 415.184 87.8098C415.44 87.144 415.568 86.6831 415.568 86.427C415.568 86.1197 414.98 85.8892 413.803 85.7356C412.627 85.5819 411.067 85.5051 409.124 85.5051C406.567 85.5051 403.958 86.1965 401.299 87.5793C398.69 88.911 396.133 90.6779 393.627 92.8802C391.172 95.0825 388.845 97.6177 386.646 100.486C384.498 103.303 382.606 106.222 380.969 109.244C379.384 112.214 378.105 115.159 377.133 118.078C376.213 120.998 375.753 123.635 375.753 125.991C375.753 129.167 376.29 131.446 377.364 132.829C378.438 134.16 379.844 134.826 381.583 134.826C383.936 134.826 386.467 133.827 389.178 131.83C391.939 129.833 394.701 127.067 397.463 123.533C400.225 119.948 402.91 115.671 405.518 110.703C408.126 105.735 410.479 100.281 412.576 94.3399Z" fill="url(#paint3_linear_68_17)"/>
<path d="M539.617 114.621C531.69 119.18 524.964 123.149 519.441 126.529C513.917 129.858 509.212 132.624 505.325 134.826C501.438 136.977 498.139 138.59 495.429 139.666C492.769 140.69 490.34 141.202 488.141 141.202C485.993 141.202 484.152 140.946 482.617 140.434C481.134 139.922 479.907 139.231 478.935 138.36C477.963 137.489 477.247 136.439 476.787 135.21C476.378 133.981 476.173 132.649 476.173 131.215C476.173 130.14 476.403 129.039 476.864 127.912C477.324 126.785 477.886 125.633 478.551 124.455C479.267 123.277 480.009 122.048 480.776 120.767C481.543 119.436 482.259 118.027 482.924 116.542L494.585 90.4218L453.389 114.621C452.724 114.877 452.263 115.006 452.008 115.006C451.394 115.006 450.857 114.801 450.397 114.391C449.885 113.981 449.63 113.443 449.63 112.778C449.63 112.163 449.911 111.472 450.473 110.703C450.985 109.935 451.957 109.116 453.389 108.245L473.258 96.6446C475.866 95.1081 478.5 93.5716 481.16 92.0351C483.819 90.4987 486.3 89.0646 488.601 87.733C490.954 86.4014 493.051 85.2234 494.892 84.1991C496.784 83.1236 498.242 82.3041 499.264 81.7407H509.161C509.365 81.8944 509.544 82.1505 509.698 82.509C509.851 82.8675 509.928 83.4052 509.928 84.1223C509.928 85.4539 509.544 87.3489 508.777 89.8072C508.01 92.2144 507.038 94.9288 505.862 97.9506C504.737 100.972 503.458 104.148 502.026 107.477C500.645 110.755 499.341 113.879 498.114 116.849C496.886 119.769 495.608 122.688 494.278 125.607C492.948 128.527 491.619 131.523 490.289 134.596C491.67 134.596 493.843 133.904 496.81 132.521C499.827 131.139 503.458 129.269 507.703 126.913C511.999 124.506 516.832 121.715 522.202 118.539C527.624 115.313 533.428 111.881 539.617 108.245C539.821 108.04 540.205 107.938 540.768 107.938C541.381 107.938 541.944 108.143 542.455 108.552C543.018 108.962 543.299 109.525 543.299 110.242C543.299 110.857 543.018 111.548 542.455 112.317C541.944 113.034 540.998 113.802 539.617 114.621ZM518.443 54.8523C518.75 54.8523 519.313 54.8779 520.131 54.9292C521.001 54.9292 521.972 54.9804 523.046 55.0828C524.12 55.1852 525.245 55.3645 526.422 55.6206C527.598 55.8254 528.672 56.1583 529.644 56.6193C530.616 57.029 531.434 57.5668 532.099 58.2326C532.764 58.8984 533.122 59.7178 533.173 60.6909L522.049 69.1416L516.986 71.5231C516.065 71.5231 515.349 71.2671 514.838 70.7549C514.326 70.2427 513.943 69.705 513.687 69.1416L518.443 54.8523Z" fill="url(#paint4_linear_68_17)"/>
<path d="M632.366 90.0377C630.422 90.0377 627.993 90.6011 625.078 91.7278C622.163 92.8034 618.966 94.3143 615.488 96.2605C612.011 98.1555 608.38 100.409 604.595 103.021C600.861 105.633 597.179 108.475 593.548 111.548C589.968 114.621 586.541 117.874 583.268 121.305C580.046 124.685 577.233 128.091 574.829 131.523C574.574 131.779 574.446 132.368 574.446 133.29C574.446 134.16 574.292 135.082 573.985 136.055C573.73 137.028 573.193 137.899 572.374 138.667C571.556 139.436 570.201 139.82 568.308 139.82C566.979 139.82 565.93 139.666 565.163 139.359C564.447 139.051 563.885 138.642 563.475 138.13C563.117 137.566 562.887 136.926 562.785 136.209C562.683 135.441 562.632 134.596 562.632 133.674C562.632 132.752 562.887 131.395 563.399 129.602C563.91 127.81 564.575 125.735 565.393 123.379C566.212 121.023 567.132 118.488 568.155 115.774C569.178 113.059 570.201 110.345 571.224 107.63C572.298 104.916 573.295 102.278 574.216 99.7175C575.187 97.1567 576.006 94.852 576.67 92.8034L539.617 114.621C539.361 114.673 539.157 114.724 539.003 114.775C538.799 114.775 538.645 114.775 538.543 114.775C537.827 114.775 537.315 114.596 537.009 114.237C536.651 113.828 536.472 113.341 536.472 112.778C536.472 112.061 536.753 111.292 537.315 110.473C537.827 109.602 538.594 108.86 539.617 108.245C547.288 103.687 553.605 99.948 558.566 97.0287C563.578 94.0582 567.592 91.6766 570.61 89.8841C573.627 88.0915 575.878 86.7599 577.361 85.8892C578.895 85.0185 580.046 84.3783 580.813 83.9686C581.529 83.5589 582.168 83.2772 582.731 83.1236C583.345 82.9699 584.01 82.8931 584.726 82.8931C586.209 82.8931 587.411 83.3284 588.331 84.1991C589.303 85.0698 589.789 86.0429 589.789 87.1184C589.789 88.1939 589.456 89.6792 588.791 91.5742C588.127 93.418 587.308 95.441 586.337 97.6433C585.365 99.8456 584.368 102.099 583.345 104.404C582.322 106.657 581.452 108.757 580.736 110.703C580.429 111.472 580.174 112.112 579.969 112.624C579.816 113.085 579.611 113.623 579.355 114.237C579.151 114.852 578.844 115.646 578.435 116.619C578.026 117.541 577.438 118.847 576.67 120.537C578.818 117.771 581.325 114.877 584.189 111.856C587.104 108.834 590.249 105.889 593.625 103.021C597.051 100.102 600.682 97.336 604.518 94.724C608.405 92.112 612.394 89.8329 616.486 87.8866C620.628 85.8892 624.848 84.3271 629.144 83.2004C633.44 82.0224 637.71 81.4334 641.955 81.4334C644.564 81.4334 646.354 81.9968 647.325 83.1236C648.348 84.1991 648.86 85.6844 648.86 87.5793C648.86 89.1158 648.578 90.9852 648.016 93.1875C647.453 95.3898 646.686 97.7969 645.714 100.409C644.743 102.97 643.643 105.735 642.416 108.706C641.188 111.625 639.884 114.596 638.503 117.618C637.173 120.588 635.818 123.584 634.437 126.606C633.107 129.628 631.854 132.521 630.678 135.287C633.593 134.109 636.636 132.573 639.807 130.678C642.978 128.783 646.354 126.657 649.934 124.301C653.565 121.945 657.375 119.41 661.364 116.696C665.405 113.93 669.726 111.113 674.329 108.245C674.687 108.04 675.173 107.938 675.787 107.938C677.014 107.938 677.628 108.629 677.628 110.012C677.628 110.729 677.347 111.523 676.784 112.393C676.222 113.213 675.403 113.956 674.329 114.621C668.243 118.411 662.745 122.022 657.835 125.454C652.926 128.885 648.425 131.932 644.333 134.596C640.293 137.259 636.585 139.359 633.21 140.895C629.885 142.483 626.791 143.277 623.927 143.277C622.188 143.277 620.705 143.046 619.478 142.585C618.25 142.176 617.227 141.612 616.409 140.895C615.642 140.178 615.054 139.333 614.645 138.36C614.287 137.336 614.108 136.286 614.108 135.21C614.108 134.032 614.338 132.88 614.798 131.753C615.309 130.575 616 129.32 616.869 127.989C618.455 124.506 620.219 120.87 622.163 117.08C624.106 113.239 625.896 109.602 627.533 106.171C629.169 102.739 630.55 99.6919 631.675 97.0287C632.801 94.3655 633.363 92.4449 633.363 91.2669C633.363 90.4474 633.031 90.0377 632.366 90.0377Z" fill="url(#paint5_linear_68_17)"/>
<path d="M792.318 108.245C792.676 108.04 793.11 107.938 793.622 107.938C794.236 107.938 794.773 108.143 795.233 108.552C795.744 108.911 796 109.423 796 110.089C796 110.755 795.719 111.472 795.156 112.24C794.594 113.008 793.647 113.802 792.318 114.621C789.812 116.107 786.922 117.822 783.649 119.769C780.427 121.664 776.923 123.738 773.139 125.991C769.405 128.245 765.442 130.652 761.248 133.213C757.054 135.722 752.758 138.309 748.36 140.972C744.626 146.964 740.586 152.931 736.239 158.872C731.943 164.813 727.519 170.472 722.967 175.85C718.415 181.279 713.863 186.324 709.312 190.984C704.76 195.645 700.387 199.691 696.193 203.123C691.999 206.554 688.061 209.243 684.379 211.189C680.748 213.135 677.602 214.108 674.943 214.108C673 214.108 671.261 213.929 669.726 213.571C668.192 213.212 666.913 212.572 665.891 211.65C664.817 210.779 664.024 209.601 663.512 208.116C662.95 206.631 662.668 204.762 662.668 202.508C662.668 201.228 663.461 199.538 665.047 197.438C666.632 195.338 668.857 192.931 671.721 190.216C674.585 187.553 677.986 184.608 681.924 181.381C685.862 178.206 690.158 174.877 694.812 171.394C699.518 167.912 704.504 164.301 709.772 160.562C715.04 156.875 720.41 153.187 725.882 149.499C731.61 142.432 738.054 134.596 745.214 125.991C743.271 127.784 741.148 129.474 738.847 131.062C736.545 132.649 734.167 134.058 731.712 135.287C729.309 136.465 726.905 137.413 724.501 138.13C722.097 138.847 719.847 139.205 717.75 139.205C714.988 139.205 712.431 138.923 710.079 138.36C707.777 137.797 705.783 136.9 704.095 135.671C702.407 134.391 701.077 132.752 700.106 130.754C699.185 128.757 698.725 126.324 698.725 123.456C698.725 120.537 699.134 117.746 699.952 115.082C700.822 112.368 701.972 109.807 703.404 107.4C704.836 104.993 706.447 102.739 708.237 100.639C710.027 98.5396 711.894 96.619 713.838 94.8776C715.73 92.829 717.725 90.8828 719.822 89.039C721.97 87.144 724.271 85.3771 726.726 83.7382L674.329 114.621C673.46 115.082 672.744 115.313 672.181 115.313C670.903 115.313 670.263 114.673 670.263 113.392C670.263 112.675 670.596 111.856 671.261 110.934C671.874 110.012 672.897 109.116 674.329 108.245C683.075 102.919 691.283 98.2067 698.955 94.1094C706.678 90.0121 713.787 86.5806 720.282 83.815C726.828 80.9981 732.761 78.8726 738.08 77.4386C743.45 76.0045 748.155 75.2875 752.195 75.2875C757.617 75.2875 761.759 76.6703 764.623 79.436C767.487 82.1505 768.919 86.3758 768.919 92.112C768.919 94.5703 768.561 97.2592 767.845 100.178C767.181 103.098 766.209 106.222 764.93 109.551C763.703 112.829 762.194 116.26 760.404 119.845C758.665 123.431 756.722 127.092 754.574 130.831C761.938 126.171 768.817 121.945 775.21 118.155C781.654 114.314 787.357 111.011 792.318 108.245ZM713.991 124.071C713.991 128.424 714.528 131.523 715.602 133.366C716.727 135.159 718.594 136.055 721.202 136.055C723.095 136.055 725.14 135.594 727.34 134.672C729.539 133.751 731.764 132.573 734.014 131.139C736.264 129.653 738.438 128.014 740.535 126.222C742.683 124.378 744.652 122.585 746.442 120.844C748.232 119.103 749.741 117.489 750.968 116.004C752.247 114.519 753.142 113.341 753.653 112.47C754.881 110.627 755.878 108.988 756.645 107.554C757.412 106.12 758.026 104.685 758.486 103.251C758.946 101.766 759.253 100.204 759.407 98.5652C759.56 96.875 759.637 94.8776 759.637 92.5729C759.637 91.8047 759.407 90.9852 758.946 90.1145C758.486 89.2439 757.898 88.45 757.182 87.733C756.517 87.016 755.776 86.427 754.957 85.966C754.19 85.5051 753.5 85.2746 752.886 85.2746C746.851 85.2746 741.481 86.3502 736.776 88.5012C732.122 90.6011 728.158 93.4436 724.885 97.0287C721.612 100.614 719.054 104.737 717.213 109.397C715.372 114.058 714.298 118.949 713.991 124.071ZM675.403 206.81C676.733 206.81 678.574 205.837 680.927 203.891C683.279 201.945 686.271 199.051 689.902 195.21C693.534 191.369 697.83 186.554 702.791 180.767C707.752 175.031 713.505 168.347 720.052 160.716C716.727 163.123 713.173 165.658 709.388 168.321C705.655 170.985 701.947 173.622 698.264 176.234C694.633 178.897 691.13 181.509 687.754 184.07C684.43 186.631 681.464 189.013 678.855 191.215C676.298 193.468 674.278 195.466 672.795 197.207C671.261 199 670.493 200.459 670.493 201.586C670.493 202.047 670.57 202.585 670.724 203.199C670.877 203.814 671.158 204.377 671.567 204.89C671.925 205.453 672.437 205.914 673.102 206.272C673.715 206.631 674.483 206.81 675.403 206.81Z" fill="url(#paint6_linear_68_17)"/>
</g>
<defs>
<linearGradient id="paint0_linear_68_17" x1="-2.76544" y1="49.1494" x2="774.619" y2="112.441" gradientUnits="userSpaceOnUse">
<stop stop-color="#EBF2EE"/>
<stop offset="1" stop-color="#EEFAFA"/>
</linearGradient>
<linearGradient id="paint1_linear_68_17" x1="-2.76544" y1="49.1494" x2="774.619" y2="112.441" gradientUnits="userSpaceOnUse">
<stop stop-color="#EBF2EE"/>
<stop offset="1" stop-color="#EEFAFA"/>
</linearGradient>
<linearGradient id="paint2_linear_68_17" x1="-2.76544" y1="49.1494" x2="774.619" y2="112.441" gradientUnits="userSpaceOnUse">
<stop stop-color="#EBF2EE"/>
<stop offset="1" stop-color="#EEFAFA"/>
</linearGradient>
<linearGradient id="paint3_linear_68_17" x1="-2.76544" y1="49.1494" x2="774.619" y2="112.441" gradientUnits="userSpaceOnUse">
<stop stop-color="#EBF2EE"/>
<stop offset="1" stop-color="#EEFAFA"/>
</linearGradient>
<linearGradient id="paint4_linear_68_17" x1="-2.76544" y1="49.1494" x2="774.619" y2="112.441" gradientUnits="userSpaceOnUse">
<stop stop-color="#EBF2EE"/>
<stop offset="1" stop-color="#EEFAFA"/>
</linearGradient>
<linearGradient id="paint5_linear_68_17" x1="-2.76544" y1="49.1494" x2="774.619" y2="112.441" gradientUnits="userSpaceOnUse">
<stop stop-color="#EBF2EE"/>
<stop offset="1" stop-color="#EEFAFA"/>
</linearGradient>
<linearGradient id="paint6_linear_68_17" x1="-2.76544" y1="49.1494" x2="774.619" y2="112.441" gradientUnits="userSpaceOnUse">
<stop stop-color="#EBF2EE"/>
<stop offset="1" stop-color="#EEFAFA"/>
</linearGradient>
</defs>
</svg>
