<svg width="217" height="94" viewBox="0 0 217 94" fill="none" xmlns="http://www.w3.org/2000/svg">
<g opacity="0.5">
<path d="M36.4587 38.311C36.4406 38.3561 36.3009 38.4418 36.0395 38.568C35.787 38.7032 35.4805 38.8429 35.1199 38.9872C34.7683 39.1405 34.3941 39.2712 33.9974 39.3794C33.6098 39.4966 33.2672 39.5552 32.9697 39.5552C32.7713 39.5552 32.6091 39.5191 32.4828 39.447C32.3656 39.3749 32.307 39.2577 32.307 39.0954C32.307 39.0413 32.3161 38.9872 32.3341 38.9331C32.3521 38.888 32.3747 38.8159 32.4017 38.7167C32.7443 37.4275 33.0959 36.1428 33.4565 34.8626C33.8171 33.5824 34.1687 32.3338 34.5113 31.1167C34.8539 29.8906 35.1785 28.7095 35.485 27.5736C35.7915 26.4286 36.0575 25.3558 36.2829 24.3551C36.5083 23.3453 36.6886 22.4212 36.8238 21.5828C36.959 20.7353 37.0267 19.9961 37.0267 19.365C37.0267 17.3906 36.8599 15.6055 36.5263 14.0098C36.2017 12.414 35.7374 10.9986 35.1334 9.76347C34.5384 8.51934 33.8216 7.451 32.9832 6.55847C32.1538 5.65692 31.2342 4.91765 30.2245 4.34065C29.2147 3.76366 28.1329 3.33993 26.9789 3.06947C25.8339 2.78999 24.6484 2.65025 23.4223 2.65025C21.9708 2.65025 20.4922 2.83056 18.9867 3.19118C17.4811 3.5518 15.998 4.07019 14.5375 4.74635C13.068 5.42251 11.648 6.24743 10.2777 7.2211C8.89831 8.19478 7.61811 9.29467 6.43708 10.5208C5.24704 11.7379 4.18321 13.0767 3.2456 14.5372C2.30799 15.9887 1.54167 17.5348 0.946649 19.1756C0.766339 19.6625 0.622091 20.0006 0.513905 20.1899C0.396704 20.3702 0.302041 20.4604 0.229917 20.4604C0.148778 20.4604 0.0901771 20.3657 0.0541151 20.1764C0.0180531 19.978 2.21133e-05 19.7797 2.21133e-05 19.5813C2.21133e-05 19.4912 0.00452986 19.4146 0.0135454 19.3515C0.0135454 19.2793 0.0180531 19.2207 0.0270686 19.1756C0.450797 17.3996 1.09991 15.7498 1.97442 14.2261C2.84892 12.7025 3.8857 11.3141 5.08476 10.061C6.28382 8.80783 7.61811 7.69893 9.08764 6.73427C10.5572 5.76059 12.0988 4.94469 13.7126 4.28656C15.3264 3.62843 16.9852 3.12807 18.6891 2.78548C20.3931 2.44289 22.079 2.2716 23.7468 2.2716C25.2254 2.2716 26.6633 2.41134 28.0607 2.69082C29.4672 2.9703 30.7879 3.39403 32.0231 3.962C33.2672 4.52998 34.4077 5.25122 35.4444 6.12572C36.4812 7.00022 37.3738 8.03701 38.122 9.23607C38.8703 10.4261 39.4518 11.7829 39.8665 13.3066C40.2903 14.8212 40.5021 16.5071 40.5021 18.3643C40.5021 19.2478 40.43 20.3161 40.2858 21.5693C40.1415 22.8134 39.9161 24.1883 39.6096 25.6939C39.3031 27.1904 38.9109 28.7862 38.4331 30.4811C37.9553 32.167 37.3873 33.8889 36.7291 35.647L48.1698 17.1472C48.3862 16.8136 48.6296 16.4665 48.9001 16.1059C49.1705 15.7362 49.4545 15.3982 49.752 15.0916C50.0586 14.7761 50.3696 14.5191 50.6851 14.3208C51.0007 14.1134 51.3117 14.0098 51.6182 14.0098C51.9248 14.0098 52.1637 14.0368 52.335 14.0909C52.5063 14.136 52.6325 14.1946 52.7136 14.2667C52.8038 14.3388 52.8579 14.4245 52.8759 14.5237C52.9029 14.6138 52.9165 14.704 52.9165 14.7941L36.4587 38.311ZM61.2468 32.4419C61.3099 32.4059 61.3775 32.3879 61.4496 32.3879C61.5578 32.3879 61.657 32.4239 61.7471 32.496C61.8373 32.5682 61.8824 32.6673 61.8824 32.7936C61.8824 32.9017 61.8328 33.0234 61.7336 33.1587C61.6435 33.2939 61.4812 33.4291 61.2468 33.5644C60.787 33.8258 60.2821 34.1188 59.7322 34.4434C59.1912 34.7589 58.6323 35.0835 58.0553 35.4171C57.4873 35.7506 56.9193 36.0797 56.3514 36.4043C55.7834 36.7288 55.2425 37.0263 54.7286 37.2968C54.2237 37.5673 53.7639 37.8017 53.3492 38C52.9345 38.1893 52.5964 38.3201 52.335 38.3922C52.1907 38.4373 52.0555 38.4643 51.9293 38.4733C51.8121 38.4913 51.7039 38.5004 51.6047 38.5004C51.2261 38.5004 50.915 38.4057 50.6716 38.2164C50.4282 38.027 50.2344 37.7746 50.0901 37.4591C49.9549 37.1345 49.8602 36.7604 49.8061 36.3366C49.752 35.9039 49.725 35.4486 49.725 34.9708C49.725 34.3217 49.7565 33.6635 49.8196 32.9964C49.8827 32.3202 49.9413 31.6982 49.9954 31.1302L47.0609 32.8612L45.8709 33.5644C45.8077 33.6004 45.7356 33.6185 45.6545 33.6185C45.5463 33.6185 45.4516 33.5824 45.3705 33.5103C45.2894 33.4382 45.2488 33.339 45.2488 33.2128C45.2488 33.1046 45.2939 32.9874 45.384 32.8612C45.4742 32.7259 45.6365 32.5862 45.8709 32.4419L50.0766 29.9672C50.5093 28.4706 50.9556 27.0958 51.4154 25.8426C51.8752 24.5895 52.3755 23.458 52.9165 22.4483C53.4574 21.4385 54.0479 20.5505 54.688 19.7842C55.3281 19.0179 56.0448 18.3823 56.8382 17.8774C57.6316 17.3635 58.5106 16.9804 59.4752 16.7279C60.4489 16.4665 61.5308 16.3358 62.7208 16.3358C63.3158 16.3358 63.8162 16.3899 64.2219 16.498C64.6276 16.5972 64.9567 16.746 65.2091 16.9443C65.4705 17.1336 65.6554 17.3635 65.7635 17.634C65.8807 17.9045 65.9393 18.202 65.9393 18.5265C65.9393 18.9322 65.8041 19.3695 65.5336 19.8383C65.2632 20.2981 64.8981 20.7759 64.4383 21.2718C63.9785 21.7676 63.4466 22.2725 62.8425 22.7864C62.2385 23.2912 61.6029 23.7916 60.9357 24.2874C60.2686 24.7833 59.5879 25.2611 58.8937 25.7209C58.2086 26.1807 57.5504 26.6089 56.9193 27.0056C56.2973 27.4023 55.7203 27.7584 55.1884 28.0739C54.6655 28.3895 54.2372 28.6464 53.9037 28.8448C53.7414 29.4127 53.5791 30.0078 53.4168 30.6298C53.2545 31.2519 53.1058 31.8785 52.9706 32.5096C52.8443 33.1406 52.7407 33.7672 52.6595 34.3893C52.5784 35.0023 52.5378 35.5793 52.5378 36.1203C52.5378 36.3366 52.5558 36.5215 52.5919 36.6747C52.637 36.828 52.7091 36.9046 52.8083 36.9046C52.9796 36.9046 53.232 36.8415 53.5656 36.7153C53.9082 36.5801 54.3003 36.3997 54.7421 36.1744C55.1839 35.949 55.6662 35.692 56.1891 35.4035C56.721 35.106 57.2709 34.7905 57.8389 34.4569C58.4069 34.1233 58.9794 33.7853 59.5564 33.4427C60.1334 33.1001 60.6968 32.7665 61.2468 32.4419ZM54.093 27.6006C54.6339 27.3121 55.274 26.9335 56.0133 26.4647C56.7616 25.9959 57.5324 25.482 58.3258 24.923C59.1281 24.3551 59.917 23.76 60.6923 23.138C61.4677 22.5159 62.1619 21.9073 62.7749 21.3123C63.397 20.7173 63.8973 20.1538 64.276 19.6219C64.6546 19.081 64.844 18.6122 64.844 18.2155C64.844 17.8819 64.6682 17.616 64.3166 17.4176C63.974 17.2103 63.4105 17.1066 62.6261 17.1066C61.391 17.1066 60.3227 17.3275 59.4211 17.7692C58.5196 18.211 57.7352 18.8691 57.0681 19.7436C56.41 20.6181 55.842 21.7135 55.3642 23.0298C54.8954 24.337 54.4716 25.8606 54.093 27.6006ZM61.2603 33.5644C61.1972 33.6004 61.1386 33.6185 61.0845 33.6185C60.9943 33.6185 60.9267 33.5824 60.8816 33.5103C60.8366 33.4291 60.814 33.33 60.814 33.2128C60.814 33.0866 60.8456 32.9513 60.9087 32.8071C60.9718 32.6628 61.089 32.5411 61.2603 32.4419L66.2639 29.4939C66.886 29.1333 67.5486 28.8222 68.2518 28.5608C68.955 28.2993 69.6672 28.0875 70.3885 27.9252C71.1187 27.7539 71.84 27.6322 72.5522 27.5601C73.2644 27.4789 73.9361 27.4383 74.5672 27.4383C74.9278 27.4383 75.2659 27.4654 75.5814 27.5195C75.897 27.5646 76.1674 27.6367 76.3928 27.7359C76.6272 27.826 76.8075 27.9387 76.9337 28.0739C77.069 28.2092 77.1366 28.3624 77.1366 28.5337C77.1366 28.6599 77.0915 28.7501 77.0014 28.8042C76.9112 28.8583 76.803 28.8989 76.6768 28.9259C76.5596 28.9439 76.4334 28.9575 76.2981 28.9665C76.1719 28.9755 76.0728 28.998 76.0006 29.0341C75.9465 29.2054 75.8609 29.4713 75.7437 29.832C75.6265 30.1836 75.5093 30.5487 75.3921 30.9273C75.2749 31.297 75.1667 31.6306 75.0675 31.9281C74.9774 32.2166 74.9278 32.3833 74.9188 32.4284C74.8016 32.8071 74.6393 33.2894 74.4319 33.8754C74.2336 34.4524 74.0127 35.2277 73.7693 36.2014C73.7783 36.2014 73.8775 36.1518 74.0668 36.0527C74.2651 35.9445 74.5176 35.8047 74.8241 35.6334C75.1397 35.4621 75.4958 35.2638 75.8924 35.0384C76.2891 34.813 76.6993 34.5831 77.1231 34.3487L80.3551 32.4419C80.4813 32.3698 80.5895 32.3338 80.6797 32.3338C80.7788 32.3338 80.8555 32.3698 80.9096 32.4419C80.9637 32.5051 80.9907 32.5862 80.9907 32.6854C80.9907 32.8116 80.9411 32.9603 80.842 33.1316C80.7428 33.2939 80.5805 33.4382 80.3551 33.5644L73.1608 37.7836C72.9804 37.8918 72.8137 37.9684 72.6604 38.0135C72.5071 38.0586 72.3674 38.0811 72.2412 38.0811C72.0609 38.0811 71.9076 38.0406 71.7814 37.9594C71.6552 37.8783 71.5515 37.7656 71.4703 37.6213C71.3892 37.4771 71.3261 37.3148 71.281 37.1345C71.245 36.9452 71.2269 36.7468 71.2269 36.5395C71.2269 36.3141 71.2495 36.0887 71.2945 35.8633C71.3396 35.6379 71.3982 35.4216 71.4703 35.2142C71.2089 35.7281 70.9024 36.1744 70.5508 36.553C70.2082 36.9317 69.8385 37.2517 69.4419 37.5132C69.0542 37.7656 68.653 37.9549 68.2383 38.0811C67.8236 38.2074 67.4179 38.2705 67.0212 38.2705C66.6245 38.2705 66.2504 38.2074 65.8988 38.0811C65.5472 37.9549 65.2361 37.7701 64.9657 37.5267C64.7042 37.2743 64.4969 36.9632 64.3436 36.5936C64.1903 36.2239 64.1137 35.7957 64.1137 35.3089C64.1137 35.0204 64.1407 34.7003 64.1948 34.3487C64.258 33.9971 64.3391 33.641 64.4383 33.2804C64.5374 32.9198 64.6501 32.5682 64.7763 32.2256C64.9026 31.874 65.0333 31.5539 65.1685 31.2654L61.2603 33.5644ZM73.5529 28.5878C72.8317 28.5878 72.142 28.7095 71.4839 28.953C70.8257 29.1964 70.2127 29.5164 69.6447 29.9131C69.0857 30.3098 68.5764 30.7651 68.1166 31.2789C67.6658 31.7838 67.2781 32.3067 66.9536 32.8476C66.638 33.3796 66.3901 33.907 66.2098 34.4299C66.0385 34.9528 65.9529 35.4216 65.9529 35.8363C65.9529 36.2961 66.052 36.6702 66.2504 36.9587C66.4577 37.2382 66.7913 37.3779 67.2511 37.3779C67.5216 37.3779 67.8146 37.2968 68.1301 37.1345C68.4547 36.9632 68.7792 36.7423 69.1038 36.4719C69.4374 36.1924 69.7619 35.8814 70.0775 35.5388C70.402 35.1872 70.6995 34.8356 70.97 34.484C71.2405 34.1233 71.4749 33.7762 71.6732 33.4427C71.8806 33.1001 72.0293 32.8026 72.1195 32.5501L73.5529 28.5878ZM83.6277 34.7003C83.6277 34.3668 83.7269 33.9656 83.9253 33.4968C84.1326 33.028 84.3986 32.5501 84.7231 32.0633C85.0567 31.5765 85.4308 31.1122 85.8456 30.6704C86.2603 30.2196 86.675 29.8545 87.0897 29.575L80.3551 33.5644C80.3191 33.5824 80.2875 33.5959 80.2605 33.6049C80.2244 33.6049 80.1928 33.6049 80.1658 33.6049C80.0666 33.6049 79.99 33.5689 79.9359 33.4968C79.8818 33.4246 79.8548 33.3345 79.8548 33.2263C79.8548 33.1001 79.8953 32.9648 79.9765 32.8206C80.0576 32.6673 80.1838 32.5411 80.3551 32.4419L84.074 30.1836C84.5789 29.877 85.1514 29.5525 85.7915 29.2099C86.4316 28.8583 87.0942 28.5382 87.7794 28.2497C88.4736 27.9612 89.1723 27.7223 89.8755 27.533C90.5787 27.3347 91.2458 27.2355 91.8769 27.2355C92.4629 27.2355 92.9813 27.3257 93.4321 27.506L96.9617 20.3792C97.0518 20.1899 97.1465 19.987 97.2456 19.7707C97.3538 19.5453 97.4891 19.3379 97.6513 19.1486C97.8226 18.9593 98.0345 18.8015 98.2869 18.6753C98.5484 18.5401 98.882 18.4724 99.2877 18.4724C99.4139 18.4724 99.4905 18.5175 99.5175 18.6077C99.5536 18.6888 99.5716 18.797 99.5716 18.9322C99.5536 19.0584 99.5221 19.2027 99.477 19.365C99.4319 19.5182 99.3823 19.6715 99.3282 19.8248C99.2831 19.978 99.2381 20.1178 99.193 20.244C99.1479 20.3702 99.1119 20.4649 99.0848 20.528L95.0549 29.291C94.8565 29.877 94.6086 30.4856 94.3111 31.1167C94.0226 31.7387 93.7386 32.3473 93.4591 32.9423C93.1887 33.5283 92.9543 34.0783 92.7559 34.5921C92.5666 35.106 92.4719 35.5433 92.4719 35.9039C92.4719 36.0301 92.4855 36.1518 92.5125 36.269C92.5486 36.3862 92.6117 36.4448 92.7018 36.4448C92.819 36.4448 92.9948 36.3997 93.2292 36.3096C93.4727 36.2194 93.7476 36.0932 94.0542 35.9309C94.3607 35.7687 94.6898 35.5793 95.0414 35.363C95.402 35.1376 95.7581 34.8987 96.1097 34.6462L99.6257 32.4419C99.6979 32.4059 99.752 32.3879 99.788 32.3879C99.8601 32.3879 99.9142 32.4239 99.9503 32.496C99.9954 32.5682 100.018 32.6538 100.018 32.753C100.018 32.9062 99.9818 33.0595 99.9097 33.2128C99.8466 33.357 99.752 33.4742 99.6257 33.5644C99.1119 33.907 98.5799 34.2631 98.03 34.6327C97.4891 34.9933 96.9436 35.354 96.3937 35.7146C95.8437 36.0662 95.3028 36.4043 94.7709 36.7288C94.248 37.0534 93.7431 37.3509 93.2563 37.6213C92.5621 38.009 91.94 38.2028 91.3901 38.2028C91.0295 38.2028 90.786 38.1037 90.6598 37.9053C90.5336 37.707 90.4705 37.4501 90.4705 37.1345C90.4705 36.9452 90.484 36.7514 90.5111 36.553C90.5471 36.3457 90.5967 36.1248 90.6598 35.8904C90.4164 36.242 90.1369 36.5575 89.8214 36.837C89.5058 37.1165 89.1678 37.3554 88.8071 37.5537C88.4555 37.7521 88.0859 37.9008 87.6982 38C87.3196 38.1082 86.95 38.1623 86.5893 38.1623C86.1926 38.1623 85.814 38.0992 85.4534 37.973C85.0928 37.8377 84.7772 37.6304 84.5068 37.3509C84.2363 37.0624 84.0199 36.7018 83.8576 36.269C83.7044 35.8363 83.6277 35.3134 83.6277 34.7003ZM92.4449 29.9942C92.481 29.8951 92.526 29.7734 92.5801 29.6291C92.6432 29.4849 92.7018 29.3451 92.7559 29.2099C92.819 29.0747 92.8686 28.953 92.9047 28.8448C92.9498 28.7276 92.9723 28.6464 92.9723 28.6013C92.9723 28.5473 92.8686 28.5067 92.6613 28.4796C92.4539 28.4526 92.1789 28.4391 91.8363 28.4391C91.3856 28.4391 90.9258 28.5608 90.457 28.8042C89.9972 29.0386 89.5464 29.3496 89.1047 29.7373C88.6719 30.125 88.2617 30.5712 87.874 31.0761C87.4954 31.572 87.1618 32.0858 86.8733 32.6178C86.5938 33.1406 86.3685 33.659 86.1972 34.1729C86.0349 34.6868 85.9537 35.1511 85.9537 35.5658C85.9537 36.1248 86.0484 36.526 86.2377 36.7694C86.4271 37.0038 86.675 37.121 86.9815 37.121C87.3962 37.121 87.8425 36.9452 88.3203 36.5936C88.8071 36.242 89.294 35.7551 89.7808 35.1331C90.2677 34.502 90.741 33.7492 91.2008 32.8747C91.6605 32.0002 92.0753 31.04 92.4449 29.9942ZM114.839 33.5644C113.442 34.3668 112.256 35.0655 111.283 35.6605C110.309 36.2465 109.48 36.7333 108.794 37.121C108.109 37.4996 107.528 37.7836 107.05 37.973C106.581 38.1533 106.153 38.2434 105.765 38.2434C105.387 38.2434 105.062 38.1983 104.792 38.1082C104.53 38.018 104.314 37.8963 104.142 37.7431C103.971 37.5898 103.845 37.405 103.764 37.1886C103.692 36.9722 103.656 36.7378 103.656 36.4854C103.656 36.2961 103.696 36.1022 103.777 35.9039C103.859 35.7056 103.958 35.5027 104.075 35.2954C104.201 35.088 104.332 34.8716 104.467 34.6462C104.602 34.4118 104.729 34.1639 104.846 33.9025L106.901 29.3046L99.6393 33.5644C99.5221 33.6095 99.4409 33.632 99.3958 33.632C99.2877 33.632 99.193 33.5959 99.1119 33.5238C99.0217 33.4517 98.9766 33.357 98.9766 33.2398C98.9766 33.1316 99.0262 33.0099 99.1254 32.8747C99.2155 32.7395 99.3868 32.5952 99.6393 32.4419L103.142 30.3999C103.602 30.1295 104.066 29.859 104.535 29.5885C105.003 29.3181 105.441 29.0656 105.846 28.8312C106.261 28.5968 106.631 28.3895 106.955 28.2092C107.289 28.0198 107.546 27.8756 107.726 27.7764H109.471C109.507 27.8035 109.538 27.8486 109.565 27.9117C109.592 27.9748 109.606 28.0694 109.606 28.1957C109.606 28.4301 109.538 28.7636 109.403 29.1964C109.268 29.6201 109.097 30.0979 108.889 30.6298C108.691 31.1617 108.465 31.7207 108.213 32.3067C107.97 32.8837 107.74 33.4337 107.523 33.9566C107.307 34.4704 107.082 34.9843 106.847 35.4982C106.613 36.0121 106.378 36.5395 106.144 37.0804C106.387 37.0804 106.771 36.9587 107.293 36.7153C107.825 36.4719 108.465 36.1428 109.214 35.7281C109.971 35.3044 110.823 34.813 111.77 34.2541C112.725 33.6861 113.749 33.082 114.839 32.4419C114.875 32.4059 114.943 32.3879 115.042 32.3879C115.15 32.3879 115.25 32.4239 115.34 32.496C115.439 32.5682 115.488 32.6673 115.488 32.7936C115.488 32.9017 115.439 33.0234 115.34 33.1587C115.25 33.2849 115.083 33.4201 114.839 33.5644ZM111.107 23.0433C111.161 23.0433 111.26 23.0478 111.404 23.0568C111.558 23.0568 111.729 23.0658 111.918 23.0839C112.108 23.1019 112.306 23.1335 112.513 23.1785C112.721 23.2146 112.91 23.2732 113.081 23.3543C113.253 23.4265 113.397 23.5211 113.514 23.6383C113.631 23.7555 113.694 23.8998 113.703 24.0711L111.743 25.5586L110.85 25.9778C110.688 25.9778 110.562 25.9328 110.471 25.8426C110.381 25.7525 110.314 25.6578 110.269 25.5586L111.107 23.0433ZM144.929 32.4419C145.046 32.3969 145.14 32.3743 145.213 32.3743C145.339 32.3743 145.451 32.4059 145.551 32.469C145.659 32.5321 145.713 32.6223 145.713 32.7395C145.713 32.8657 145.578 33.0415 145.307 33.2669C145.037 33.4832 144.708 33.7176 144.32 33.9701C143.932 34.2225 143.531 34.4749 143.116 34.7274C142.702 34.9708 142.346 35.1827 142.048 35.363C141.651 35.6244 141.205 35.94 140.709 36.3096C140.213 36.6702 139.7 37.0218 139.168 37.3644C138.645 37.707 138.126 37.9955 137.613 38.2299C137.108 38.4733 136.648 38.595 136.233 38.595C135.864 38.595 135.548 38.4598 135.287 38.1893C135.034 37.9279 134.908 37.5041 134.908 36.9181C134.908 36.5665 134.962 36.1563 135.07 35.6875C135.178 35.2097 135.359 34.6598 135.611 34.0377C135.909 33.2984 136.166 32.6493 136.382 32.0903C136.607 31.5314 136.792 31.0536 136.936 30.6569C137.081 30.2602 137.189 29.9356 137.261 29.6832C137.333 29.4218 137.369 29.2189 137.369 29.0747C137.369 28.7681 137.256 28.6149 137.031 28.6149C136.806 28.6149 136.49 28.7636 136.084 29.0611C135.679 29.3496 135.223 29.7328 134.719 30.2106C134.223 30.6884 133.7 31.2384 133.15 31.8604C132.609 32.4735 132.091 33.1091 131.595 33.7672C131.099 34.4254 130.653 35.0745 130.256 35.7146C129.859 36.3547 129.557 36.9362 129.35 37.4591C129.314 37.5492 129.246 37.6394 129.147 37.7295C129.048 37.8107 128.931 37.8873 128.795 37.9594C128.669 38.0225 128.529 38.0721 128.376 38.1082C128.223 38.1533 128.074 38.1758 127.93 38.1758C127.686 38.1758 127.475 38.1082 127.294 37.973C127.114 37.8287 127.024 37.5853 127.024 37.2427C127.024 36.9542 127.078 36.6251 127.186 36.2555C127.303 35.8769 127.416 35.5207 127.524 35.1872C127.677 34.6462 127.84 34.1008 128.011 33.5509C128.191 32.9919 128.358 32.4825 128.511 32.0227C128.692 31.4908 128.872 30.9724 129.052 30.4676C129.133 30.3323 129.219 30.1881 129.309 30.0348C129.408 29.8725 129.494 29.7103 129.566 29.548C129.638 29.3857 129.697 29.2279 129.742 29.0747C129.796 28.9124 129.823 28.7681 129.823 28.6419C129.823 28.4165 129.719 28.3038 129.512 28.3038C129.088 28.3038 128.602 28.4571 128.052 28.7636C127.511 29.0611 126.947 29.4533 126.361 29.9401C125.784 30.418 125.207 30.9634 124.63 31.5765C124.053 32.1805 123.521 32.7936 123.034 33.4156C122.548 34.0287 122.128 34.6192 121.777 35.1872C121.425 35.7461 121.182 36.2239 121.047 36.6206C120.965 36.864 120.889 37.0759 120.817 37.2562C120.754 37.4365 120.681 37.5853 120.6 37.7025C120.519 37.8197 120.42 37.9098 120.303 37.973C120.186 38.027 120.032 38.0541 119.843 38.0541C119.464 38.0541 119.207 37.9504 119.072 37.7431C118.946 37.5267 118.883 37.2517 118.883 36.9181C118.883 36.7649 118.928 36.5305 119.018 36.2149C119.108 35.8904 119.225 35.5207 119.37 35.106C119.523 34.6913 119.69 34.245 119.87 33.7672C120.05 33.2804 120.231 32.7981 120.411 32.3202C120.6 31.8334 120.781 31.3646 120.952 30.9138C121.123 30.463 121.267 30.0619 121.385 29.7103L114.839 33.5644C114.722 33.6275 114.609 33.659 114.501 33.659C114.393 33.659 114.303 33.6275 114.231 33.5644C114.15 33.5013 114.109 33.4156 114.109 33.3074C114.109 33.1902 114.168 33.055 114.285 32.9017C114.393 32.7485 114.578 32.5952 114.839 32.4419L119.667 29.6021C119.784 29.5119 119.92 29.4218 120.073 29.3316C120.235 29.2414 120.402 29.1603 120.573 29.0882C120.754 29.0161 120.934 28.9575 121.114 28.9124C121.294 28.8673 121.475 28.8448 121.655 28.8448C121.853 28.8448 122.029 28.8944 122.183 28.9935C122.345 29.0837 122.48 29.2009 122.588 29.3451C122.696 29.4804 122.778 29.6336 122.832 29.8049C122.895 29.9762 122.926 30.1385 122.926 30.2918C122.926 30.454 122.913 30.6163 122.886 30.7786C122.868 30.9319 122.823 31.1257 122.75 31.3601C122.687 31.5855 122.597 31.865 122.48 32.1985C122.363 32.5321 122.21 32.9603 122.02 33.4832C122.336 33.0595 122.665 32.6223 123.007 32.1715C123.359 31.7117 123.729 31.2654 124.116 30.8327C124.504 30.3909 124.914 29.9717 125.347 29.575C125.789 29.1783 126.253 28.8312 126.74 28.5337C127.227 28.2362 127.741 28.0018 128.281 27.8305C128.831 27.6502 129.408 27.5601 130.012 27.5601C130.193 27.5601 130.369 27.6051 130.54 27.6953C130.72 27.7764 130.878 27.9072 131.013 28.0875C131.157 28.2678 131.27 28.4977 131.351 28.7771C131.441 29.0566 131.486 29.3857 131.486 29.7643C131.486 30.2061 131.419 30.7155 131.284 31.2925C131.157 31.8604 130.937 32.5096 130.621 33.2398C131.261 32.3022 131.906 31.5179 132.555 30.8868C133.213 30.2467 133.849 29.7193 134.462 29.3046C135.084 28.8898 135.674 28.5743 136.233 28.3579C136.792 28.1325 137.297 27.9658 137.748 27.8576C138 27.8576 138.266 27.8936 138.546 27.9658C138.825 28.0379 139.078 28.1461 139.303 28.2903C139.528 28.4255 139.713 28.6013 139.857 28.8177C140.011 29.0341 140.087 29.2865 140.087 29.575C140.087 29.6562 140.083 29.7373 140.074 29.8184C140.065 29.8996 140.047 29.9852 140.02 30.0754C139.911 30.454 139.763 30.8642 139.573 31.306C139.384 31.7387 139.181 32.1805 138.965 32.6313C138.748 33.082 138.523 33.5283 138.289 33.9701C138.063 34.4028 137.86 34.813 137.68 35.2007C137.5 35.5793 137.351 35.9219 137.234 36.2285C137.117 36.526 137.058 36.7604 137.058 36.9317C137.058 37.148 137.139 37.2562 137.301 37.2562C137.437 37.2562 137.644 37.1706 137.924 36.9993C138.212 36.828 138.541 36.6161 138.911 36.3637C139.28 36.1022 139.682 35.8183 140.114 35.5117C140.547 35.2052 140.98 34.9167 141.413 34.6462L144.929 32.4419ZM160.142 33.5644C158.745 34.3668 157.559 35.0655 156.586 35.6605C155.612 36.2465 154.783 36.7333 154.097 37.121C153.412 37.4996 152.831 37.7836 152.353 37.973C151.884 38.1533 151.456 38.2434 151.068 38.2434C150.689 38.2434 150.365 38.1983 150.094 38.1082C149.833 38.018 149.617 37.8963 149.445 37.7431C149.274 37.5898 149.148 37.405 149.067 37.1886C148.995 36.9722 148.959 36.7378 148.959 36.4854C148.959 36.2961 148.999 36.1022 149.08 35.9039C149.161 35.7056 149.261 35.5027 149.378 35.2954C149.504 35.088 149.635 34.8716 149.77 34.6462C149.905 34.4118 150.031 34.1639 150.149 33.9025L152.204 29.3046L144.942 33.5644C144.825 33.6095 144.744 33.632 144.699 33.632C144.591 33.632 144.496 33.5959 144.415 33.5238C144.325 33.4517 144.279 33.357 144.279 33.2398C144.279 33.1316 144.329 33.0099 144.428 32.8747C144.518 32.7395 144.69 32.5952 144.942 32.4419L148.445 30.3999C148.904 30.1295 149.369 29.859 149.838 29.5885C150.306 29.3181 150.744 29.0656 151.149 28.8312C151.564 28.5968 151.934 28.3895 152.258 28.2092C152.592 28.0198 152.849 27.8756 153.029 27.7764H154.774C154.81 27.8035 154.841 27.8486 154.868 27.9117C154.895 27.9748 154.909 28.0694 154.909 28.1957C154.909 28.4301 154.841 28.7636 154.706 29.1964C154.571 29.6201 154.399 30.0979 154.192 30.6298C153.994 31.1617 153.768 31.7207 153.516 32.3067C153.272 32.8837 153.043 33.4337 152.826 33.9566C152.61 34.4704 152.384 34.9843 152.15 35.4982C151.916 36.0121 151.681 36.5395 151.447 37.0804C151.69 37.0804 152.073 36.9587 152.596 36.7153C153.128 36.4719 153.768 36.1428 154.517 35.7281C155.274 35.3044 156.126 34.813 157.072 34.2541C158.028 33.6861 159.051 33.082 160.142 32.4419C160.178 32.4059 160.246 32.3879 160.345 32.3879C160.453 32.3879 160.552 32.4239 160.643 32.496C160.742 32.5682 160.791 32.6673 160.791 32.7936C160.791 32.9017 160.742 33.0234 160.643 33.1587C160.552 33.2849 160.386 33.4201 160.142 33.5644ZM156.41 23.0433C156.464 23.0433 156.563 23.0478 156.707 23.0568C156.861 23.0568 157.032 23.0658 157.221 23.0839C157.411 23.1019 157.609 23.1335 157.816 23.1785C158.024 23.2146 158.213 23.2732 158.384 23.3543C158.556 23.4265 158.7 23.5211 158.817 23.6383C158.934 23.7555 158.997 23.8998 159.006 24.0711L157.045 25.5586L156.153 25.9778C155.991 25.9778 155.864 25.9328 155.774 25.8426C155.684 25.7525 155.616 25.6578 155.571 25.5586L156.41 23.0433ZM175.302 28.2497C175.302 28.4751 175.261 28.7411 175.18 29.0476C175.099 29.3451 174.995 29.6652 174.869 30.0078C174.743 30.3413 174.608 30.6839 174.463 31.0355C174.319 31.3871 174.184 31.7297 174.058 32.0633C173.931 32.3879 173.828 32.6944 173.747 32.9829C173.665 33.2714 173.625 33.5148 173.625 33.7131C173.625 33.8844 173.661 34.0197 173.733 34.1188C173.814 34.218 173.94 34.2676 174.112 34.2676C174.238 34.2676 174.414 34.2225 174.639 34.1324C174.874 34.0332 175.144 33.9025 175.451 33.7402C175.766 33.5689 176.109 33.3751 176.478 33.1587C176.857 32.9333 177.254 32.6944 177.668 32.4419C177.759 32.3879 177.849 32.3608 177.939 32.3608C178.038 32.3608 178.124 32.3969 178.196 32.469C178.277 32.5411 178.317 32.6313 178.317 32.7395C178.317 32.8567 178.268 32.9829 178.169 33.1181C178.07 33.2443 177.903 33.3931 177.668 33.5644C176.496 34.4389 175.424 35.115 174.45 35.5929C173.485 36.0707 172.714 36.3096 172.137 36.3096C171.669 36.3096 171.299 36.2375 171.028 36.0932C170.758 35.949 170.623 35.7236 170.623 35.4171C170.623 35.1286 170.744 34.7634 170.988 34.3217C171.24 33.8799 171.651 33.357 172.218 32.753C172.435 32.3924 172.606 32.0002 172.732 31.5765C172.859 31.1437 172.949 30.7245 173.003 30.3188C173.066 29.9041 173.107 29.5254 173.125 29.1828C173.143 28.8312 173.152 28.5518 173.152 28.3444C173.152 28.0018 173.093 27.7404 172.976 27.5601C172.868 27.3707 172.683 27.2761 172.421 27.2761C172.133 27.2761 171.849 27.4068 171.569 27.6682C171.299 27.9207 171.024 28.2723 170.744 28.7231C170.474 29.1738 170.204 29.7057 169.933 30.3188C169.663 30.9319 169.383 31.5945 169.095 32.3067C168.815 33.0189 168.527 33.7627 168.229 34.5381C167.932 35.3134 167.621 36.0932 167.296 36.8776C167.242 37.0308 167.174 37.1886 167.093 37.3509C167.012 37.5132 166.917 37.6664 166.809 37.8107C166.71 37.9459 166.593 38.0586 166.458 38.1488C166.331 38.2389 166.196 38.284 166.052 38.284C165.709 38.284 165.452 38.2074 165.281 38.0541C165.11 37.9008 165.024 37.6484 165.024 37.2968C165.024 37.1976 165.029 37.0939 165.038 36.9858C165.056 36.8776 165.101 36.7514 165.173 36.6071L167.783 31.3736C168.125 30.4901 168.491 29.7598 168.878 29.1828C169.275 28.6059 169.631 28.1416 169.947 27.79C169.207 28.2317 168.468 28.6735 167.729 29.1152C166.99 29.557 166.277 29.9852 165.592 30.3999C164.907 30.8056 164.258 31.1933 163.645 31.5629C163.041 31.9236 162.5 32.2436 162.022 32.5231C161.544 32.8026 161.143 33.0325 160.818 33.2128C160.494 33.3931 160.268 33.5103 160.142 33.5644C160.07 33.6095 159.993 33.632 159.912 33.632C159.813 33.632 159.732 33.5959 159.669 33.5238C159.597 33.4517 159.561 33.357 159.561 33.2398C159.561 33.1136 159.606 32.9784 159.696 32.8341C159.777 32.6809 159.926 32.5411 160.142 32.4149L163.753 30.3053C164.222 30.0258 164.695 29.7463 165.173 29.4668C165.651 29.1783 166.097 28.9124 166.512 28.669C166.935 28.4255 167.31 28.2092 167.634 28.0198C167.959 27.8305 168.207 27.6863 168.378 27.5871C168.811 27.3347 169.23 27.1183 169.636 26.938C170.05 26.7577 170.46 26.6089 170.866 26.4917C171.272 26.3745 171.682 26.2844 172.097 26.2213C172.521 26.1581 172.962 26.1131 173.422 26.086C173.62 26.086 173.828 26.1491 174.044 26.2754C174.27 26.3926 174.472 26.5548 174.653 26.7622C174.842 26.9605 174.995 27.1904 175.112 27.4519C175.239 27.7043 175.302 27.9703 175.302 28.2497Z" fill="#FBFDFB"/>
<path d="M70.0964 64.6502C70.3976 64.4513 70.7019 64.2495 71.0091 64.0447C71.2742 63.87 71.5604 63.6802 71.8676 63.4754C72.1749 63.2705 72.4641 63.0717 72.7352 62.8789C73.1448 62.5958 73.5545 62.2795 73.9642 61.9301C74.3738 61.5806 74.7504 61.2523 75.0938 60.945C75.4854 60.5836 75.8679 60.2191 76.2415 59.8516L77.1723 58.5051C77.2928 58.3605 77.4163 58.1948 77.5428 58.0081C77.6753 57.8153 77.7988 57.6315 77.9133 57.4568C78.0458 57.258 78.1754 57.0532 78.3019 56.8423C78.2175 56.5893 78.1573 56.3091 78.1211 56.0019C78.085 55.6886 78.0669 55.3512 78.0669 54.9898C78.0669 54.4837 78.1031 53.9415 78.1754 53.3631C78.2476 52.7848 78.3501 52.1974 78.4826 51.6009C78.6212 51.0045 78.7868 50.4111 78.9796 49.8207C79.1724 49.2242 79.3893 48.6549 79.6303 48.1127C79.8713 47.5645 80.1333 47.0584 80.4165 46.5945C80.6996 46.1246 81.0009 45.7179 81.3202 45.3745C81.6395 45.0311 81.9708 44.763 82.3142 44.5703C82.6637 44.3714 83.0221 44.272 83.3896 44.272C83.8113 44.272 84.1728 44.3202 84.474 44.4166C84.7753 44.513 85.0193 44.6516 85.206 44.8323C85.3928 45.007 85.5283 45.2179 85.6127 45.4649C85.7031 45.7119 85.7482 45.989 85.7482 46.2963C85.7482 46.6517 85.697 47.0373 85.5946 47.453C85.4922 47.8687 85.3476 48.3055 85.1608 48.7634C84.9801 49.2152 84.7662 49.6821 84.5192 50.1641C84.2722 50.64 84.0041 51.119 83.7149 51.6009C83.4258 52.0829 83.1215 52.5588 82.8022 53.0288C82.4889 53.4987 82.1727 53.9505 81.8534 54.3843C81.5341 54.8181 81.2178 55.2277 80.9045 55.6133C80.5972 55.9989 80.3081 56.3453 80.0369 56.6525C80.0851 57.1044 80.1695 57.5442 80.29 57.9719C80.4105 58.3936 80.5731 58.7702 80.778 59.1015C80.9828 59.4269 81.2328 59.6889 81.528 59.8877C81.8293 60.0805 82.1817 60.1769 82.5853 60.1769C82.7962 60.1769 82.992 60.1378 83.1727 60.0594C83.3535 59.9751 83.5191 59.8666 83.6698 59.7341C83.6396 59.4449 83.6155 59.1648 83.5975 58.8937C83.5794 58.6165 83.5704 58.3424 83.5704 58.0713C83.5704 57.6858 83.6005 57.3152 83.6607 56.9598C83.721 56.5983 83.8083 56.279 83.9228 56.0019C84.0433 55.7248 84.1849 55.5049 84.3475 55.3422C84.5162 55.1735 84.709 55.0892 84.9259 55.0892C85.1729 55.0892 85.3506 55.2036 85.4591 55.4326C85.5735 55.6615 85.6308 55.9537 85.6308 56.3091C85.6308 56.8212 85.5374 57.3755 85.3506 57.9719C85.1699 58.5684 84.8747 59.1497 84.465 59.716C84.5554 60.1378 84.6578 60.5474 84.7723 60.945C84.8928 61.3427 85.0042 61.7011 85.1066 62.0204C85.2151 62.3337 85.3054 62.5988 85.3777 62.8157C85.456 63.0265 85.4952 63.1591 85.4952 63.2133C85.4952 63.2976 85.4771 63.379 85.441 63.4573C85.4109 63.5296 85.3687 63.5959 85.3145 63.6561C85.2602 63.7103 85.2 63.7555 85.1337 63.7917C85.0675 63.8278 84.9982 63.8459 84.9259 63.8459C84.8717 63.8459 84.8024 63.8218 84.718 63.7736C84.6397 63.7254 84.5494 63.5928 84.4469 63.376C84.3445 63.153 84.2361 62.8157 84.1216 62.3638C84.0071 61.906 83.8897 61.2704 83.7692 60.4571C83.5764 60.6077 83.3715 60.7282 83.1547 60.8185C82.9438 60.9029 82.7119 60.945 82.4588 60.945C82.2239 60.945 81.9799 60.9029 81.7268 60.8185C81.0943 60.5956 80.5701 60.2402 80.1544 59.7522C79.7387 59.2642 79.4134 58.6858 79.1784 58.0171C78.6483 58.728 78.1543 59.4299 77.6964 60.1227C77.2385 60.8095 76.8379 61.4752 76.4945 62.1198C76.1571 62.7645 75.889 63.382 75.6902 63.9724C75.4974 64.5568 75.401 65.096 75.401 65.59C75.401 66.1141 75.5155 66.566 75.7444 66.9455C75.9794 67.319 76.3017 67.6293 76.7114 67.8763C77.1271 68.1173 77.6151 68.295 78.1754 68.4095C78.7356 68.524 79.3471 68.5812 80.0098 68.5812C80.6786 68.5812 81.3834 68.524 82.1245 68.4095C82.8715 68.295 83.6216 68.1324 84.3746 67.9215C85.1337 67.7046 85.8838 67.4425 86.6248 67.1353C87.3719 66.822 88.0828 66.4696 88.7575 66.078C89.4323 65.6804 90.0588 65.2466 90.6372 64.7767C91.2155 64.3007 91.7156 63.7947 92.1373 63.2585C92.559 62.7223 92.8904 62.156 93.1314 61.5595C93.3723 60.9631 93.4928 60.3426 93.4928 59.698C93.4928 59.6136 93.4928 59.5353 93.4928 59.463C93.4928 59.3847 93.4868 59.3033 93.4748 59.219C93.1916 59.1467 92.8994 59.0684 92.5982 58.984C92.2969 58.8937 91.9987 58.8123 91.7035 58.7401C91.4083 58.6617 91.1191 58.5985 90.836 58.5503C90.5589 58.4961 90.3028 58.4689 90.0679 58.4689C89.8871 58.4689 89.7365 58.487 89.616 58.5232C89.4955 58.5593 89.3901 58.6045 89.2997 58.6587C89.2154 58.7129 89.1371 58.7732 89.0648 58.8395C88.9925 58.9057 88.9142 58.966 88.8298 59.0202C88.7455 59.0744 88.643 59.1196 88.5226 59.1557C88.4081 59.1919 88.2635 59.21 88.0888 59.21C87.9683 59.21 87.8659 59.1889 87.7815 59.1467C87.6972 59.0985 87.6249 59.0383 87.5646 58.966C87.5104 58.8937 87.4683 58.8154 87.4381 58.731C87.414 58.6467 87.402 58.5653 87.402 58.487C87.402 58.2219 87.4833 58.0081 87.646 57.8454C87.8086 57.6827 88.0044 57.5562 88.2334 57.4659C88.4683 57.3755 88.7093 57.3152 88.9563 57.2851C89.2033 57.255 89.4112 57.2399 89.5799 57.2399C89.9052 57.2399 90.2215 57.2821 90.5287 57.3664C90.836 57.4448 91.1372 57.5442 91.4324 57.6647C91.7337 57.7791 92.0289 57.9087 92.318 58.0532C92.6072 58.1918 92.8964 58.3213 93.1856 58.4418C93.4808 58.5563 93.773 58.6557 94.0621 58.7401C94.3574 58.8184 94.6586 58.8575 94.9658 58.8575C95.1345 58.8575 95.2881 58.8214 95.4267 58.7491C95.5713 58.6708 95.7099 58.5864 95.8424 58.4961C95.9749 58.3997 96.1075 58.3153 96.24 58.243C96.3726 58.1647 96.5172 58.1255 96.6738 58.1255C96.8365 58.1255 96.9479 58.1587 97.0082 58.2249C97.0684 58.2912 97.0985 58.3756 97.0985 58.478C97.0985 58.6226 97.0202 58.7581 96.8636 58.8846C96.7069 59.0051 96.5172 59.1106 96.2943 59.2009C96.0774 59.2913 95.8514 59.3636 95.6165 59.4178C95.3815 59.466 95.1827 59.4901 95.0201 59.4901C94.8574 59.4901 94.6797 59.475 94.4869 59.4449C94.3001 59.4148 94.1013 59.3756 93.8904 59.3274V59.4178C93.9145 59.5865 93.9326 59.7522 93.9447 59.9148C93.9567 60.0775 93.9627 60.2372 93.9627 60.3938C93.9627 61.183 93.8332 61.9331 93.5742 62.644C93.3151 63.3488 92.9536 64.0116 92.4897 64.6321C92.0319 65.2526 91.4866 65.828 90.8541 66.3581C90.2275 66.8823 89.5437 67.3612 88.8027 67.795C88.0677 68.2287 87.2905 68.6113 86.4712 68.9427C85.6518 69.274 84.8235 69.5511 83.9861 69.7741C83.1547 70.003 82.3263 70.1747 81.5009 70.2892C80.6756 70.4096 79.8863 70.4699 79.1333 70.4699C78.3501 70.4699 77.6241 70.4036 76.9554 70.2711C76.2867 70.1446 75.7053 69.9488 75.2113 69.6837C74.7233 69.4186 74.3377 69.0842 74.0545 68.6806C73.7774 68.2769 73.6389 67.801 73.6389 67.2528C73.6389 66.9274 73.6931 66.5358 73.8015 66.078C73.916 65.6201 74.0606 65.1381 74.2353 64.6321C74.41 64.126 74.6058 63.6169 74.8227 63.1049C75.0396 62.5867 75.2534 62.1108 75.4643 61.677C75.4462 61.7192 75.3649 61.8005 75.2203 61.921C75.0757 62.0355 74.889 62.1771 74.66 62.3458C74.4371 62.5144 74.1841 62.6982 73.9009 62.897C73.6178 63.0958 73.3256 63.2976 73.0243 63.5025C72.7231 63.7073 72.4249 63.9091 72.1297 64.1079C71.8345 64.3068 71.5634 64.4845 71.3164 64.6411C71.0754 64.7978 70.8645 64.9303 70.6838 65.0387C70.5091 65.1472 70.3916 65.2135 70.3314 65.2376C70.2651 65.2797 70.2048 65.3008 70.1506 65.3008C70.0723 65.3008 70.0151 65.2707 69.9789 65.2104C69.9368 65.1502 69.9157 65.0809 69.9157 65.0026C69.9157 64.852 69.9759 64.7345 70.0964 64.6502ZM83.48 44.9227C83.1306 44.9227 82.8082 45.0311 82.513 45.248C82.2239 45.4649 81.9588 45.7571 81.7178 46.1246C81.4768 46.4921 81.2599 46.9198 81.0671 47.4078C80.8744 47.8898 80.7027 48.4049 80.552 48.9531C80.4014 49.4953 80.2719 50.0496 80.1635 50.6159C80.061 51.1822 79.9737 51.7305 79.9014 52.2606C79.8351 52.7848 79.7839 53.2758 79.7478 53.7336C79.7176 54.1915 79.7026 54.5801 79.7026 54.8994V55.1795C80.0339 54.8301 80.3803 54.4114 80.7418 53.9234C81.1033 53.4354 81.4557 52.9143 81.7991 52.36C82.1486 51.8058 82.4769 51.2334 82.7842 50.643C83.0974 50.0526 83.3715 49.4773 83.6065 48.917C83.8415 48.3567 84.0282 47.8296 84.1668 47.3355C84.3054 46.8415 84.3746 46.4108 84.3746 46.0433C84.3746 45.6938 84.3054 45.4197 84.1668 45.2209C84.0282 45.0221 83.7993 44.9227 83.48 44.9227ZM84.7994 57.8093C84.9078 57.5201 84.9891 57.2399 85.0434 56.9688C85.0976 56.6917 85.1247 56.4507 85.1247 56.2459C85.1247 56.0953 85.1036 55.9718 85.0614 55.8754C85.0253 55.779 84.962 55.7308 84.8717 55.7308C84.7753 55.7308 84.6849 55.785 84.6006 55.8934C84.5162 56.0019 84.4439 56.1435 84.3837 56.3182C84.3234 56.4869 84.2752 56.6827 84.2391 56.9056C84.2029 57.1225 84.1849 57.3393 84.1849 57.5562C84.1849 57.7671 84.1939 57.987 84.212 58.2159C84.23 58.4448 84.2632 58.6768 84.3114 58.9118C84.4258 58.719 84.5192 58.5292 84.5915 58.3424C84.6638 58.1496 84.7331 57.9719 84.7994 57.8093Z" fill="#FBFDFB"/>
<path d="M142.51 67.8924C142.564 67.8653 142.618 67.8518 142.672 67.8518C142.78 67.8518 142.879 67.9059 142.969 68.0141C143.059 68.1223 143.105 68.2395 143.105 68.3657C143.105 68.5009 143.059 68.6272 142.969 68.7444C142.879 68.8616 142.739 68.9878 142.55 69.123C142.361 69.2492 142.117 69.398 141.82 69.5693C141.522 69.7406 141.166 69.9479 140.752 70.1913C140.499 70.3446 140.157 70.5655 139.724 70.854C139.3 71.1335 138.822 71.4445 138.29 71.7871C137.767 72.1207 137.208 72.4678 136.613 72.8284C136.018 73.18 135.423 73.5 134.828 73.7885C134.233 74.086 133.656 74.3249 133.097 74.5053C132.538 74.6946 132.034 74.7892 131.583 74.7892C131.303 74.7892 131.046 74.7487 130.812 74.6675C130.587 74.5864 130.393 74.4512 130.23 74.2618C130.068 74.0815 129.942 73.8426 129.852 73.5451C129.762 73.2566 129.717 72.9005 129.717 72.4768C129.717 71.9088 129.811 71.2687 130.001 70.5565C130.19 69.8352 130.429 69.096 130.717 68.3387C131.015 67.5723 131.344 66.806 131.704 66.0397C132.065 65.2644 132.421 64.5386 132.773 63.8625C133.124 63.1863 133.449 62.5778 133.746 62.0368C134.044 61.4959 134.274 61.0722 134.436 60.7656C133.859 60.7566 133.255 60.7341 132.624 60.698C131.993 60.6529 131.393 60.5898 130.825 60.5087C130.267 60.4276 129.766 60.3284 129.324 60.2112C128.892 60.094 128.576 59.9542 128.378 59.792C127.53 60.8197 126.579 61.8791 125.524 62.9699C124.479 64.0518 123.356 65.1066 122.157 66.1344C120.967 67.1531 119.714 68.1223 118.398 69.0419C117.081 69.9524 115.734 70.7503 114.354 71.4355C112.984 72.1116 111.591 72.6526 110.175 73.0583C108.769 73.4549 107.376 73.6533 105.997 73.6533C105.465 73.6533 104.956 73.6353 104.469 73.5992C103.982 73.5631 103.513 73.5 103.062 73.4099C102.611 73.3197 102.179 73.1935 101.764 73.0312C101.349 72.8689 100.948 72.6616 100.56 72.4091C100.407 72.31 100.249 72.2063 100.087 72.0981C99.9249 71.9899 99.7806 71.8817 99.6544 71.7736C99.5192 71.6654 99.411 71.5617 99.3298 71.4625C99.2397 71.3543 99.1901 71.2552 99.1811 71.165H99.4651C99.4741 71.165 99.5823 71.2011 99.7896 71.2732C99.988 71.3453 100.254 71.4355 100.588 71.5437C100.921 71.6518 101.304 71.7736 101.737 71.9088C102.17 72.035 102.625 72.1522 103.103 72.2604C103.59 72.3686 104.081 72.4587 104.577 72.5309C105.082 72.603 105.564 72.639 106.024 72.639C107.178 72.639 108.3 72.4362 109.391 72.0305C110.491 71.6248 111.564 71.0749 112.61 70.3807C113.664 69.6775 114.697 68.8616 115.706 67.933C116.725 66.9953 117.73 66.0036 118.722 64.9578C119.714 63.912 120.692 62.8392 121.657 61.7393C122.63 60.6304 123.6 59.5531 124.564 58.5073C125.529 57.4615 126.494 56.4743 127.458 55.5457C128.423 54.6081 129.392 53.7922 130.366 53.098C131.348 52.3948 132.34 51.8403 133.341 51.4346C134.342 51.0289 135.356 50.8261 136.384 50.8261C137.114 50.8261 137.718 50.9252 138.196 51.1236C138.673 51.3129 139.048 51.5698 139.318 51.8944C139.598 52.219 139.791 52.5976 139.9 53.0303C140.017 53.4541 140.075 53.9003 140.075 54.3691C140.075 54.883 140.026 55.4104 139.927 55.9514C139.827 56.4923 139.715 57.0062 139.589 57.493C139.462 57.9799 139.341 58.4216 139.223 58.8183C139.106 59.206 139.03 59.508 138.994 59.7244L138.98 59.8325C140.531 59.5621 141.887 59.2015 143.05 58.7507C144.222 58.2909 145.201 57.777 145.985 57.209C146.769 56.6411 147.355 56.037 147.743 55.3969C148.14 54.7478 148.338 54.0987 148.338 53.4496C148.338 52.7013 148.072 51.9755 147.54 51.2723C147.008 50.5601 146.201 49.9335 145.12 49.3926C144.047 48.8426 142.694 48.4054 141.063 48.0808C139.44 47.7473 137.533 47.5805 135.342 47.5805C134.396 47.5805 133.327 47.6346 132.137 47.7428C130.956 47.8419 129.69 47.9772 128.337 48.1485C126.994 48.3198 125.583 48.5136 124.104 48.73C122.635 48.9463 121.134 49.1717 119.601 49.4061C118.069 49.6315 116.527 49.8524 114.976 50.0688C113.426 50.2851 111.897 50.479 110.392 50.6503C108.895 50.8216 107.439 50.9613 106.024 51.0695C104.608 51.1686 103.27 51.2182 102.007 51.2182C100.998 51.2182 100.069 51.1732 99.2217 51.083C98.3652 50.9838 97.6124 50.8261 96.9633 50.6097C96.8641 50.5826 96.6793 50.488 96.4088 50.3257C96.1384 50.1544 95.8273 49.947 95.4757 49.7036C95.1241 49.4602 94.759 49.1988 94.3803 48.9193C94.0017 48.6398 93.6546 48.3738 93.339 48.1214C93.0235 47.869 92.7621 47.6481 92.5547 47.4588C92.3473 47.2604 92.2437 47.1297 92.2437 47.0666C92.2437 47.0396 92.2662 47.026 92.3113 47.026C92.3744 47.026 92.4826 47.0576 92.6358 47.1207C92.7801 47.1748 92.9874 47.2694 93.2579 47.4047C94.6192 48.0989 96.2105 48.5902 98.0316 48.8787C99.8437 49.1582 101.922 49.2979 104.266 49.2979C105.51 49.2979 106.916 49.2348 108.485 49.1086C110.054 48.9824 111.735 48.8291 113.529 48.6488C115.323 48.4595 117.212 48.2566 119.195 48.0403C121.179 47.8239 123.207 47.6256 125.281 47.4452C127.364 47.2559 129.469 47.0982 131.596 46.9719C133.733 46.8457 135.852 46.7826 137.952 46.7826C140.08 46.7826 141.91 46.9584 143.443 47.31C144.975 47.6616 146.237 48.1349 147.229 48.73C148.221 49.316 148.951 49.9921 149.42 50.7584C149.889 51.5157 150.123 52.3046 150.123 53.125C150.123 53.729 150.001 54.3331 149.758 54.9371C149.524 55.5412 149.172 56.1227 148.703 56.6816C148.243 57.2316 147.675 57.7545 146.999 58.2503C146.323 58.7462 145.548 59.1834 144.673 59.5621C143.808 59.9317 142.848 60.2382 141.793 60.4817C140.747 60.7251 139.616 60.8783 138.398 60.9414C138.317 61.1127 138.155 61.3922 137.912 61.7799C137.677 62.1675 137.393 62.6273 137.06 63.1593C136.726 63.6822 136.356 64.2546 135.951 64.8767C135.554 65.4898 135.153 66.1163 134.747 66.7564C134.342 67.3965 133.949 68.0276 133.571 68.6497C133.192 69.2718 132.854 69.8442 132.556 70.3671C132.268 70.89 132.034 71.3453 131.853 71.733C131.682 72.1116 131.596 72.3866 131.596 72.5579C131.596 72.8554 131.659 73.0718 131.786 73.207C131.912 73.3332 132.092 73.3963 132.327 73.3963C132.615 73.3963 132.98 73.3062 133.422 73.1259C133.864 72.9456 134.355 72.7067 134.896 72.4091C135.437 72.1026 136.018 71.76 136.64 71.3814C137.263 70.9937 137.903 70.597 138.561 70.1913C139.219 69.7766 139.882 69.3709 140.549 68.9742C141.216 68.5776 141.869 68.2169 142.51 67.8924ZM134.991 59.792C135.252 59.242 135.541 58.6605 135.856 58.0475C136.181 57.4254 136.483 56.8123 136.762 56.2083C137.042 55.5953 137.276 55.0092 137.465 54.4503C137.655 53.8823 137.749 53.382 137.749 52.9492C137.749 52.5435 137.673 52.255 137.519 52.0837C137.366 51.9124 137.159 51.8268 136.897 51.8268C136.573 51.8268 136.181 51.9395 135.721 52.1649C135.27 52.3902 134.788 52.6923 134.274 53.0709C133.769 53.4496 133.255 53.8823 132.732 54.3691C132.209 54.856 131.713 55.3609 131.245 55.8837C130.785 56.4066 130.37 56.9295 130.001 57.4524C129.631 57.9663 129.351 58.4442 129.162 58.8859C129.27 59.0302 129.518 59.1609 129.906 59.2781C130.294 59.3863 130.762 59.4809 131.312 59.5621C131.862 59.6342 132.457 59.6928 133.097 59.7379C133.746 59.7739 134.378 59.792 134.991 59.792ZM157.899 67.8924C157.962 67.8563 158.03 67.8383 158.102 67.8383C158.21 67.8383 158.309 67.8744 158.399 67.9465C158.49 68.0186 158.535 68.1178 158.535 68.244C158.535 68.3522 158.485 68.4739 158.386 68.6091C158.296 68.7444 158.133 68.8796 157.899 69.0148C157.439 69.2763 156.934 69.5693 156.384 69.8938C155.843 70.2094 155.285 70.5339 154.708 70.8675C154.14 71.2011 153.572 71.5301 153.004 71.8547C152.436 72.1793 151.895 72.4768 151.381 72.7472C150.876 73.0177 150.416 73.2521 150.001 73.4504C149.587 73.6398 149.249 73.7705 148.987 73.8426C148.843 73.8877 148.708 73.9147 148.581 73.9238C148.464 73.9418 148.356 73.9508 148.257 73.9508C147.878 73.9508 147.567 73.8561 147.324 73.6668C147.08 73.4775 146.887 73.2251 146.742 72.9095C146.607 72.585 146.512 72.2108 146.458 71.7871C146.404 71.3543 146.377 70.8991 146.377 70.4212C146.377 69.7721 146.409 69.114 146.472 68.4468C146.535 67.7707 146.594 67.1486 146.648 66.5806L143.713 68.3116L142.523 69.0148C142.46 69.0509 142.388 69.0689 142.307 69.0689C142.199 69.0689 142.104 69.0328 142.023 68.9607C141.942 68.8886 141.901 68.7894 141.901 68.6632C141.901 68.555 141.946 68.4378 142.036 68.3116C142.126 68.1764 142.289 68.0366 142.523 67.8924L146.729 65.4176C147.162 63.9211 147.608 62.5462 148.068 61.293C148.527 60.0399 149.028 58.9084 149.569 57.8987C150.11 56.889 150.7 56.001 151.34 55.2346C151.98 54.4683 152.697 53.8327 153.49 53.3279C154.284 52.814 155.163 52.4308 156.127 52.1784C157.101 51.9169 158.183 51.7862 159.373 51.7862C159.968 51.7862 160.468 51.8403 160.874 51.9485C161.28 52.0477 161.609 52.1964 161.861 52.3948C162.123 52.5841 162.308 52.814 162.416 53.0844C162.533 53.3549 162.592 53.6524 162.592 53.977C162.592 54.3827 162.456 54.8199 162.186 55.2887C161.915 55.7485 161.55 56.2263 161.09 56.7222C160.631 57.218 160.099 57.7229 159.495 58.2368C158.891 58.7417 158.255 59.242 157.588 59.7379C156.921 60.2337 156.24 60.7115 155.546 61.1713C154.861 61.6311 154.203 62.0594 153.572 62.456C152.949 62.8527 152.372 63.2088 151.841 63.5244C151.318 63.8399 150.889 64.0969 150.556 64.2952C150.394 64.8632 150.231 65.4582 150.069 66.0803C149.907 66.7023 149.758 67.3289 149.623 67.96C149.497 68.5911 149.393 69.2177 149.312 69.8397C149.231 70.4528 149.19 71.0298 149.19 71.5707C149.19 71.7871 149.208 71.9719 149.244 72.1252C149.289 72.2784 149.361 72.3551 149.46 72.3551C149.632 72.3551 149.884 72.2919 150.218 72.1657C150.56 72.0305 150.953 71.8502 151.394 71.6248C151.836 71.3994 152.318 71.1425 152.841 70.854C153.373 70.5565 153.923 70.2409 154.491 69.9074C155.059 69.5738 155.632 69.2357 156.209 68.8931C156.786 68.5505 157.349 68.2169 157.899 67.8924ZM150.745 63.0511C151.286 62.7626 151.926 62.3839 152.666 61.9151C153.414 61.4463 154.185 60.9324 154.978 60.3735C155.78 59.8055 156.569 59.2105 157.345 58.5884C158.12 57.9663 158.814 57.3578 159.427 56.7628C160.049 56.1677 160.55 55.6043 160.928 55.0724C161.307 54.5314 161.496 54.0626 161.496 53.6659C161.496 53.3324 161.32 53.0664 160.969 52.8681C160.626 52.6607 160.063 52.557 159.278 52.557C158.043 52.557 156.975 52.7779 156.073 53.2197C155.172 53.6614 154.387 54.3196 153.72 55.1941C153.062 56.0686 152.494 57.164 152.016 58.4802C151.548 59.7875 151.124 61.3111 150.745 63.0511ZM173.113 69.0148C171.715 69.8172 170.53 70.5159 169.556 71.1109C168.582 71.6969 167.753 72.1838 167.068 72.5714C166.383 72.9501 165.801 73.2341 165.323 73.4234C164.854 73.6037 164.426 73.6939 164.039 73.6939C163.66 73.6939 163.335 73.6488 163.065 73.5586C162.803 73.4685 162.587 73.3468 162.416 73.1935C162.244 73.0402 162.118 72.8554 162.037 72.639C161.965 72.4227 161.929 72.1883 161.929 71.9358C161.929 71.7465 161.969 71.5527 162.051 71.3543C162.132 71.156 162.231 70.9531 162.348 70.7458C162.474 70.5384 162.605 70.3221 162.74 70.0967C162.876 69.8623 163.002 69.6143 163.119 69.3529L165.175 64.755L157.913 69.0148C157.795 69.0599 157.714 69.0824 157.669 69.0824C157.561 69.0824 157.466 69.0464 157.385 68.9742C157.295 68.9021 157.25 68.8075 157.25 68.6903C157.25 68.5821 157.299 68.4604 157.399 68.3251C157.489 68.1899 157.66 68.0457 157.913 67.8924L161.415 65.8504C161.875 65.5799 162.339 65.3094 162.808 65.039C163.277 64.7685 163.714 64.5161 164.12 64.2817C164.534 64.0473 164.904 63.8399 165.229 63.6596C165.562 63.4703 165.819 63.326 165.999 63.2269H167.744C167.78 63.2539 167.812 63.299 167.839 63.3621C167.866 63.4252 167.879 63.5199 167.879 63.6461C167.879 63.8805 167.812 64.2141 167.676 64.6468C167.541 65.0705 167.37 65.5484 167.162 66.0803C166.964 66.6122 166.739 67.1711 166.486 67.7572C166.243 68.3341 166.013 68.8841 165.797 69.407C165.58 69.9209 165.355 70.4348 165.12 70.9486C164.886 71.4625 164.652 71.9899 164.417 72.5309C164.661 72.5309 165.044 72.4091 165.567 72.1657C166.099 71.9223 166.739 71.5932 167.487 71.1785C168.244 70.7548 169.096 70.2635 170.043 69.7045C170.999 69.1365 172.022 68.5325 173.113 67.8924C173.149 67.8563 173.216 67.8383 173.315 67.8383C173.424 67.8383 173.523 67.8744 173.613 67.9465C173.712 68.0186 173.762 68.1178 173.762 68.244C173.762 68.3522 173.712 68.4739 173.613 68.6091C173.523 68.7353 173.356 68.8706 173.113 69.0148ZM169.38 58.4937C169.434 58.4937 169.533 58.4982 169.678 58.5073C169.831 58.5073 170.002 58.5163 170.192 58.5343C170.381 58.5523 170.579 58.5839 170.787 58.629C170.994 58.665 171.183 58.7236 171.355 58.8048C171.526 58.8769 171.67 58.9716 171.787 59.0888C171.905 59.206 171.968 59.3502 171.977 59.5215L170.016 61.0091L169.123 61.4283C168.961 61.4283 168.835 61.3832 168.745 61.293C168.654 61.2029 168.587 61.1082 168.542 61.0091L169.38 58.4937ZM189.462 64.6874C189.12 64.6874 188.691 64.7865 188.178 64.9849C187.664 65.1742 187.1 65.4402 186.487 65.7828C185.874 66.1163 185.234 66.513 184.567 66.9728C183.909 67.4326 183.26 67.933 182.619 68.4739C181.988 69.0148 181.384 69.5873 180.807 70.1913C180.239 70.7864 179.744 71.3859 179.32 71.9899C179.275 72.035 179.252 72.1387 179.252 72.301C179.252 72.4542 179.225 72.6165 179.171 72.7878C179.126 72.9591 179.031 73.1124 178.887 73.2476C178.743 73.3828 178.504 73.4504 178.17 73.4504C177.936 73.4504 177.751 73.4234 177.616 73.3693C177.49 73.3152 177.39 73.2431 177.318 73.1529C177.255 73.0538 177.215 72.9411 177.197 72.8148C177.179 72.6796 177.17 72.5309 177.17 72.3686C177.17 72.2063 177.215 71.9674 177.305 71.6518C177.395 71.3363 177.512 70.9712 177.656 70.5565C177.801 70.1418 177.963 69.6955 178.143 69.2177C178.324 68.7398 178.504 68.262 178.684 67.7842C178.874 67.3064 179.049 66.8421 179.212 66.3913C179.383 65.9405 179.527 65.5348 179.644 65.1742L173.113 69.0148C173.068 69.0238 173.032 69.0328 173.004 69.0419C172.968 69.0419 172.941 69.0419 172.923 69.0419C172.797 69.0419 172.707 69.0103 172.653 68.9472C172.59 68.8751 172.558 68.7894 172.558 68.6903C172.558 68.564 172.608 68.4288 172.707 68.2846C172.797 68.1313 172.932 68.0006 173.113 67.8924C174.465 67.09 175.578 66.4319 176.453 65.918C177.336 65.3951 178.044 64.9759 178.576 64.6603C179.108 64.3448 179.505 64.1104 179.766 63.9571C180.037 63.8039 180.239 63.6912 180.375 63.619C180.501 63.5469 180.614 63.4973 180.713 63.4703C180.821 63.4432 180.938 63.4297 181.064 63.4297C181.326 63.4297 181.538 63.5063 181.7 63.6596C181.871 63.8129 181.957 63.9842 181.957 64.1735C181.957 64.3628 181.898 64.6243 181.781 64.9578C181.664 65.2824 181.52 65.6385 181.348 66.0262C181.177 66.4138 181.001 66.8105 180.821 67.2162C180.641 67.6129 180.487 67.9825 180.361 68.3251C180.307 68.4604 180.262 68.5731 180.226 68.6632C180.199 68.7444 180.163 68.839 180.118 68.9472C180.082 69.0554 180.028 69.1951 179.955 69.3664C179.883 69.5287 179.78 69.7586 179.644 70.0561C180.023 69.5693 180.465 69.0599 180.97 68.528C181.484 67.9961 182.038 67.4777 182.633 66.9728C183.237 66.4589 183.877 65.9721 184.553 65.5123C185.238 65.0525 185.942 64.6513 186.663 64.3087C187.393 63.9571 188.137 63.6822 188.894 63.4838C189.652 63.2765 190.404 63.1728 191.153 63.1728C191.612 63.1728 191.928 63.2719 192.099 63.4703C192.28 63.6596 192.37 63.9211 192.37 64.2546C192.37 64.5251 192.32 64.8542 192.221 65.2418C192.122 65.6295 191.987 66.0532 191.815 66.513C191.644 66.9638 191.45 67.4506 191.234 67.9735C191.017 68.4874 190.788 69.0103 190.544 69.5422C190.31 70.0651 190.071 70.5925 189.827 71.1244C189.593 71.6564 189.372 72.1657 189.165 72.6526C189.679 72.4452 190.215 72.1747 190.774 71.8412C191.333 71.5076 191.928 71.1335 192.559 70.7187C193.199 70.304 193.871 69.8578 194.574 69.3799C195.286 68.8931 196.048 68.3973 196.859 67.8924C196.923 67.8563 197.008 67.8383 197.116 67.8383C197.333 67.8383 197.441 67.96 197.441 68.2034C197.441 68.3296 197.391 68.4694 197.292 68.6226C197.193 68.7669 197.049 68.8976 196.859 69.0148C195.787 69.682 194.817 70.3176 193.952 70.9216C193.086 71.5256 192.293 72.0621 191.572 72.5309C190.86 72.9997 190.206 73.3693 189.611 73.6398C189.025 73.9192 188.48 74.059 187.975 74.059C187.668 74.059 187.407 74.0184 187.19 73.9373C186.974 73.8652 186.794 73.766 186.649 73.6398C186.514 73.5135 186.41 73.3648 186.338 73.1935C186.275 73.0132 186.244 72.8284 186.244 72.639C186.244 72.4317 186.284 72.2288 186.365 72.0305C186.456 71.8231 186.577 71.6023 186.731 71.3679C187.01 70.7548 187.321 70.1147 187.664 69.4476C188.006 68.7714 188.322 68.1313 188.61 67.5273C188.899 66.9232 189.142 66.3868 189.341 65.918C189.539 65.4492 189.638 65.1111 189.638 64.9038C189.638 64.7595 189.579 64.6874 189.462 64.6874ZM196.859 69.0148C196.796 69.0509 196.738 69.0689 196.684 69.0689C196.593 69.0689 196.526 69.0328 196.481 68.9607C196.436 68.8796 196.413 68.7804 196.413 68.6632C196.413 68.537 196.445 68.4018 196.508 68.2575C196.571 68.1133 196.688 67.9916 196.859 67.8924L201.863 64.9443C202.485 64.5837 203.148 64.2727 203.851 64.0112C204.554 63.7498 205.266 63.5379 205.988 63.3756C206.718 63.2043 207.439 63.0826 208.151 63.0105C208.864 62.9294 209.535 62.8888 210.166 62.8888C210.527 62.8888 210.865 62.9158 211.181 62.9699C211.496 63.015 211.767 63.0871 211.992 63.1863C212.226 63.2765 212.407 63.3891 212.533 63.5244C212.668 63.6596 212.736 63.8129 212.736 63.9842C212.736 64.1104 212.691 64.2005 212.601 64.2546C212.51 64.3087 212.402 64.3493 212.276 64.3763C212.159 64.3944 212.033 64.4079 211.897 64.4169C211.771 64.4259 211.672 64.4485 211.6 64.4845C211.546 64.6558 211.46 64.9218 211.343 65.2824C211.226 65.634 211.108 65.9991 210.991 66.3778C210.874 66.7474 210.766 67.081 210.667 67.3785C210.577 67.667 210.527 67.8338 210.518 67.8789C210.401 68.2575 210.238 68.7398 210.031 69.3259C209.833 69.9028 209.612 70.6782 209.368 71.6518C209.377 71.6518 209.477 71.6023 209.666 71.5031C209.864 71.3949 210.117 71.2552 210.423 71.0839C210.739 70.9126 211.095 70.7142 211.492 70.4888C211.888 70.2635 212.298 70.0336 212.722 69.7992L215.954 67.8924C216.08 67.8203 216.189 67.7842 216.279 67.7842C216.378 67.7842 216.455 67.8203 216.509 67.8924C216.563 67.9555 216.59 68.0366 216.59 68.1358C216.59 68.262 216.54 68.4108 216.441 68.5821C216.342 68.7444 216.18 68.8886 215.954 69.0148L208.76 73.2341C208.58 73.3423 208.413 73.4189 208.26 73.464C208.106 73.509 207.967 73.5316 207.84 73.5316C207.66 73.5316 207.507 73.491 207.381 73.4099C207.254 73.3287 207.151 73.216 207.069 73.0718C206.988 72.9275 206.925 72.7653 206.88 72.585C206.844 72.3956 206.826 72.1973 206.826 71.9899C206.826 71.7645 206.849 71.5392 206.894 71.3138C206.939 71.0884 206.997 70.872 207.069 70.6647C206.808 71.1785 206.502 71.6248 206.15 72.0035C205.807 72.3821 205.438 72.7022 205.041 72.9636C204.653 73.216 204.252 73.4054 203.837 73.5316C203.423 73.6578 203.017 73.7209 202.62 73.7209C202.224 73.7209 201.85 73.6578 201.498 73.5316C201.146 73.4054 200.835 73.2205 200.565 72.9771C200.303 72.7247 200.096 72.4137 199.943 72.044C199.789 71.6744 199.713 71.2462 199.713 70.7593C199.713 70.4708 199.74 70.1508 199.794 69.7992C199.857 69.4476 199.938 69.0914 200.037 68.7308C200.137 68.3702 200.249 68.0186 200.375 67.676C200.502 67.3244 200.632 67.0044 200.768 66.7159L196.859 69.0148ZM209.152 64.0383C208.431 64.0383 207.741 64.16 207.083 64.4034C206.425 64.6468 205.812 64.9669 205.244 65.3635C204.685 65.7602 204.176 66.2155 203.716 66.7294C203.265 67.2343 202.877 67.7572 202.553 68.2981C202.237 68.83 201.989 69.3574 201.809 69.8803C201.638 70.4032 201.552 70.872 201.552 71.2867C201.552 71.7465 201.651 72.1207 201.85 72.4091C202.057 72.6886 202.39 72.8284 202.85 72.8284C203.121 72.8284 203.414 72.7472 203.729 72.585C204.054 72.4137 204.378 72.1928 204.703 71.9223C205.037 71.6428 205.361 71.3318 205.677 70.9892C206.001 70.6376 206.299 70.286 206.569 69.9344C206.84 69.5738 207.074 69.2267 207.272 68.8931C207.48 68.5505 207.628 68.253 207.719 68.0006L209.152 64.0383Z" fill="#FBFDFB"/>
</g>
</svg>
